<?xml version="1.0" encoding="utf-8" ?>
<!DOCTYPE svg PUBLIC "-//W3C//DTD SVG 1.1//EN" "http://www.w3.org/Graphics/SVG/1.1/DTD/svg11.dtd">
<svg
  version="1.1"
  id="Contours"
  xmlns="http://www.w3.org/2000/svg"
  xmlns:xlink="http://www.w3.org/1999/xlink"
  x="0px"
  y="0px"
  width="859.769653px"
  height="859.769653px"
  viewBox="-0.000022 -0.000006 859.769653 952.964417"
  enable-background="new 0 0 859.769653 859.769653"
  xml:space="preserve"
  fill="none"
  stroke-linecap="round"
  stroke-linejoin="round"
>
  <animate
    attributeName="opacity"
    dur="8s"
    keyTimes="0;0.25;0.30625;0.31875;0.375;1"
    from="0"
    values="0;0;1;1;0;0"
    repeatCount="indefinite"
  />
  <path
    class="selected"
    fill="#ffb6c1"
    opacity="1.000000"
    stroke="none"
    d="
M648.031638 658.842963 C652.759787 663.904486 657.245505 668.708930 661.714499 673.528876 C670.066916 682.537177 678.364157 691.597235 686.770651 700.554755 C693.870871 708.120307 701.229270 715.447333 708.223532 723.107978 C715.232321 730.784369 721.900290 738.771186 728.780173 746.566596 C732.338645 750.598700 736.011130 754.531073 739.670188 758.473334 C748.613303 768.108466 757.631369 777.674750 766.513693 787.365546 C771.345969 792.637519 775.824973 798.235541 780.703635 803.462104 C792.362937 815.952216 804.303732 828.181342 815.869162 840.756659 C827.129294 852.999579 838.225485 865.403388 849.051047 878.030219 C852.686545 882.270697 856.205100 887.070258 858.099753 892.230170 C860.548117 898.897650 860.321555 906.093817 857.305686 912.932929 C853.069602 922.538398 847.459372 930.871161 838.100974 936.332953 C824.918234 944.026679 811.251242 949.299506 795.600363 949.890448 C787.204733 950.207343 778.907004 949.894965 771.373923 947.233588 C764.923850 944.954901 759.150046 940.045966 753.861716 935.406195 C749.030905 931.167670 745.376853 925.615424 740.987326 920.841498 C724.544333 902.958686 707.986106 885.181952 691.528830 867.312201 C685.801291 861.093207 680.276999 854.687445 674.597556 848.423529 C664.372336 837.146186 653.933371 826.057441 643.898215 814.614203 C635.305808 804.816107 627.331931 794.475409 618.738913 784.677924 C613.732321 778.969428 607.998679 773.903510 602.688620 768.454413 C600.544943 766.254462 598.705344 763.761664 596.647360 761.473944 C587.375998 751.167792 578.006125 740.949652 568.812155 730.575141 C563.038596 724.060370 557.565207 717.280585 551.862204 710.701972 C546.650900 704.690619 541.355612 698.750067 536.020285 692.848090 C522.986228 678.429999 509.900656 664.058539 496.849021 649.656440 C484.132590 635.624213 471.432273 621.577460 458.725852 607.536566 C456.934836 605.557441 455.240622 602.110968 453.334372 601.990546 C451.288352 601.861274 449.027121 604.833441 446.892600 606.494208 C445.118552 607.874335 443.293967 609.211249 441.661765 610.747870 C434.571677 617.423041 427.470847 624.089911 420.512229 630.901191 C412.573996 638.671576 405.063010 646.899359 396.863669 654.377387 C383.551291 666.518744 369.763083 678.137030 356.309958 690.126654 C349.934775 695.808173 344.143088 702.164374 337.604697 707.638739 C325.804404 717.518500 313.651450 726.977729 301.626120 736.587958 C295.499167 741.484320 289.310691 746.303778 283.184104 751.200751 C274.288046 758.311347 265.435202 765.475898 256.540122 772.587714 C250.538718 777.385810 244.574668 782.235785 238.452414 786.875922 C230.997946 792.525824 223.296164 797.851142 215.880820 803.550360 C206.238181 810.961615 196.916831 818.796210 187.180808 826.079047 C180.269065 831.249213 172.764304 835.620551 165.766745 840.683417 C155.083884 848.412421 144.548728 856.350165 134.073020 864.358954 C128.454978 868.654120 123.257651 873.508002 117.567038 877.697333 C111.891196 881.875678 105.827841 885.526191 99.953513 889.436957 C98.634360 890.315131 97.365866 891.276191 96.123557 892.261664 C87.966269 898.731635 79.785727 905.173163 71.685263 911.713691 C64.173361 917.778998 56.924155 924.184027 49.230490 930.004828 C44.009116 933.955146 38.234641 937.178412 32.680503 940.683783 C26.475607 944.600165 20.307822 948.584784 13.962912 952.261908 C12.634360 953.032050 9.458579 953.211493 9.120139 952.586982 C8.247580 950.976508 7.631857 948.296088 8.415122 946.864569 C15.565451 933.796942 22.504721 920.561347 30.572837 908.063788 C37.708335 897.010688 46.122153 886.773261 54.123679 876.291693 C62.247885 865.649604 70.862631 855.369208 78.698447 844.523017 C85.947592 834.488349 92.211936 823.745917 99.355857 813.630194 C105.241782 805.295966 112.003501 797.583075 117.963645 789.297431 C123.360251 781.795233 128.022910 773.768256 133.332724 766.199408 C138.261984 759.172797 143.651328 752.470404 148.778159 745.580512 C153.984091 738.584296 158.956320 731.407660 164.331259 724.545478 C168.802634 718.836859 173.883566 713.606635 178.374777 707.912543 C182.882956 702.196723 186.929953 696.119818 191.298178 690.290229 C196.822531 682.917914 202.404807 675.586982 208.081320 668.331488 C212.044394 663.265815 216.186911 658.339667 220.287619 653.383002 C224.179160 648.678900 228.171897 644.057929 232.028830 639.326117 C240.144858 629.369086 248.009421 619.199774 256.354331 609.440009 C261.269675 603.691474 267.025412 598.670172 272.185385 593.119391 C276.486655 588.492316 280.446372 583.549201 284.600791 578.783881 C291.651755 570.695868 298.819052 562.707465 305.763266 554.529303 C308.199790 551.659796 309.935141 548.200324 312.327475 545.286750 C315.623129 541.273017 319.292868 537.569037 322.704856 533.647589 C328.874899 526.556220 334.894980 519.332648 341.147421 512.315558 C343.065878 510.162421 345.513205 508.472235 347.763083 506.624518 C351.215537 503.789313 354.877219 501.174811 358.048545 498.058051 C358.746787 497.371894 358.329672 494.513617 357.458640 493.442206 C352.949301 487.895392 348.183127 482.552436 343.400046 477.234198 C333.777060 466.534491 324.118247 455.866706 314.411765 445.242682 C306.350485 436.419318 298.042807 427.816596 290.123557 418.868842 C276.562461 403.546576 263.350546 387.914435 249.732749 372.643439 C242.388083 364.407233 234.358115 356.785163 226.914572 348.632941 C221.364951 342.555060 216.380026 335.964789 210.921530 329.799384 C205.923056 324.153632 200.544394 318.845893 195.488791 313.248786 C191.698630 309.052497 188.202475 304.592414 184.490561 300.323554 C179.469565 294.549140 174.379660 288.834540 169.297141 283.113898 C161.176291 273.973212 152.959799 264.916205 144.923667 255.701850 C132.129965 241.032355 119.476157 226.240973 106.714194 211.543647 C99.461203 203.190741 92.111106 194.922309 84.804587 186.615912 C77.498191 178.309455 69.959860 170.190436 63.010886 161.595038 C60.574362 158.581305 59.522910 154.423896 57.948569 150.741828 C54.256064 142.105597 50.400473 133.529242 47.031455 124.766852 C42.220297 112.253913 37.909812 99.549079 33.152854 87.014472 C28.727683 75.353980 23.356894 64.013861 19.568320 52.160071 C15.089499 38.146460 8.454611 25.078589 3.271933 11.396094 C2.945395 10.534003 2.670066 9.525367 2.043723 8.927863 C0.140280 7.112067 -1.105386 4.807288 1.418234 3.232245 C3.248923 2.089637 6.795981 1.411078 8.315024 2.422339 C18.962607 9.511054 29.283896 17.090064 39.705344 24.518256 C47.684043 30.205298 55.754660 35.769721 63.602011 41.632758 C70.396140 46.708930 76.943564 52.116095 83.582297 57.399268 C91.858664 63.985572 100.201865 70.491919 108.353903 77.229163 C114.099387 81.977515 119.537619 87.095771 125.183798 91.966925 C128.963828 95.228156 132.570456 98.826972 136.778891 101.426093 C145.227316 106.643927 149.507834 115.373908 155.711753 122.474616 C159.342551 126.630316 163.189902 130.600348 167.014487 134.582282 C171.145835 138.883673 175.351767 143.113776 179.548300 147.352118 C183.163230 151.002997 186.957968 154.487311 190.417075 158.278937 C202.955649 172.022467 215.357016 185.891181 227.879904 199.649115 C230.774253 202.828925 234.088400 205.628058 236.963706 208.823371 C247.868613 220.941718 258.605673 233.211554 269.549765 245.294074 C273.553488 249.714240 278.092795 253.646674 282.146384 258.025092 C286.871787 263.128913 291.260764 268.542975 295.935935 273.695258 C298.713156 276.756049 301.879721 279.463019 304.666159 282.516242 C317.675070 296.770758 330.557028 311.141486 343.599021 325.365424 C350.121054 332.478644 356.971091 339.290778 363.509665 346.389350 C366.662253 349.811957 369.272055 353.733527 372.412985 357.168219 C384.576682 370.469855 396.870749 383.652228 409.084982 396.907782 C416.168234 404.594855 423.229270 412.303229 430.220358 420.073859 C432.378562 422.472724 434.283347 423.928534 436.908225 420.629645 C437.765280 419.552497 439.313132 419.050177 440.289084 418.038092 C446.797141 411.288520 452.870139 404.071418 459.777609 397.765631 C471.998801 386.609137 484.777732 376.065924 497.194480 365.120063 C502.975241 360.024054 508.239890 354.331366 514.124533 349.366767 C521.823020 342.871833 529.898581 336.823432 537.832053 330.608832 C538.301291 330.241339 539.081442 330.239508 539.496482 329.839118 C550.188254 319.526618 563.145529 312.481269 575.455954 304.451728 C582.295310 299.990790 588.069602 293.928656 594.566306 288.901435 C599.923361 284.755988 605.662863 281.107672 611.183493 277.169745 C615.057761 274.406073 618.894919 271.584418 622.639914 268.649909 C623.430075 268.030707 624.084494 266.856391 624.230246 265.854682 C625.964133 253.930548 633.685202 246.705024 643.775656 241.808173 C647.968283 239.773505 648.242209 236.171698 648.094992 233.157355 C647.542136 221.837348 652.881491 212.092536 655.804343 201.747504 C657.973166 194.072089 661.049216 186.590583 664.364890 179.316107 C669.545798 167.949591 675.142478 156.765692 680.813864 145.632270 C684.329367 138.731086 687.795310 131.708258 692.206076 125.383429 C698.056052 116.994941 704.565695 109.028205 711.223044 101.249213 C723.174216 87.284430 735.072898 73.237830 747.753562 59.950812 C753.493796 53.936194 761.095481 49.712165 767.780051 44.581366 C780.207663 35.042517 793.517111 26.684516 804.879660 15.704261 C810.349143 10.418769 816.887351 6.232917 822.996848 1.622138 C823.958396 0.896491 825.198630 0.165290 826.335349 0.123236 C828.796897 0.032202 831.740134 -0.328576 833.554221 0.852545 C834.491599 1.462836 833.996482 5.369239 833.154685 7.367896 C831.779196 10.634558 829.849265 13.756476 827.686545 16.582312 C824.367209 20.919654 824.514182 25.863074 824.247702 30.862036 C823.693381 41.258094 822.902609 51.641577 822.345725 62.037513 C822.283591 63.198432 823.104270 64.406653 823.515524 65.592963 C824.228293 64.635504 824.976584 63.702216 825.648337 62.716773 C830.608176 55.441138 835.490744 48.111548 840.537497 40.896826 C842.199240 38.521338 844.111106 36.258948 846.234030 34.296759 C847.161521 33.439337 849.306662 32.758124 850.187277 33.255835 C851.541159 34.021094 853.288962 36.015021 853.115256 37.238501 C852.121848 44.233527 850.604636 51.153876 849.275046 58.101355 C848.269919 63.353217 847.351218 68.622748 846.264548 73.857550 C844.738181 81.210761 843.213767 88.568274 841.466330 95.870795 C839.185202 105.403815 836.842429 114.928473 834.201193 124.365729 C833.214865 127.890143 831.448264 131.225592 829.802634 134.530158 C826.359274 141.444525 823.013816 148.427680 819.159445 155.112311 C814.484397 163.219977 809.751731 171.356818 804.278342 178.927436 C795.641989 190.872687 789.085715 204.393927 777.915183 214.445502 C765.199240 225.887641 752.723899 237.624457 739.568015 248.539069 C732.880149 254.087714 724.981101 258.198066 717.528342 262.794623 C713.042868 265.560920 708.284934 267.885260 703.799826 270.651984 C701.118918 272.305732 700.416037 274.784186 701.956931 277.795050 C705.807028 285.319098 701.697898 297.200873 692.261984 298.741950 C687.765647 299.476264 688.677512 304.580878 687.295188 307.778266 C684.912497 313.290168 682.754538 318.903083 680.246604 324.356086 C677.024924 331.361090 674.003317 338.518927 670.078879 345.125861 C664.244040 354.949042 657.700949 364.351874 651.442649 373.922797 C650.065940 376.028144 648.728659 378.172492 647.188254 380.155097 C637.677878 392.394660 628.133322 404.607550 618.561911 416.799384 C613.418601 423.350775 608.310568 429.935248 602.980612 436.333197 C598.209128 442.060614 593.140036 447.539496 588.228781 453.151313 C576.670554 466.358649 565.291037 479.726996 553.523825 492.745246 C545.248435 501.900275 536.602927 510.737250 527.811057 519.399787 C524.773459 522.392646 525.131857 523.942450 527.886130 526.868109 C536.492453 536.009894 544.587424 545.631049 553.110373 554.854010 C561.036276 563.430793 569.395041 571.607917 577.308493 580.195685 C584.915915 588.451361 592.076560 597.117743 599.656027 605.400031 C606.659323 613.052802 614.136252 620.274604 621.081565 627.977362 C630.147971 638.032538 638.896384 648.374457 648.031638 658.842963 M768.281638 208.092963 C772.643332 202.731330 777.095847 197.440497 781.343527 191.989997 C786.624045 185.214057 792.056052 178.520880 796.828391 171.394049 C801.489401 164.433478 805.359274 156.946357 809.659323 149.739753 C812.456809 145.051337 816.191550 140.756720 818.128684 135.752387 C823.247092 122.529608 828.247092 109.194648 832.088400 95.564460 C835.357688 83.963691 836.977927 71.895484 839.230979 60.015723 C839.434348 58.943763 838.927512 57.737097 838.750388 56.592993 C837.615500 57.071601 835.973899 57.226569 835.428122 58.081336 C831.912253 63.587653 828.230490 69.053778 825.432273 74.928076 C823.728659 78.504187 823.419577 82.769599 822.639792 86.755805 C820.754416 96.393378 817.177878 105.433356 813.074484 114.291571 C810.159445 120.584235 807.298117 126.907111 804.141257 133.077460 C803.593039 134.149054 801.692526 134.528693 800.416525 135.227912 C800.038230 133.718268 799.038230 132.047126 799.381613 130.724921 C801.758200 121.573798 804.518088 112.522956 806.950827 103.385504 C809.193503 94.961737 811.734641 86.558936 813.111594 77.981116 C814.271628 70.753241 813.997336 63.288794 814.223410 55.924933 C814.253928 54.934088 813.496482 53.919043 813.103903 52.915168 C812.161276 53.976264 810.653830 54.905127 810.369406 56.120368 C808.738547 63.086707 804.190451 68.266089 800.413840 74.041144 C792.584982 86.012519 783.041403 96.340827 772.457785 105.795661 C771.292624 106.836554 769.336936 106.992682 767.748068 107.559211 C768.379782 105.950019 768.763816 104.179389 769.688376 102.761115 C772.781882 98.015204 776.215109 93.487891 779.242331 88.702368 C782.564597 83.450721 785.455710 77.927253 788.754538 72.659766 C797.087058 59.354041 803.940085 45.385047 808.256980 30.245093 C808.447287 29.577643 808.276023 28.807105 808.273215 28.084571 C807.646018 28.254035 806.939963 28.295081 806.408957 28.621161 C805.463156 29.202002 804.615744 29.946051 803.739646 30.637519 C796.580588 36.287238 789.552512 42.113074 782.233542 47.547492 C773.871848 53.756263 764.640524 58.931159 756.911032 65.816901 C748.651389 73.175025 741.617453 81.928504 734.207907 90.215399 C727.741843 97.447272 721.454856 104.841315 715.187766 112.247443 C713.786276 113.903571 713.087912 116.200629 711.572775 117.706610 C702.467795 126.757453 696.635398 138.078131 690.440207 148.998358 C682.525412 162.950080 675.913962 177.634589 668.454367 191.853034 C661.154807 205.766547 657.108542 220.301093 658.207175 236.140631 C658.407126 239.021674 658.716086 240.350898 662.174704 240.799262 C665.881369 241.279731 670.105857 242.557929 672.814231 244.949164 C678.422751 249.901068 683.094382 255.901252 688.340964 261.285590 C689.610739 262.588752 692.015280 264.310431 693.217063 263.890509 C698.285544 262.119574 703.446066 260.151801 707.923728 257.253058 C715.624777 252.267401 723.137595 246.890509 730.196555 241.035285 C742.932150 230.471198 755.274802 219.433051 768.281638 208.092963 M785.281638 858.092963 C780.683127 853.161078 776.032858 848.276313 771.495871 843.288275 C758.622702 829.135443 745.884177 814.859076 732.917990 800.792182 C724.983908 792.184516 716.646262 783.950263 708.645529 775.402533 C702.982688 769.352484 697.589621 763.050360 692.060080 756.875067 C680.537985 744.007392 669.045798 731.112616 657.464133 718.298651 C647.033591 706.758368 636.459250 695.347968 626.022482 683.813300 C614.191306 670.737738 602.428000 657.600531 590.663230 644.465033 C582.505759 635.357245 574.479636 626.130561 566.244284 617.094062 C554.420554 604.120063 542.404196 591.321662 530.576193 578.351569 C522.132834 569.092902 513.857566 559.680793 505.521750 550.324347 C503.531272 548.090155 501.580466 547.648627 499.318625 550.023322 C496.560691 552.918586 493.768332 555.793586 490.820212 558.490973 C488.724875 560.408087 488.920432 561.781745 490.852561 563.747138 C496.139548 569.125373 501.306662 574.628302 506.352805 580.233710 C508.688620 582.828315 510.451804 585.938178 512.786154 588.534430 C520.238669 596.823676 527.824484 604.993354 535.381980 613.187934 C547.489035 626.315619 559.694480 639.353705 571.693015 652.579779 C576.450095 657.823676 580.729025 663.498847 585.290671 668.923041 C591.225485 675.979926 597.017600 683.173529 603.256247 689.953803 C609.306052 696.528632 616.109274 702.414374 622.100241 709.038031 C629.797751 717.548407 636.885764 726.607245 644.476340 735.218085 C651.827536 743.556952 659.448020 751.660346 667.016257 759.805609 C672.831320 766.063910 678.941916 772.057074 684.582053 778.466620 C697.549948 793.203559 710.247214 808.178412 723.178732 822.947699 C731.780417 832.772162 740.523581 842.475775 749.334006 852.114081 C764.713278 868.938544 780.191428 885.672553 795.635275 902.437934 C796.424948 903.295356 797.326316 904.051337 798.098410 904.923041 C805.652243 913.454657 813.144919 922.041083 820.760398 930.517279 C822.898337 932.896918 825.722922 933.459784 828.439841 931.553046 C831.962668 929.080512 835.284690 926.321723 838.690573 923.682807 C840.915915 921.958564 840.640769 920.483222 838.740866 918.454535 C832.848776 912.162909 827.182028 905.660102 821.427878 899.239203 C815.673728 892.818305 809.862937 886.447211 804.180686 879.963446 C797.985617 872.894355 791.909567 865.720893 785.281638 858.092963 M532.781638 369.592963 C531.192038 369.003302 529.593894 368.435431 528.014060 367.820685 C517.126242 363.584296 507.672019 365.540290 499.368674 373.926337 C492.892356 380.467170 486.074240 386.671149 479.375632 392.990546 C468.138693 403.591498 456.870749 414.159552 445.643332 424.770575 C445.187644 425.201239 444.624777 426.285834 444.777976 426.452094 C445.270896 426.987250 446.049338 427.469916 446.765769 427.551703 C449.658591 427.881903 452.618796 427.792670 455.464865 428.330878 C466.754172 430.465399 476.314475 436.739447 486.440451 441.627326 C495.072898 445.794074 503.150412 451.176703 509.123923 458.558173 C517.675070 469.124640 527.014060 479.161811 533.377951 491.434821 C536.521262 497.497077 536.907614 497.197455 541.229636 492.173224 C550.016867 481.958686 558.815451 471.751899 567.751608 461.668036 C574.702170 453.825080 582.028220 446.309577 588.829123 438.342719 C590.589011 436.281073 592.498313 434.202216 591.653098 430.138129 C589.579856 420.169623 584.834616 411.652106 578.846335 403.950385 C573.893820 397.580756 568.071799 391.551642 561.594870 386.784980 C552.845358 380.345649 543.099875 375.259589 532.781638 369.592963 M327.781577 380.592963 C335.421347 389.232733 343.096091 397.841803 350.689963 406.521613 C356.986716 413.718817 363.070883 421.104804 369.461447 428.216498 C377.446433 437.102484 385.662863 445.780341 393.748313 454.576483 C396.145651 457.184455 398.651145 457.829108 401.267722 455.062812 C403.150778 453.072089 404.550925 450.540900 406.654074 448.861274 C410.019065 446.174018 409.184836 444.093817 406.699484 441.455024 C398.280173 432.515326 389.975730 423.467108 381.640769 414.448066 C373.738242 405.897040 365.911887 397.274665 357.935263 388.793524 C353.733481 384.326056 349.075766 380.278388 344.985007 375.717353 C335.547385 365.194953 326.419638 354.394538 316.981955 343.872138 C312.891135 339.311103 308.157920 335.327460 304.050864 330.779608 C297.643149 323.684088 291.572409 316.285468 285.263266 309.099372 C277.327536 300.060736 269.403891 291.007392 261.279990 282.139045 C248.414572 268.094672 235.384848 254.200873 222.429404 240.238959 C213.962851 231.114753 205.404990 222.072821 197.068198 212.831488 C186.616660 201.246100 176.334494 189.507636 166.010153 177.807990 C161.608725 172.820258 157.340720 167.714118 152.913413 162.749762 C146.603903 155.675177 140.290000 148.600287 133.798056 141.694648 C131.315817 139.054206 122.849692 138.677436 120.663657 140.710944 C118.054587 143.137824 118.850852 148.159003 122.490866 152.305182 C124.096945 154.134589 125.683432 155.981086 127.282004 157.817084 C132.399619 163.694892 137.356772 169.723761 142.693015 175.395941 C146.367087 179.301459 150.715598 182.564948 154.496298 186.379462 C159.685874 191.615363 164.719321 197.015082 169.646262 202.500312 C177.016684 210.706061 184.209677 219.070990 191.538230 227.314765 C193.397788 229.406501 195.610190 231.187201 197.444174 233.298712 C203.279135 240.016791 208.962851 246.866339 214.799521 253.582892 C219.893698 259.445136 225.160910 265.156989 230.266867 271.009284 C234.088645 275.389777 237.736594 279.921698 241.535300 284.322882 C244.395651 287.636786 247.334860 290.884955 250.304343 294.102057 C258.766196 303.269477 267.316916 312.355597 275.720542 321.575995 C279.976157 326.245124 283.920859 331.196540 288.139792 335.900519 C290.564414 338.603827 293.415610 340.928473 295.800253 343.663031 C306.348410 355.758918 316.796958 367.941657 327.781577 380.592963 M368.781577 487.592902 C370.198264 486.176276 371.960349 484.955024 372.911093 483.274726 C373.552451 482.141364 373.695700 479.800605 372.961386 478.952399 C360.607199 464.680060 348.165854 450.480414 335.560446 436.429206 C327.118430 427.018988 318.408774 417.848151 309.774741 408.611335 C307.406272 406.077338 304.682700 403.855963 302.463950 401.204962 C296.694602 394.311774 291.388754 387.015143 285.404807 380.320258 C271.438498 364.694403 257.182639 349.327338 243.044089 333.855414 C232.440146 322.251532 221.846762 310.637946 211.227072 299.048407 C206.919333 294.347235 202.429465 289.807257 198.241721 285.002753 C190.372458 275.974555 182.790122 266.694586 174.856650 257.724311 C162.994528 244.311957 150.870810 231.131171 138.974570 217.748542 C129.803183 207.431220 120.855002 196.915839 111.722739 186.563361 C105.580283 179.600226 99.352805 172.708625 93.004904 165.933539 C91.915610 164.770941 90.068198 163.805487 88.505576 163.697821 C84.136923 163.396735 79.732688 163.539008 75.345542 163.638922 C74.478781 163.658698 73.625510 164.270148 72.765952 164.608649 C73.150046 165.315619 73.382834 166.189643 73.945700 166.699042 C75.856406 168.428229 78.182578 169.777289 79.815573 171.720710 C87.470725 180.831366 94.734458 190.277289 102.542136 199.251776 C112.092856 210.229682 122.010031 220.890448 131.836325 231.626471 C140.147971 240.707587 148.591086 249.668402 156.912375 258.740729 C167.200156 269.956916 177.466818 281.193244 187.660727 292.494696 C199.023459 305.091986 210.185935 317.871344 221.637229 330.386969 C231.950705 341.658942 242.642783 352.584479 252.965232 363.848456 C259.761496 371.264655 266.120444 379.079962 272.830710 386.577338 C276.029379 390.151252 279.818869 393.204108 282.942954 396.835211 C291.786032 407.113471 300.290183 417.684516 309.184775 427.916816 C316.238364 436.031195 323.735007 443.758612 330.920737 451.760443 C341.699912 463.763800 352.395163 475.842841 363.084799 487.926154 C364.853720 489.925727 366.470847 490.434027 368.781577 487.592902 M563.781638 709.592963 C564.844992 710.989691 565.797385 712.490058 566.990500 713.765448 C572.958029 720.145453 579.071677 726.390570 584.961447 732.840522 C587.874655 736.030829 590.305564 739.657050 593.151267 742.914252 C597.437522 747.820258 601.979880 752.502631 606.259421 757.414252 C611.138449 763.013861 615.718649 768.877265 620.677756 774.402411 C623.986960 778.089057 627.937766 781.200751 631.238669 784.893988 C638.040793 792.504462 644.398215 800.518500 651.318381 808.015937 C657.715720 814.946845 664.811301 821.232489 671.227194 828.147528 C677.727439 835.153632 683.714133 842.633124 690.035910 849.808417 C694.048606 854.362616 698.334860 858.675116 702.371848 863.208686 C715.367209 877.802314 728.356345 892.402045 741.235617 907.097724 C746.114157 912.664374 751.132834 918.193671 755.298361 924.280097 C762.084494 934.195136 772.217917 937.855902 783.039694 940.499579 C784.200705 940.783271 785.677390 939.775702 787.007590 939.367011 C786.150168 938.660224 785.267844 937.981147 784.442771 937.238349 C783.700705 936.570502 782.996237 935.856269 782.318259 935.122504 C770.296530 922.110541 758.219870 909.148017 746.323020 896.022528 C744.261130 893.747748 743.351706 890.411200 741.246482 888.195380 C734.287497 880.871405 726.724021 874.108710 719.945578 866.629462 C708.276511 853.754218 697.029074 840.496894 685.594260 827.409247 C678.536399 819.331244 671.568747 811.170966 664.357443 803.231879 C658.056540 796.295233 651.322775 789.750922 645.042868 782.796088 C631.278586 767.552314 617.679099 752.159735 604.015647 736.824897 C601.415793 733.906928 598.807761 730.995551 596.243552 728.046454 C589.750388 720.578803 583.339255 713.038886 576.771506 705.637641 C574.141013 702.673529 571.014426 700.147040 568.410788 697.162177 C560.429587 688.012397 552.759543 678.586982 544.648581 669.556098 C537.628562 661.739936 530.038230 654.438178 522.944602 646.685370 C515.592673 638.650336 508.530905 630.350043 501.354880 622.154486 C500.619284 621.314521 499.996726 620.376166 499.277243 619.520941 C494.909201 614.328925 490.707175 608.981879 486.103293 604.007209 C481.053488 598.550666 474.911887 593.956061 470.627463 587.993232 C467.898703 584.195563 466.093772 585.889350 464.268698 587.291327 C461.526389 589.397589 458.202658 592.238288 461.396872 596.071662 C467.141867 602.966193 472.943991 609.902655 479.455100 616.044623 C486.411399 622.606635 490.001486 632.279853 499.015280 636.835395 C499.156516 636.906806 499.261252 637.058661 499.370627 637.183783 C510.917014 650.394843 522.385031 663.675482 534.031516 676.797675 C543.672263 687.659857 553.523581 698.334906 563.781638 709.592963 M52.281577 114.092963 C53.340170 116.818244 54.275229 119.599494 55.481467 122.257758 C58.634909 129.207038 62.614096 135.761908 62.455954 143.921088 C62.393332 147.149359 63.893393 150.606940 65.378440 153.616400 C67.301840 157.514472 71.232993 155.087897 74.238425 155.456244 C75.150168 155.568000 76.765952 154.264228 77.199057 153.243720 C79.837607 147.026191 82.728476 145.613959 89.466635 147.145209 C90.571738 147.396430 92.974631 146.416693 93.127890 145.668036 C94.369834 139.602118 98.393637 138.397284 103.797812 138.458991 C105.610190 138.479682 108.735678 137.268134 109.043295 136.056708 C110.564353 130.066962 114.169577 129.564582 118.853476 131.645758 C122.891440 133.440009 124.329123 132.614264 124.453879 128.047248 C124.510764 125.965583 126.770102 122.053778 127.439353 122.177130 C132.948996 123.193244 135.106772 117.828620 139.246298 116.460883 C139.896445 116.246039 140.614585 113.664618 140.194968 113.218695 C138.099692 110.992194 135.742209 108.969611 133.281882 107.137091 C123.244712 99.661322 112.955283 92.512915 103.099753 84.807746 C90.456320 74.922889 78.223715 64.513129 65.608725 54.590705 C63.286276 52.763922 59.840415 49.246772 56.950949 52.697180 C52.145590 58.435401 45.609030 60.659613 39.153098 63.004554 C36.269003 64.052130 35.659323 65.633338 36.356955 67.747016 C39.156516 76.229132 42.250083 84.614173 45.224997 93.038581 C47.584738 99.720710 49.929953 106.407965 52.281577 114.092963 M627.781638 362.592963 C629.615012 365.326361 631.337058 368.143683 633.315573 370.767646 C635.009543 373.014472 636.650900 376.128363 640.276877 374.036322 C644.920798 371.356757 645.923728 365.275397 642.893332 360.654670 C641.198630 358.070563 640.188864 354.961554 638.213034 352.651252 C631.242453 344.500617 624.740256 335.693549 616.599265 328.881781 C610.258689 323.576545 602.056784 319.911322 594.095603 317.315619 C587.917868 315.301459 580.786521 315.400275 574.175315 315.882025 C571.018576 316.112006 568.028464 319.331061 565.087790 321.375739 C564.258933 321.952033 563.871482 323.163214 563.281638 324.083197 C564.401877 324.586432 565.481345 325.369757 566.650046 325.539740 C569.982810 326.024482 573.459006 325.842658 576.686545 326.671576 C586.193015 329.113105 595.390524 332.822211 602.932150 339.021430 C611.548361 346.104010 619.206931 354.351630 627.781638 362.592963 M693.281638 286.092963 C692.110983 282.922187 691.559470 279.297919 689.639304 276.675971 C685.749655 271.364753 680.506369 266.995612 676.931906 261.513739 C671.096701 252.564765 663.276023 249.246100 653.025046 250.581916 C652.371482 250.667060 651.697165 250.592963 651.032492 250.592963 C644.069235 250.592963 635.834250 255.768317 633.540549 262.024726 C633.169577 263.036933 635.144675 265.952582 635.200461 265.929938 C641.845969 263.234565 648.348532 265.493232 654.738059 266.678656 C667.644431 269.073004 677.519187 276.482795 685.224387 286.825324 C687.858664 290.361029 690.867575 290.714850 693.281638 286.092963 z"
  />
  <path
    class="selected"
    fill="#ffb6c1"
    opacity="1.000000"
    stroke="none"
    d="
M738.531638 150.842963 C735.344016 155.030402 732.414694 158.974005 729.464011 162.901679 C728.555930 164.110602 727.589255 165.275519 726.649191 166.460517 C726.193381 164.820380 724.920066 162.850531 725.425315 161.598151 C727.435691 156.615302 729.164694 151.151129 732.531760 147.159003 C739.852072 138.480048 748.068015 130.550116 756.047141 122.441291 C757.042014 121.430304 758.820212 121.190253 760.235495 120.592963 C760.606223 121.737555 761.655417 123.441107 761.243674 123.940924 C756.707785 129.445746 751.897116 134.722663 747.260398 140.146308 C744.347067 143.554023 741.602072 147.105841 738.531638 150.842963 z"
  />
  <path
    class="selected"
    fill="#ffb6c1"
    opacity="1.000000"
    stroke="none"
    d="
M745.281638 161.592902 C741.406272 167.968268 737.412375 173.770087 733.702780 179.748236 C731.678244 183.010993 730.223532 186.622748 728.321311 189.968756 C727.748923 190.975531 726.535544 191.617804 725.615622 192.427008 C725.430319 191.056281 724.890524 189.623908 725.116355 188.324713 C726.756980 178.889472 732.602683 171.661505 738.111106 164.305304 C742.693869 158.185309 747.438254 152.183478 752.246848 146.239020 C752.833274 145.514167 754.261374 145.470160 755.299338 145.110663 C755.293479 146.333075 755.786276 147.927130 755.198508 148.715888 C752.041037 152.952033 748.614890 156.987860 745.281638 161.592902 z"
  />
  <path
    class="selected"
    fill="#ffb6c1"
    opacity="1.000000"
    stroke="none"
    d="
M705.281638 209.592963 C704.246115 210.390753 702.558615 211.218207 702.292624 210.890876 C701.358298 209.740668 700.144309 208.026862 700.404807 206.823432 C702.278342 198.172736 704.339987 189.487372 710.714499 182.807868 C711.878562 181.588141 714.026267 181.307196 715.719992 180.592963 C715.270163 182.063300 714.895285 183.561652 714.358054 184.999274 C711.354392 193.038642 708.311301 201.063300 705.281638 209.592963 z"
  />
</svg>
