<?xml version="1.0" encoding="utf-8" ?>
<!DOCTYPE svg PUBLIC "-//W3C//DTD SVG 1.1//EN" "http://www.w3.org/Graphics/SVG/1.1/DTD/svg11.dtd">
<svg
  version="1.1"
  id="Contours"
  xmlns="http://www.w3.org/2000/svg"
  xmlns:xlink="http://www.w3.org/1999/xlink"
  x="0px"
  y="0px"
  width="643.991943px"
  height="643.991943px"
  viewBox="0.000000 -0.000012 643.991943 923.249512"
  enable-background="new 0 0 643.991943 643.991943"
  xml:space="preserve"
  fill="none"
  stroke-linecap="round"
  stroke-linejoin="round"
>
  <animate
    attributeName="opacity"
    dur="8s"
    keyTimes="0;0.05625;0.06875;0.125;1"
    values="0;1;1;0;0"
    repeatCount="indefinite"
    begin="1s"
  />
  <!-- <animateTransform -->
  <!--   xmlns="http://www.w3.org/2000/svg" -->
  <!--   attributeName="transform" -->
  <!--   type="rotate" -->
  <!--   begin="0s" -->
  <!--   dur="1s" -->
  <!--   repeatCount="indefinite" -->
  <!--   values="0;5;-5;5;-5;0" -->
  <!--   keyTimes="0;0.2;0.4;0.6;0.8;1" -->
  <!-- /> -->
  <path
    class="selected"
    fill="#ffb6c1"
    opacity="1.000000"
    stroke="none"
    d="
M605.415039 487.202099 C604.081665 494.648755 602.830933 501.612439 601.396973 508.538281 C598.793701 521.111523 595.749756 533.603894 593.527466 546.242200 C591.948120 555.224743 591.539185 564.407300 590.370972 573.470044 C589.604248 579.418286 588.422119 585.313367 587.413574 591.230115 C586.086914 599.011120 584.839355 606.807019 583.394043 614.565991 C581.149170 626.616040 578.626221 638.615796 576.501587 650.686352 C575.476440 656.510693 575.245361 662.470654 574.380127 668.328564 C572.946533 678.032300 571.239380 687.695508 569.745117 697.390820 C568.559326 705.086133 567.558228 712.809888 566.403564 720.510327 C565.323364 727.714551 564.186523 734.910718 563.005615 742.099194 C561.854126 749.108960 560.589111 756.099927 559.421265 763.107007 C557.653687 773.712475 555.918091 784.323193 554.186768 794.934643 C553.243774 800.714917 552.318970 806.498364 551.419067 812.285473 C549.738525 823.091260 548.090698 833.902173 546.411377 844.708203 C545.487671 850.652905 543.813965 856.587109 543.775635 862.534497 C543.733398 869.070630 539.408203 870.924634 534.936401 873.206372 C527.781616 876.857129 520.168335 879.858349 513.641724 884.413525 C508.282471 888.154126 502.992554 891.464062 496.725220 893.202710 C488.504883 895.483472 480.279419 897.745312 472.067383 900.055859 C456.547485 904.422803 441.159302 909.346142 425.476318 913.012036 C415.433838 915.359448 404.932373 915.677930 394.691040 917.259350 C385.673950 918.651929 376.786621 921.007031 367.739746 922.047558 C360.940186 922.829541 353.975708 922.077954 347.089722 922.232251 C337.559814 922.445752 328.035278 922.886426 318.507080 923.190137 C316.010010 923.269726 313.508179 923.202099 311.008545 923.202099 C307.285278 923.202099 303.556641 923.326977 299.839844 923.171460 C294.806885 922.960766 289.773071 922.641186 284.757690 922.174512 C278.857056 921.625439 272.977661 920.852124 267.085815 920.206006 C257.836243 919.191479 248.597656 918.044385 239.329224 917.244946 C229.399414 916.388257 219.345215 916.506421 209.518982 915.037305 C197.766663 913.280224 186.040100 910.865307 174.587585 907.702344 C157.605103 903.012036 140.784485 897.676221 124.094238 892.026684 C119.640442 890.519238 115.939514 886.825879 111.843750 884.213086 C106.579163 880.854565 101.224915 877.634839 95.999695 874.217114 C94.658020 873.339673 93.217041 872.148389 92.564636 870.753613 C84.835205 854.228345 79.907104 836.846875 76.304688 818.977246 C73.753784 806.323804 70.081238 793.899731 67.081360 781.332226 C64.722961 771.451611 62.605896 761.513135 60.420654 751.591748 C57.897095 740.134228 55.294922 728.691723 52.962402 717.195019 C51.549194 710.229443 50.665222 703.158398 49.392212 696.162182 C48.071045 688.901074 46.483276 681.688306 45.170288 674.425732 C44.127991 668.660718 43.469482 662.825146 42.380249 657.070141 C40.835632 648.908642 39.071655 640.788403 37.364868 632.658154 C35.402405 623.310376 33.471375 613.955090 31.388733 604.633862 C30.099243 598.862561 28.367920 593.187024 27.169739 587.399121 C25.732056 580.453808 24.646729 573.435498 23.415955 566.447522 C21.938538 558.059765 20.459717 549.672314 18.997498 541.281933 C17.128235 530.555615 15.250061 519.830823 13.422546 509.097363 C11.830872 499.749219 10.412598 490.370434 8.720703 481.040906 C6.729553 470.061902 4.457825 459.134106 2.447144 448.158520 C1.588257 443.470593 1.060608 438.720898 0.426819 433.993359 C0.213928 432.405774 0.138367 430.799695 0.000000 429.202099 C2.031982 429.928967 4.159180 430.472546 6.056213 431.458935 C7.030212 431.965283 7.593079 433.262341 8.341675 434.202099 C8.986755 433.081433 10.007080 432.026074 10.215149 430.829480 C11.443542 423.763440 17.341736 419.767529 20.874207 414.231274 C28.935486 401.597546 40.009338 391.892529 51.527161 382.618176 C52.116516 382.143628 52.902588 381.920727 53.572144 381.537060 C55.190308 380.609997 56.793579 379.656994 58.402832 378.714306 C56.424805 377.876904 54.441284 377.052319 52.470642 376.197949 C50.916321 375.524121 49.239197 375.019299 47.854980 374.085827 C39.253235 368.284375 34.670410 359.427563 30.226624 350.501538 C24.600098 339.199719 19.993896 327.540661 18.428345 314.898938 C17.039062 303.680005 18.149109 292.571484 20.558594 281.613171 C23.171753 269.728467 28.510742 259.004468 34.177979 248.242200 C39.700806 237.754162 46.942627 229.413403 56.431091 222.646985 C65.203552 216.391247 73.311096 208.976697 82.685486 203.855420 C91.926819 198.806836 102.303833 195.741162 112.358948 192.324536 C116.497498 190.918347 121.115967 190.965161 125.469177 190.111523 C126.236938 189.961011 127.447449 188.480664 127.313843 187.859753 C125.287964 178.447583 128.597290 169.961072 131.689209 161.440381 C136.520569 148.126050 145.898865 137.864026 155.961304 128.666821 C161.824707 123.307568 169.140076 118.979504 177.534851 117.028210 C183.772644 115.578320 189.567261 112.316723 195.695557 110.270581 C200.696838 108.600659 205.834229 107.140393 211.026062 106.278271 C224.993103 103.958935 238.582520 106.758923 251.992737 110.312207 C255.045532 111.121106 258.143005 112.864514 260.476013 114.993115 C263.083374 117.372143 264.308716 115.380505 265.035522 113.953076 C271.176025 101.892193 281.627563 96.597149 294.162354 92.922162 C304.763428 89.814068 315.266602 87.937756 326.166870 88.256116 C341.728027 88.710614 357.357422 90.813946 372.811646 89.855633 C389.482544 88.821850 406.646362 88.895672 422.481689 82.131482 C430.698364 78.621686 438.767456 74.680279 446.597534 70.377759 C453.297729 66.696087 460.119141 62.867627 465.864258 57.917157 C471.699585 52.889050 477.058350 46.908948 481.233032 40.446118 C487.467407 30.794781 490.615234 19.771039 491.396362 8.209820 C491.630005 4.754742 492.291992 1.360730 495.983154 0.300641 C499.655640 -0.754077 503.028198 1.067822 504.718628 4.179364 C507.651733 9.577832 509.872314 15.362103 512.418213 20.972607 C517.345337 31.830762 515.699707 43.430920 516.571899 54.800091 C518.010864 73.558728 513.486572 90.812054 505.638794 107.512951 C505.245483 108.349743 504.825684 110.035657 505.044800 110.152600 C506.111206 110.721692 507.466187 111.328747 508.584106 111.136670 C525.820679 108.175000 542.578247 110.410535 557.249023 119.518567 C567.090820 125.628552 577.151733 133.017041 581.237671 144.882886 C582.967529 149.906445 583.286499 155.602978 583.268921 160.990430 C583.249878 166.772717 582.715942 172.717785 581.252197 178.288525 C579.480835 185.030285 578.099854 192.321301 571.492065 196.637341 C571.218994 196.815686 570.966431 197.068982 570.787842 197.342053 C568.986938 200.092541 567.203369 202.854443 565.415039 205.613171 C568.344482 206.476147 571.220947 207.668103 574.211792 208.148694 C593.412231 211.234265 609.704834 220.375561 624.803833 232.083996 C626.057129 233.055859 627.474731 233.846448 628.607056 234.938183 C633.013916 239.187207 635.757568 243.955578 638.052246 250.033032 C640.689697 257.018017 641.469238 264.232190 643.677856 271.161877 C644.469604 273.646069 643.528076 276.673962 643.419556 279.455456 C643.073975 288.315625 643.276001 297.240430 642.213013 306.012707 C641.596802 311.097485 638.980103 315.944775 637.226196 320.885693 C631.787598 336.206921 623.598877 350.046704 614.659912 363.543652 C605.338013 377.618664 593.978394 389.643445 580.465332 399.711621 C578.746460 400.992383 577.420532 402.788830 575.833862 404.261792 C573.424683 406.498303 573.672485 408.913464 576.213135 410.373791 C582.530884 414.005261 585.861694 420.045056 589.359985 425.910596 C592.605225 431.351636 595.642700 436.952160 598.271240 442.710889 C599.628662 445.684949 600.284668 445.423840 602.637817 443.667798 C605.666260 441.407727 609.043579 437.463086 612.926636 439.812207 C614.402344 440.704907 613.902832 445.924145 613.314697 448.981152 C610.887817 461.594494 608.081787 474.134900 605.415039 487.202099 M631.415039 302.702099 C635.280029 291.720837 636.483398 280.566052 633.402466 269.189160 C630.358765 257.949719 628.779419 246.633618 617.822998 238.619641 C603.138794 227.879040 588.811646 217.763989 570.433350 213.811169 C562.152588 212.030285 554.947998 208.723096 547.494507 215.104382 C546.779907 215.716076 544.896362 214.962414 543.555420 214.842541 C544.286743 213.684338 544.800415 212.278027 545.787842 211.411877 C549.540527 208.120740 553.480225 205.044140 557.288086 201.814404 C566.738159 193.798840 573.489136 183.965222 574.225952 171.403943 C574.735840 162.710522 576.914673 153.588818 571.969360 145.257580 C565.359009 134.121411 555.174805 127.215100 543.656372 122.287182 C531.100586 116.915478 517.407593 117.819958 504.171875 116.266980 C503.400024 116.176404 502.394531 116.872998 501.706665 117.451611 C492.920532 124.842053 484.296875 132.431164 475.382690 139.662610 C464.715942 148.316052 452.143433 153.370068 439.125732 157.063733 C431.728882 159.162610 423.946411 159.930249 416.309570 161.117200 C415.444702 161.251538 414.398071 160.215832 413.435669 159.722790 C414.045288 158.882580 414.482788 157.573254 415.291626 157.276440 C421.662964 154.939099 428.087524 152.742322 434.529175 150.602551 C448.104248 146.093213 461.095093 140.709790 473.060669 132.426831 C483.729004 125.041821 492.662964 116.483899 498.008179 104.855176 C501.660400 96.909558 504.161255 88.330182 506.262817 79.808758 C508.006226 72.739911 508.774902 65.367200 509.287720 58.080762 C509.626587 53.266308 508.517456 48.368420 508.470459 43.503888 C508.403564 36.583356 508.800293 29.678143 505.458496 23.225293 C504.191162 20.778058 503.457397 18.058911 502.398682 15.497540 C501.792358 14.030591 501.021851 12.631665 500.325195 11.202130 C499.355225 12.886792 497.473389 14.621655 497.562866 16.247998 C498.143799 26.805066 492.348267 35.113263 488.074341 43.877820 C485.621948 48.906720 482.943970 54.458935 478.807617 57.900769 C470.348022 64.939892 462.254883 72.399884 452.065186 77.538159 C441.817261 82.705853 431.739136 87.730816 420.864014 91.642499 C408.157715 96.212811 394.986694 96.945874 382.071899 97.808575 C363.814209 99.028119 345.376709 97.430218 327.013916 97.242474 C316.413208 97.134106 305.932495 98.186200 295.657104 101.149823 C286.835693 103.694104 279.222900 108.179639 272.704346 114.497571 C269.496460 117.606640 269.447510 121.341260 271.803101 123.138623 C278.029907 127.889416 284.658081 132.268262 290.171021 137.755139 C295.216064 142.776440 300.744141 146.257764 307.431519 148.195080 C308.032593 148.369214 308.826294 148.251538 309.244019 148.606579 C310.073486 149.311658 310.702881 150.251904 311.415039 151.094983 C310.519775 151.464001 309.468872 152.340100 308.754395 152.120618 C303.742188 150.580762 298.208740 149.722363 293.947266 146.948193 C282.040527 139.196972 270.767212 130.480542 259.045654 122.433728 C253.144409 118.382580 246.216370 117.388379 239.231567 115.813611 C225.119751 112.632031 211.607910 113.708386 198.028625 117.194653 C192.074402 118.723279 186.287476 120.994946 180.544067 123.235486 C163.974792 129.699231 148.653503 137.727002 142.137207 155.992016 C138.758423 165.462781 134.399048 174.684460 135.346375 185.213147 C135.625854 188.319531 136.439148 190.232922 139.884155 190.215466 C144.260620 190.193310 148.740662 189.673230 152.995056 190.411328 C166.455444 192.746777 179.774170 195.921826 193.255798 198.104443 C207.205811 200.362866 219.268982 206.401501 230.358337 214.759106 C231.242676 215.425488 231.434509 217.010754 231.948120 218.169018 C230.757507 218.513379 229.401794 219.408032 228.404175 219.108838 C223.532959 217.648144 218.500793 216.376965 213.997253 214.104138 C201.868652 207.983227 188.558350 206.786816 175.576416 204.279919 C168.081421 202.832593 160.201294 203.001294 152.911438 200.956433 C140.888550 197.583813 128.639282 198.465893 117.183472 200.731152 C105.805664 202.981030 94.786316 208.661938 84.520508 214.452710 C74.652771 220.019055 65.725769 227.369824 56.811401 234.471326 C50.002197 239.895764 46.252808 247.783398 41.722290 255.124646 C31.872498 271.085095 27.433472 288.609082 26.807434 306.829480 C26.524109 315.075513 29.831116 323.695508 32.682678 331.729382 C35.659363 340.115674 39.657227 348.214368 43.937073 356.040417 C47.611084 362.758801 52.726135 367.882641 60.724182 370.458813 C68.066589 372.823743 74.228333 368.540478 81.024719 369.031872 C81.447083 369.062390 81.937317 368.154370 82.395935 367.682995 C81.767090 367.189343 81.190735 366.601880 80.501343 366.216565 C73.331787 362.208569 66.111633 358.290173 58.980286 354.216015 C56.662720 352.892041 54.435120 351.332776 52.426880 349.582348 C51.583008 348.846814 51.414673 347.336194 50.939209 346.177991 C52.312927 346.234509 53.898499 345.866894 55.020630 346.427197 C58.350647 348.090161 61.350830 350.454724 64.744446 351.941357 C75.179749 356.512707 85.521118 361.460278 96.308105 365.022900 C107.802002 368.819104 119.713440 371.415784 131.533081 374.143933 C144.201904 377.068127 156.912964 379.906628 169.723694 382.089245 C180.744934 383.966931 191.926941 384.916882 203.047729 386.190259 C218.018066 387.904431 232.994019 389.571667 247.975403 391.186291 C255.022339 391.945752 262.098572 392.436902 269.142212 393.222790 C283.458984 394.820264 297.746948 396.690564 312.076782 398.154370 C324.138428 399.386426 336.231567 400.372632 348.330933 401.156445 C361.708008 402.023022 375.109619 403.112317 388.497803 403.078992 C414.393188 403.014538 440.290405 404.021741 466.192261 401.457654 C478.272949 400.261731 490.095337 398.574780 501.749146 395.367993 C510.426270 392.980176 519.174805 390.820141 527.758179 388.132886 C535.252441 385.786572 542.774658 383.310681 549.890503 380.036084 C557.052368 376.740185 563.688110 372.314343 570.651978 368.564465 C571.999146 367.839001 573.795654 367.947888 575.384888 367.671887 C574.697876 369.045605 574.369263 370.924878 573.263916 371.708142 C567.636719 375.695508 561.822632 379.420972 556.044312 383.192517 C553.299683 384.983899 550.430054 386.591870 547.773071 388.500073 C547.388550 388.776074 547.582764 390.904065 548.010986 391.104870 C552.609131 393.260998 557.365601 395.080212 561.958740 397.246106 C564.886108 398.626538 567.375000 398.453869 569.792480 396.332593 C575.022827 391.742871 580.486816 387.395276 585.460571 382.544140 C591.333130 376.816357 597.229126 371.008862 602.297119 364.590344 C607.021973 358.606396 610.393677 351.574048 614.858276 345.360364 C623.873535 332.813306 629.462524 319.005871 631.415039 302.702099 M283.915039 405.202160 C281.721558 404.868786 279.537720 404.435498 277.332764 404.219128 C266.754150 403.181347 256.160095 402.293042 245.589844 401.177685 C233.967957 399.951428 222.369202 398.506665 210.754211 397.213330 C204.205994 396.484265 197.608521 396.115185 191.098755 395.144116 C181.425659 393.701306 171.793579 391.960095 162.175415 390.177136 C151.986633 388.288342 141.708801 386.685254 131.697205 384.083020 C118.376953 380.620801 105.295166 376.247754 92.055664 372.459363 C90.560791 372.031628 88.480103 372.418347 87.059204 373.165661 C77.743286 378.064526 68.128479 382.559216 59.411499 388.383740 C51.670532 393.556103 44.030945 399.486157 38.058105 406.532544 C31.784058 413.934155 27.612122 423.102856 22.379456 431.409741 C20.450562 434.471936 18.029358 437.221997 16.048523 440.255383 C15.699463 440.789929 16.344788 442.786938 16.656616 442.817334 C21.056030 443.245740 25.374817 446.270581 29.897339 442.377881 C34.188965 438.684033 39.206238 435.847058 43.679932 432.346387 C46.893555 429.831860 48.913147 431.875134 50.319641 434.035657 C52.669189 437.644910 53.795959 442.179211 56.542114 445.374768 C62.519775 452.330701 69.009155 458.001782 77.264709 454.045300 C81.460022 452.034680 84.822876 448.322217 88.655640 445.506360 C90.792053 443.936780 93.008362 441.911328 95.413940 441.536267 C96.452881 441.374280 98.645508 444.680676 99.298218 446.734326 C101.032349 452.190381 103.531006 456.786755 108.112610 460.561169 C116.851196 467.760205 123.104492 468.115491 132.138245 460.975964 C135.404724 458.394421 138.654053 455.791089 141.915588 453.203198 C144.711853 450.984509 148.831787 452.077649 150.091553 455.382764 C151.517822 459.124402 153.082153 462.823559 154.295227 466.633862 C155.963562 471.874097 159.870300 474.409375 164.678711 476.230664 C173.287964 479.491223 179.573059 475.205823 185.966980 470.347058 C187.783997 468.966260 191.125183 467.823865 192.862915 468.599255 C194.628418 469.387158 196.329834 472.736645 196.210815 474.860730 C195.897156 480.457776 198.998657 483.321301 203.217834 485.418469 C207.759827 487.676221 212.467346 489.643017 217.229370 491.391858 C218.822021 491.976758 220.931824 491.927014 222.586609 491.433728 C229.451599 489.387768 235.076111 485.682873 238.467468 479.017834 C239.872559 476.256543 242.363770 474.083874 245.609192 475.364880 C247.225647 476.002881 248.106445 478.403088 249.428345 479.911145 C251.887878 482.717236 254.099182 485.870556 256.991821 488.143933 C266.988281 496.000561 283.115967 487.600354 288.480469 480.329236 C290.141724 478.077405 292.371948 476.052319 294.760620 474.623486 C295.742310 474.036206 299.235596 475.562146 299.213135 475.681409 C298.144531 481.374402 302.907959 483.357129 306.194946 485.160901 C311.091553 487.847851 317.045044 491.255688 322.023438 490.565808 C330.902710 489.335217 338.809204 484.557873 343.942017 476.291882 C346.402466 472.329297 352.817505 471.863476 354.343018 475.302258 C357.287842 481.940625 362.001831 485.281750 369.256592 486.782910 C379.580811 488.919263 391.588745 485.051953 397.451782 476.459851 C399.523315 473.424084 401.872314 470.543713 404.356689 467.832471 C407.334839 464.582287 410.074951 464.417370 413.742310 467.773144 C418.492798 472.120129 421.279541 478.516247 428.244995 480.690747 C435.595459 482.985486 442.434204 483.574292 448.225952 477.766919 C452.068481 473.913891 455.476562 469.589856 458.785400 465.252637 C462.121826 460.879407 464.111816 460.975598 467.483765 465.667676 C469.215576 468.077527 471.213989 470.663403 473.708862 472.092663 C483.910156 477.936658 494.956543 472.316968 500.347656 460.628308 C503.143677 454.566296 506.491089 453.516003 510.805908 458.093030 C518.953613 466.736035 522.281982 466.741162 532.841919 460.495434 C538.937500 456.890271 542.305420 451.607922 545.360718 445.754285 C548.186890 440.339612 552.648682 437.224255 556.695190 443.130871 C559.820923 447.693371 563.641479 449.578137 569.087769 450.702466 C576.333862 452.198254 582.926392 451.183240 589.630371 449.104626 C590.064575 448.970105 590.531860 447.153943 590.194824 446.598523 C587.032959 441.386670 583.409424 436.438244 580.480591 431.105481 C575.706421 422.412610 568.994141 415.429211 561.644897 409.053113 C556.239624 404.363537 550.391113 400.167859 544.588745 395.961194 C542.206909 394.234509 539.830200 392.697949 536.309692 394.594800 C532.421143 396.690014 527.997192 397.849194 523.732056 399.177319 C509.065308 403.744397 494.469116 408.399670 478.903320 409.310620 C464.929932 410.128369 451.025879 412.075329 437.060669 413.113843 C430.210327 413.623242 423.288818 413.305188 416.402710 413.180798 C401.820312 412.917431 387.240601 412.507947 372.658569 412.217480 C367.771606 412.120129 362.854614 412.530591 357.997070 412.140332 C343.540039 410.979138 329.103027 409.566235 314.663818 408.191479 C304.742676 407.246960 294.830933 406.202099 283.915039 405.202160 M298.415039 547.702099 C298.415039 556.756543 298.415039 565.810925 298.415039 574.865368 C298.415039 586.142102 298.343018 597.419507 298.460938 608.695019 C298.494263 611.892224 299.408203 615.088940 299.355713 618.276684 C299.178101 629.084668 298.499634 639.888257 298.488037 650.694043 C298.477295 660.608960 299.240112 670.522900 299.347900 680.440625 C299.401367 685.353589 298.213989 690.308789 298.529053 695.184033 C299.139160 704.624707 300.799805 714.001782 301.306030 723.443799 C301.805176 732.751538 301.287354 742.109204 301.447388 751.440869 C301.644897 762.967602 302.113647 774.489331 302.398315 786.014722 C302.502441 790.234326 302.307129 794.462597 302.457275 798.679516 C302.541382 801.042798 303.329346 803.394116 303.302124 805.745068 C303.266846 808.781811 302.348511 811.830273 302.484375 814.843213 C302.975098 825.737500 304.099731 836.612500 304.308594 847.507641 C304.488770 856.913281 303.726318 866.335889 303.426025 875.752514 C303.308105 879.451489 303.368652 883.156323 303.249634 886.855298 C303.006714 894.403515 302.622070 901.948559 302.515137 909.498120 C302.502441 910.389477 303.876709 912.093335 304.584717 912.080884 C312.837280 911.936719 321.093872 911.652905 329.324585 911.061719 C330.424561 910.982739 332.212891 909.058667 332.288940 907.897534 C333.154297 894.691723 333.750732 881.468091 334.409668 868.248852 C334.451172 867.417920 334.357056 866.578442 334.423950 865.750806 C335.075806 857.695386 335.975586 849.652295 336.346680 841.584424 C336.673218 834.487866 336.154785 827.352246 336.488525 820.256299 C336.818604 813.238476 338.076904 806.261426 338.346558 799.244092 C338.906616 784.672558 339.116211 770.086987 339.406616 755.505810 C339.775513 736.984692 340.038330 718.461499 340.430786 699.941113 C340.679688 688.191235 340.927856 676.437695 341.464233 664.698926 C341.886108 655.467480 342.881714 646.263135 343.384277 637.033887 C344.167236 622.655102 344.797852 608.267285 345.358154 593.878003 C345.436401 591.866162 344.366577 589.802807 344.480713 587.800488 C344.997437 578.738171 345.974243 569.698559 346.346924 560.632702 C346.673096 552.701550 346.536621 544.743786 346.372681 536.802563 C346.261841 531.438061 345.597656 526.085156 345.481323 520.720471 C345.426880 518.201306 346.312378 515.671887 346.369263 513.138074 C346.509033 506.919751 346.439941 500.695996 346.391724 494.474866 C346.383301 493.382702 346.068970 492.292981 345.895996 491.202099 C344.877930 491.559826 343.786621 491.784558 342.854248 492.297864 C338.235840 494.839795 333.871460 498.021374 328.995850 499.857190 C325.566040 501.148572 321.238159 501.580823 317.705566 500.740063 C311.287109 499.212536 305.053345 496.655896 300.737305 491.069836 C300.218994 490.399060 299.349243 489.999829 298.642334 489.474743 C298.233154 490.471509 297.442383 491.482251 297.478271 492.462781 C297.680786 497.994092 298.093506 503.517468 298.411865 509.044812 C298.759155 515.070386 299.351807 521.097729 299.341797 527.123547 C299.331055 533.650220 298.748291 540.175976 298.415039 547.702099 M516.415039 768.702099 C517.415039 757.785962 518.515259 746.877637 519.385620 735.951245 C520.190186 725.851514 520.597534 715.719189 521.459473 705.625073 C522.250854 696.358105 523.458740 687.127392 524.404785 677.872632 C525.778564 664.433789 527.100830 650.989575 528.409668 637.544263 C529.766724 623.603711 531.057007 609.656628 532.423462 595.717053 C533.379639 585.963757 534.283325 576.202527 535.447510 566.473157 C536.981689 553.652173 538.873901 540.873791 540.375122 528.049328 C541.572266 517.823559 541.757202 507.437390 543.582886 497.337781 C545.826172 484.928662 544.452881 471.887097 549.966431 460.030469 C550.257812 459.403943 549.359253 458.224011 549.014648 457.301648 C548.210205 457.706433 546.797729 457.992444 546.692017 458.533764 C545.026978 467.053479 538.423706 470.480237 531.311523 472.623303 C524.140137 474.784375 516.682129 476.544812 509.704956 471.125195 C506.672363 468.769604 505.696289 471.885449 505.488281 473.972119 C504.017212 488.734265 502.734863 503.515332 501.423096 518.293164 C501.036499 522.648816 500.886230 527.028943 500.389648 531.370679 C498.791260 545.349866 497.053101 559.312939 495.427734 573.289136 C494.685791 579.668713 494.281372 586.092785 493.373291 592.446545 C491.512451 605.466687 488.857178 618.397900 487.568237 631.468335 C486.216553 645.176953 486.354492 659.026318 485.307495 672.773633 C484.727661 680.385937 482.571045 687.709546 483.132935 695.636670 C483.725098 703.992139 482.004272 712.500806 481.434326 720.952099 C480.689087 732.000073 479.998291 743.053296 479.440918 754.112134 C478.980713 763.245312 478.802734 772.392529 478.384399 781.528393 C478.245361 784.564770 477.434204 787.589306 477.477295 790.611523 C477.582520 798.015088 478.359009 805.421704 478.199463 812.812817 C478.050171 819.726880 476.892944 826.612622 476.448242 833.528271 C475.662720 845.740185 475.192627 857.972851 474.357788 870.180981 C474.044434 874.760693 473.023804 879.288647 472.435303 883.854199 C472.040649 886.916333 474.031128 887.632886 476.432861 887.160229 C482.569702 885.952466 488.786743 884.926221 494.738281 883.076245 C499.351440 881.642285 504.266968 879.360547 505.140259 873.862866 C506.866333 862.996411 508.070190 852.045239 509.392334 841.117383 C509.940918 836.582348 510.243896 832.017529 510.650024 827.465527 C510.913086 824.515698 511.190552 821.566601 511.408447 818.613354 C511.766724 813.754956 511.924438 808.876294 512.446533 804.036450 C513.682007 792.582226 515.081665 781.145703 516.415039 768.702099 M436.415039 649.702099 C437.081665 641.145825 437.718262 632.587109 438.423950 624.034009 C439.047729 616.474805 439.704102 608.917859 440.424561 601.367383 C441.723755 587.752637 443.030151 574.138135 444.433350 560.533826 C445.359009 551.558606 446.280640 542.576550 447.527710 533.642712 C448.971680 523.298169 450.708496 512.992749 452.443115 502.691296 C453.223511 498.056225 454.378662 493.484814 455.192749 488.854321 C455.359375 487.906689 454.762451 486.824719 454.517578 485.804700 C453.477295 486.109875 452.059814 486.087048 451.460815 486.775891 C448.586548 490.081677 445.083130 491.508862 440.754517 491.222912 C438.872559 491.098706 436.948853 490.995679 435.090210 491.237622 C426.632324 492.338757 417.494019 487.194714 413.989990 479.318738 C413.491089 478.197278 412.604980 477.247998 411.898071 476.219067 C411.403687 477.513989 410.561890 478.785657 410.473389 480.107739 C410.014648 486.959851 409.771851 493.826062 409.409790 500.685071 C408.761475 512.964490 408.178467 525.248669 407.377686 537.518323 C406.916504 544.587475 405.957397 551.623120 405.444214 558.690014 C404.666260 569.403515 404.192627 580.139783 403.356934 590.848218 C403.051147 594.766064 401.711182 598.612012 401.499023 602.526379 C401.151367 608.940381 401.688477 615.409253 401.215454 621.807812 C400.614624 629.934033 399.223022 637.999219 398.479126 646.118725 C398.095947 650.300488 398.617554 654.561474 398.297241 658.753735 C397.908691 663.837353 396.804688 668.868970 396.466309 673.953442 C395.642334 686.330884 395.092041 698.726636 394.411865 711.113843 C393.759155 723.002637 393.121216 734.892529 392.403076 746.777417 C391.795166 756.836011 391.162598 766.894482 390.396973 776.942090 C389.130493 793.558179 387.471313 810.149121 386.503052 826.781323 C385.733154 840.005566 385.801270 853.277173 385.392944 866.524487 C385.186401 873.222241 384.653687 879.910107 384.446045 886.607861 C384.289429 891.659131 384.432129 896.719189 384.396851 901.775097 C384.391479 902.553174 384.341064 903.439892 383.976685 904.088208 C382.279541 907.108472 383.985718 907.500195 386.362549 907.182812 C394.717896 906.066723 403.042114 904.677319 411.419800 903.783520 C415.942383 903.301098 416.589355 901.001660 416.525513 897.035840 C416.431152 891.182080 416.907349 885.300000 417.450439 879.458813 C418.670654 866.336743 420.242432 853.245923 421.354614 840.115552 C422.017944 832.283154 422.107666 824.401074 422.400146 816.539136 C422.495117 813.986035 422.215942 811.408276 422.448242 808.872998 C423.711792 795.088452 425.111450 781.316479 426.398560 767.533887 C426.836060 762.849316 427.004883 758.139966 427.429321 753.453931 C428.723267 739.172192 430.170654 724.904004 431.375732 710.615185 C431.938599 703.940625 431.059814 696.979931 432.628418 690.589184 C435.865601 677.399365 435.256104 663.997876 436.415039 649.702099 M241.415039 712.702099 C241.081726 684.851269 240.572693 657.001050 240.483948 629.149365 C240.434265 613.571484 241.163635 597.992566 241.386475 582.411877 C241.536560 571.918408 241.497253 561.420117 241.369141 550.926037 C241.326050 547.395459 240.533508 543.875806 240.460022 540.343396 C240.309875 533.125806 240.399719 525.902783 240.420837 518.682141 C240.433594 514.311658 240.276855 509.923962 240.609131 505.575635 C240.947510 501.147229 241.831482 496.762219 242.373413 492.345593 C242.456787 491.665967 241.986267 490.918286 241.771851 490.202099 C241.099182 490.589123 240.347412 490.884839 239.771301 491.383435 C238.766113 492.253369 237.902649 493.284741 236.921143 494.184521 C230.267700 500.283826 222.848328 502.656506 213.724182 500.327527 C205.893311 498.328625 199.372925 494.372937 193.191101 489.506421 C192.696289 489.116833 192.025513 488.950635 191.436523 488.680615 C191.429382 489.401074 191.380981 490.123913 191.421570 490.841687 C191.743164 496.535168 192.104248 502.226452 192.409180 507.920788 C192.767517 514.611828 192.753723 521.341382 193.484802 527.990002 C194.913879 540.986706 196.928650 553.919140 198.353088 566.916272 C199.341492 575.934277 199.790710 585.013196 200.405518 594.070019 C201.440186 609.313489 202.415039 624.561108 203.415039 639.806958 C203.748535 644.890454 203.961609 649.985303 204.438354 655.055249 C205.703125 668.503613 207.170959 681.933056 208.388855 695.385327 C209.511780 707.787915 210.446167 720.208081 211.406555 732.624829 C212.443848 746.035351 213.427185 759.450024 214.410889 772.864453 C215.099121 782.249463 215.726624 791.638745 216.420410 801.023266 C217.399719 814.271435 219.475830 827.542065 219.165466 840.758008 C218.703918 860.409131 222.731140 879.595776 223.501831 899.078442 C223.614807 901.935010 224.090881 905.605054 227.853699 906.107129 C233.163330 906.815381 238.565918 906.798657 243.917908 907.227124 C247.442139 907.509350 247.650085 905.334912 247.377197 902.825635 C247.280762 901.938306 246.494629 901.110547 246.452820 900.235058 C245.733582 885.186841 245.150269 870.132031 244.392090 855.085766 C243.843140 844.194043 242.921692 833.319775 242.457581 822.425244 C241.938599 810.243115 241.558044 798.047925 241.485168 785.856396 C241.440125 778.328686 242.297913 770.798169 242.343201 763.266431 C242.376465 757.742505 241.536194 752.217480 241.459900 746.687695 C241.308228 735.694409 241.415039 724.697461 241.415039 712.702099 M152.415039 603.702099 C152.415039 601.202038 152.630981 598.679944 152.378540 596.205639 C151.125183 583.921216 149.701294 571.654248 148.438965 559.370740 C147.958130 554.692395 147.801880 549.981763 147.405090 545.293652 C146.097900 529.849743 144.761658 514.408154 143.396423 498.969250 C143.243835 497.244702 142.631226 495.549206 142.578247 493.829541 C142.334229 485.911572 142.231140 477.989270 142.020325 470.070080 C141.998779 469.260144 141.827515 468.115674 141.299011 467.759411 C140.834106 467.446057 139.640686 467.819226 138.995544 468.238049 C136.615540 469.783459 134.330994 471.475659 132.007751 473.108655 C125.783325 477.483960 118.533020 476.822644 111.851318 475.835950 C108.644165 475.362378 106.043091 470.966199 103.091736 468.434704 C102.464844 467.897107 101.508606 467.743542 100.704102 467.413037 C100.607727 468.263196 100.319275 469.142651 100.443909 469.959118 C102.402954 482.798474 104.517029 495.615063 106.371643 508.469189 C107.288086 514.821179 107.643921 521.252026 108.439148 527.624035 C109.681519 537.579175 111.154480 547.505627 112.381348 557.462536 C112.915527 561.797986 112.822571 566.217419 113.464111 570.531811 C115.325745 583.052319 117.517700 595.523694 119.378113 608.044385 C120.574768 616.097851 121.451904 624.199780 122.398438 632.288647 C122.829346 635.971020 122.967896 639.688916 123.436890 643.365430 C124.706299 653.317456 126.165710 663.245556 127.385681 673.203198 C128.206726 679.905591 128.630005 686.656567 129.442688 693.359936 C130.669983 703.483227 132.165771 713.574048 133.390320 723.697583 C134.507324 732.932202 135.350891 742.199780 136.431763 751.439038 C137.693420 762.224316 139.086670 772.993970 140.409180 783.772168 C140.585754 785.210889 140.606567 786.671338 140.828491 788.101636 C142.673523 799.993847 144.675110 811.863476 146.372498 823.776440 C147.590942 832.327710 148.028687 841.002148 149.503723 849.502148 C151.837524 862.949902 154.716736 876.304028 157.442688 889.681958 C157.965759 892.248974 158.887085 894.085278 162.348450 894.367749 C166.967651 894.744702 171.482361 896.338574 176.070801 897.267407 C176.468567 897.347973 177.568115 896.312451 177.519836 895.889233 C176.905884 890.512646 176.033936 885.165234 175.441711 879.786694 C174.666443 872.744214 174.232849 865.662305 173.382080 858.630200 C171.831360 845.811597 169.992065 833.027783 168.458923 820.207226 C167.842529 815.052563 167.813049 809.830639 167.345032 804.654736 C166.432129 794.559765 165.136414 784.492139 164.503296 774.381543 C164.049316 767.131909 164.741394 759.812939 164.345337 752.556470 C163.585083 738.629590 162.241089 724.734570 161.485657 710.807568 C161.086121 703.441479 161.674255 696.024487 161.345276 688.651562 C160.985352 680.583691 160.106323 672.538037 159.401855 664.487256 C159.150879 661.619214 158.760010 658.763135 158.413086 655.904004 C157.084778 644.959912 155.658691 634.026806 154.449768 623.069653 C153.758057 616.800366 153.415039 610.492566 152.415039 603.702099 M24.415039 527.702099 C25.081665 529.926526 25.950439 532.112866 26.377991 534.382336 C27.808716 541.975659 29.043091 549.605725 30.428589 557.207837 C31.357544 562.304761 32.396362 567.382031 33.418884 572.461438 C35.740173 583.993115 37.993774 595.539563 40.441101 607.044568 C42.651001 617.433911 45.368530 627.722119 47.335571 638.154248 C49.360291 648.892529 50.800720 659.743115 52.399902 670.558789 C53.894226 680.664990 59.166931 689.993481 58.467773 700.564038 C58.340027 702.495556 58.725708 704.513013 59.169739 706.422192 C62.207458 719.482739 65.491516 732.488354 68.351440 745.587109 C70.033203 753.289258 70.756348 761.203564 72.501587 768.888257 C74.458313 777.504101 77.452637 785.887280 79.342285 794.514844 C84.135376 816.397656 88.385681 838.431470 96.579712 859.368725 C98.164062 863.417065 98.108948 868.659619 103.527588 871.005566 C108.623474 873.211621 113.230652 876.541211 118.077087 879.334668 C118.684448 879.684643 119.439636 879.778393 120.126404 879.990796 C120.083313 879.421948 120.108154 878.838086 119.987000 878.286328 C117.472961 866.834424 114.775940 855.419751 112.466064 843.927075 C110.508728 834.188550 109.308228 824.293164 107.210632 814.588818 C104.214417 800.726391 100.583984 787.002514 97.456116 773.166943 C95.243591 763.380322 93.309448 753.526806 91.452820 743.665112 C90.251892 737.286084 89.470276 730.829297 88.400757 724.424145 C87.128113 716.802319 85.879639 709.172558 84.384155 701.592847 C82.170410 690.373242 79.433350 679.248120 77.515930 667.981274 C76.013123 659.150830 75.658142 650.131055 74.359985 641.258618 C72.229858 626.700513 69.650513 612.208691 67.453674 597.659741 C66.238159 589.609387 65.520752 581.484875 64.389465 573.420361 C62.824829 562.266980 61.060852 551.141797 59.422607 539.998608 C58.382141 532.921277 57.459167 525.826550 56.403687 518.751599 C55.117981 510.133191 53.777893 501.522595 52.406616 492.917309 C51.112976 484.799451 49.895569 476.665112 48.364868 468.591015 C47.291565 462.929394 45.661621 457.375439 44.453308 451.736401 C43.887024 449.093884 43.729248 446.363843 43.386475 443.673535 C41.050415 445.362012 38.517456 446.837170 36.414612 448.778271 C29.689758 454.985913 18.781006 457.111706 11.384033 448.748364 C10.771912 448.056347 9.580444 447.876721 8.658142 447.458996 C8.731567 448.361157 8.656189 449.306347 8.902832 450.158337 C10.365479 455.211011 12.280212 460.164441 13.337158 465.296582 C15.591980 476.245068 17.435852 487.278699 19.408691 498.284558 C21.105835 507.751965 22.748352 517.229199 24.415039 527.702099 z"
  />
  <path
    class="selected"
    fill="#ffb6c1"
    opacity="1.000000"
    stroke="none"
    d="
M281.415039 223.202099 C290.268799 225.535412 298.610229 227.914319 306.979370 230.190991 C318.230225 233.251538 329.484985 235.684888 341.358643 235.383740 C350.712646 235.146374 360.122559 236.377087 369.481323 237.240613 C382.257935 238.419568 395.003296 239.936108 407.778564 241.131726 C409.763428 241.317456 411.843018 240.298230 413.865356 240.350537 C415.062134 240.381543 416.232666 241.421765 417.415039 242.008008 C416.521973 242.739392 415.693970 244.004101 414.726318 244.122021 C400.296387 245.879834 385.896851 245.467358 371.536987 243.229077 C370.237061 243.026440 368.875122 243.261792 367.547241 243.192822 C355.007202 242.541699 342.329956 242.793530 329.967651 240.944104 C317.407593 239.065076 305.050293 235.481152 292.809937 231.933789 C284.115234 229.413952 275.741089 225.770093 267.281738 222.479016 C266.151489 222.039258 265.362183 220.723035 264.415039 219.812756 C265.740967 219.768506 267.139526 219.429211 268.379761 219.733716 C272.588379 220.767041 276.740967 222.028088 281.415039 223.202099 z"
  />
  <path
    class="selected"
    fill="#ffb6c1"
    opacity="1.000000"
    stroke="none"
    d="
M528.165039 227.952099 C517.113159 231.868725 506.474854 236.174939 495.455444 238.990246 C487.320801 241.068493 478.702881 241.337109 470.275879 242.164380 C461.744507 243.002026 453.190796 243.679516 444.631226 244.123974 C441.631348 244.279797 438.567993 243.634961 435.570557 243.134839 C434.781494 243.003186 434.129761 242.047864 433.415039 241.470776 C434.088745 241.047864 434.712280 240.458630 435.446655 240.237012 C436.938354 239.786938 438.497681 239.215283 440.015625 239.251721 C454.720703 239.605298 468.952148 235.990368 483.412842 234.323865 C496.426758 232.824109 509.192993 230.601086 521.538818 226.192090 C524.145996 225.260998 526.648071 223.947522 529.318359 223.321118 C530.467407 223.051526 531.921997 224.083996 533.237793 224.524975 C532.316528 225.231091 531.423218 225.978467 530.463989 226.628796 C529.829956 227.058667 529.101318 227.349133 528.165039 227.952099 z"
  />
  <path
    class="selected"
    fill="#ffb6c1"
    opacity="1.000000"
    stroke="none"
    d="
M348.665039 160.952099 C345.771362 159.868786 343.057617 159.199353 340.520996 158.115552 C339.601196 157.722485 339.104736 156.338818 338.415039 155.407178 C339.273315 155.005505 340.203613 154.151562 340.978271 154.274853 C346.397583 155.137463 351.894043 155.812573 357.158447 157.287488 C366.588257 159.929455 376.131836 160.555310 385.830200 160.261059 C387.012573 160.225110 388.219482 160.995129 389.415039 161.391675 C388.232422 162.328503 387.177979 163.800366 385.847290 164.119092 C373.248535 167.136365 360.956299 165.602978 348.665039 160.952099 z"
  />
</svg>
