<?xml version="1.0" encoding="utf-8" ?>
<!DOCTYPE svg PUBLIC "-//W3C//DTD SVG 1.1//EN" "http://www.w3.org/Graphics/SVG/1.1/DTD/svg11.dtd">
<svg
  version="1.1"
  id="Contours"
  xmlns="http://www.w3.org/2000/svg"
  xmlns:xlink="http://www.w3.org/1999/xlink"
  x="0px"
  y="0px"
  width="931.470703px"
  height="931.470703px"
  viewBox="0.000005 0.000001 931.470703 1782.348877"
  enable-background="new 0 0 931.470703 931.470703"
  xml:space="preserve"
  fill="none"
  stroke-linecap="round"
  stroke-linejoin="round"
>
  <animate
    attributeName="opacity"
    dur="8s"
    keyTimes="0;0.05625;0.06875;0.125;1"
    values="0;1;1;0;0"
    repeatCount="indefinite"
  />
  <path
    class="selected"
    fill="#ffb6c1"
    opacity="1.000000"
    stroke="none"
    d="
M28.379389 1540.776969 C20.063349 1535.989860 15.657770 1528.092521 10.030634 1521.237174 C3.386957 1513.143180 2.632014 1503.396598 1.261103 1493.867179 C0.255732 1486.878532 0.359858 1479.718375 0.161799 1472.629264 C0.001948 1466.910148 -0.123297 1461.168449 0.210871 1455.464469 C0.469477 1451.050285 1.481318 1446.681998 2.112604 1442.286613 C2.229853 1441.470207 2.129389 1440.622428 2.129389 1439.789176 C2.129389 1431.732536 1.781061 1423.657340 2.207697 1415.623405 C2.921076 1402.189933 3.818354 1388.749992 5.223994 1375.374381 C6.434992 1363.850944 8.476069 1352.415397 10.126826 1340.937492 C14.365778 1311.463737 11.028376 1281.816032 12.187128 1252.274284 C12.464533 1245.202140 14.035212 1238.155021 13.990961 1231.102653 C13.929438 1221.296012 12.904658 1211.495597 12.296747 1201.692130 C12.225947 1200.549308 12.170466 1199.405143 12.131525 1198.260734 C11.794489 1188.342399 11.127192 1178.420036 11.242792 1168.506828 C11.325129 1161.443229 12.897578 1154.399650 13.021357 1147.333366 C13.182612 1138.124625 12.489130 1128.903556 12.337824 1119.684806 C12.294062 1117.016959 13.037409 1114.343131 13.091181 1111.665397 C13.212763 1105.611076 13.129389 1099.552482 13.129389 1093.495719 C13.129389 1079.106071 13.129389 1064.716544 13.129389 1050.326896 C13.129389 1042.103629 13.129389 1033.880241 13.129389 1025.656974 C13.129389 1013.433952 13.000544 1001.208976 13.168513 988.988273 C13.313227 978.457755 13.683771 967.926872 14.159235 957.405387 C14.696711 945.509757 15.480952 933.625541 16.124506 921.734550 C16.813044 909.012687 17.422358 896.286491 18.141718 883.566398 C18.748286 872.839896 19.279047 862.103751 20.188593 851.401237 C20.891901 843.124137 22.255976 834.905143 23.085383 826.636161 C23.649042 821.016654 23.433344 815.304618 24.214960 809.724784 C25.372370 801.462028 27.074274 793.274162 28.600886 785.064872 C30.412409 775.323661 32.192744 765.575187 34.152460 755.863334 C36.569453 743.885917 38.925226 731.888053 41.735956 720.000419 C44.595881 707.904533 48.810236 696.072196 50.864619 683.860770 C52.497858 674.153007 56.368159 665.734489 61.214045 657.599845 C65.152094 650.989188 69.299494 644.344108 74.386286 638.633781 C77.700739 634.912956 82.725397 632.591544 87.224604 630.073173 C100.842036 622.450980 113.961481 614.134818 128.685724 608.256767 C137.885981 604.584037 147.240229 598.111625 149.318537 585.942436 C150.178034 580.909782 153.082697 576.214408 155.139216 571.400626 C159.336176 561.576835 167.235529 557.682060 177.488703 556.946464 C185.935602 556.340507 194.488093 555.717460 202.710993 553.854179 C213.265803 551.462516 224.893427 540.418021 222.027766 526.435539 C219.875727 515.935355 216.846125 505.612174 214.116511 495.234061 C210.837702 482.767997 207.128351 470.403922 204.246027 457.848624 C202.300776 449.375327 200.607599 440.677329 200.309199 432.027824 C199.706171 414.549705 200.502985 397.025626 200.005305 379.540885 C199.639704 366.695915 201.704096 354.449546 205.299189 342.196281 C208.152521 332.470847 208.832087 322.011527 212.434077 312.629447 C215.900690 303.599876 215.986994 293.310081 222.916987 285.399101 C225.696284 282.226310 226.096918 277.090995 228.192133 273.176444 C236.377680 257.882926 243.960749 242.168937 253.397028 227.671775 C261.998835 214.456687 272.536555 202.473411 282.537226 190.204993 C293.049494 177.308982 303.826411 164.623252 314.708185 152.036231 C320.072321 145.831382 326.067744 140.176093 331.532709 134.053611 C337.236994 127.662894 342.802546 121.133643 348.146357 114.439567 C354.907648 105.969825 361.758234 97.527244 367.845820 88.579978 C371.633600 83.012763 374.124323 76.554786 377.116694 70.457099 C379.901606 64.782295 382.817316 59.154380 385.250788 53.328437 C389.107844 44.094161 392.888361 34.808707 396.180292 25.363311 C399.058649 17.104644 404.135554 10.456390 409.656977 3.924224 C415.543574 -3.040051 421.226557 -0.113393 425.013911 7.828063 C430.526545 19.387222 433.840021 31.785934 441.616938 42.534217 C447.634150 50.850463 455.259150 55.694503 463.887202 60.069717 C476.708613 66.571220 489.153803 73.868049 502.225580 79.798087 C508.151850 82.486564 512.784662 86.403541 517.031977 90.701881 C523.099726 96.842292 530.688959 100.424781 537.629755 105.110908 C543.020258 108.750312 548.022211 112.960456 553.348627 116.700675 C562.881098 123.394584 572.466181 130.017905 582.143549 136.500236 C593.068598 143.818427 602.979365 152.017249 611.391718 162.382041 C617.436396 169.829795 621.819208 178.564002 627.902094 185.406028 C635.709589 194.187782 639.348994 204.977561 646.161371 213.968314 C652.757929 222.674339 655.526972 233.070701 659.593012 242.913657 C661.121210 246.613303 663.277094 250.052451 665.126703 253.620841 C668.468867 260.068351 672.218134 266.348136 674.998408 273.030357 C677.304804 278.573386 678.414667 284.608604 680.139033 290.400657 C683.848505 302.859519 688.005732 315.201988 691.210810 327.787956 C693.235346 335.737663 694.057612 344.017539 695.090937 352.190849 C697.367182 370.196128 699.120600 388.292503 697.973871 406.429984 C697.325068 416.691245 695.320795 426.891319 693.513300 437.045310 C692.481440 442.842857 691.705561 449.116203 688.869257 454.059379 C684.823847 461.109794 685.079340 469.952873 678.854365 476.015373 C676.994135 477.827018 676.041743 480.829276 675.279780 483.461478 C673.026850 491.244926 668.590693 497.509696 663.341059 503.588920 C659.636103 507.879508 657.214960 513.304679 654.379023 518.313041 C651.098994 524.105644 647.168085 529.713432 645.035761 535.922172 C642.759272 542.550407 640.601923 549.423332 641.955805 556.935661 C642.867548 561.994865 642.207392 567.352775 642.110590 572.574455 C641.975336 579.872306 646.322138 583.865104 652.298945 586.681205 C655.921747 588.388175 659.553950 590.086478 663.251459 591.621146 C671.072870 594.867484 678.739496 598.712089 686.839716 601.002372 C696.479243 603.727836 706.455927 605.408866 716.379023 606.945304 C729.302729 608.946342 742.359858 610.087150 755.280146 612.106803 C767.289789 613.984000 779.204218 616.696037 789.359614 623.879691 C795.098871 627.939506 800.554316 632.475761 805.725825 637.244071 C812.172114 643.187797 818.497675 649.324088 824.291865 655.891898 C828.104120 660.212943 831.485224 665.151115 834.004389 670.326469 C839.190058 680.980827 844.082148 691.823051 848.269160 702.900138 C850.459223 708.694022 850.981806 715.134269 852.110346 721.309501 C853.896967 731.085319 855.562128 740.883292 857.273920 750.672782 C857.899286 754.248588 858.411127 757.847587 859.152460 761.398978 C860.333735 767.058341 861.796259 772.661124 862.889887 778.335929 C863.819819 783.160758 864.384516 788.055412 865.132441 792.915946 C866.120356 799.336478 867.194575 805.744437 868.109125 812.175285 C868.873896 817.551444 869.806391 822.937492 870.046259 828.346549 C870.377924 835.831413 869.866938 843.352958 870.179682 850.839408 C871.033076 871.263297 871.967158 891.686881 873.199824 912.090568 C873.790522 921.867118 875.304804 931.584464 876.082636 941.353996 C876.952875 952.284782 877.105219 963.280936 878.224726 974.181388 C879.476191 986.366203 881.800898 998.441642 883.017573 1010.628776 C883.919062 1019.657340 883.432978 1028.819816 884.223505 1037.865104 C885.154413 1048.513908 886.878657 1059.091178 888.092158 1069.718498 C888.644526 1074.555045 888.647944 1079.452995 889.156855 1084.296134 C890.748774 1099.446037 892.444208 1114.585075 894.139521 1129.723869 C894.743891 1135.120963 895.413203 1140.512077 896.141474 1145.893913 C897.121943 1153.140373 898.176264 1160.376823 899.222040 1167.614372 C899.834467 1171.853629 900.493159 1176.086295 901.129145 1180.322135 C902.730952 1190.991447 904.365717 1201.655875 905.912470 1212.333244 C906.395624 1215.667838 906.608027 1219.040763 906.999872 1222.389640 C907.687250 1228.263908 908.337641 1234.144035 909.148188 1240.001823 C910.367060 1248.809806 911.782099 1257.591056 912.969721 1266.403068 C913.529291 1270.555534 913.513300 1274.791740 914.173456 1278.923698 C916.391230 1292.807853 918.570185 1306.705314 921.189936 1320.516837 C924.080073 1335.753776 926.472040 1350.999381 927.292231 1366.531486 C927.670649 1373.695792 930.126337 1380.724967 931.055292 1387.891349 C932.614863 1399.921745 929.532465 1411.366447 925.983393 1422.742301 C923.765253 1429.852042 922.598383 1437.324821 919.980097 1444.265006 C917.323847 1451.306022 913.901728 1458.154289 910.040400 1464.624625 C901.323847 1479.231437 892.241572 1493.625114 883.031000 1507.927116 C881.270869 1510.660148 878.189570 1512.524528 875.801996 1514.875236 C871.191035 1519.415031 866.609370 1523.985832 862.102289 1528.628165 C861.515742 1529.232291 860.982661 1530.474235 861.200434 1531.182243 C863.243036 1537.822868 866.176020 1544.282829 867.384394 1551.056754 C868.313715 1556.266227 872.073847 1561.347526 869.194941 1567.092277 C868.727778 1568.024772 868.927241 1569.434806 869.160761 1570.552604 C871.478144 1581.645866 867.301020 1591.559684 862.879023 1601.127555 C861.384882 1604.360343 857.130610 1606.465812 853.877436 1608.709220 C844.648310 1615.073722 836.036494 1622.478507 824.979853 1625.859367 C823.727778 1626.242301 822.454218 1628.462516 822.228144 1629.984977 C820.705317 1640.237174 820.620844 1650.869865 817.744745 1660.698844 C815.632319 1667.918082 810.096552 1674.175895 805.883906 1680.732047 C797.792963 1693.323600 784.764399 1699.875114 772.421259 1706.977042 C765.135859 1711.168815 756.975825 1713.890495 749.097407 1716.989494 C737.630244 1721.500114 726.131708 1725.951530 714.512812 1730.049064 C706.931391 1732.722770 699.097040 1734.672843 691.407221 1737.048454 C687.429316 1738.277335 683.606684 1740.130241 679.563105 1741.003043 C666.370966 1743.850700 653.053583 1746.130363 639.894648 1749.114982 C631.290766 1751.066276 622.932368 1754.078971 614.363764 1756.213493 C606.286249 1758.225578 598.555414 1761.204582 589.852900 1761.324088 C581.281122 1761.441886 572.733149 1763.934318 564.191645 1765.478019 C547.966059 1768.410514 532.262324 1773.605705 515.319697 1773.376457 C503.702143 1773.219474 492.056757 1776.491081 480.392573 1777.985709 C471.000117 1779.189323 461.574579 1780.698844 452.139643 1780.890617 C430.816523 1781.324210 409.477656 1780.916007 388.146784 1781.071403 C376.559992 1781.155875 364.978327 1781.829459 353.390925 1781.989616 C341.279597 1782.156974 329.104609 1782.785148 317.065546 1781.838004 C301.500666 1780.613395 286.049494 1777.973869 270.536921 1776.044303 C259.101069 1774.621818 247.627985 1773.489494 236.206660 1771.964103 C231.570307 1771.344962 227.036921 1769.980094 222.439753 1769.037101 C214.138056 1767.334342 205.750727 1765.986686 197.535578 1763.942497 C189.738154 1762.002433 181.964655 1759.760246 174.452326 1756.930045 C164.085322 1753.024284 153.751826 1748.893546 143.815363 1744.020377 C134.219904 1739.314445 125.286921 1733.274528 115.798456 1728.327873 C108.435541 1724.489249 100.274164 1722.085319 93.186701 1717.842521 C86.140925 1713.624992 78.595759 1708.942130 73.860529 1702.545280 C69.495112 1696.648307 67.667048 1688.360099 66.372980 1680.840934 C64.965815 1672.664176 65.257746 1664.161369 65.200556 1655.798087 C65.161616 1650.105705 66.217707 1644.394767 66.028376 1638.717277 C65.759394 1630.647331 64.933527 1622.584342 63.988764 1614.560539 C63.838251 1613.282462 62.021235 1611.630241 60.633723 1611.162467 C52.723444 1608.494498 48.174799 1603.233756 44.736078 1595.516105 C40.660151 1586.368278 42.223444 1577.586784 43.101313 1568.500846 C43.591181 1563.430534 44.380976 1558.272086 43.863215 1553.274772 C43.631525 1551.038322 40.795771 1548.733512 38.648371 1547.114249 C35.543940 1544.773185 31.990961 1543.026969 28.379389 1540.776969 M491.129389 278.526969 C483.068720 271.428062 472.909174 271.833549 463.227778 271.171165 C456.919672 270.739585 450.493525 272.194785 444.162104 271.901511 C436.046808 271.525626 429.084406 274.905265 422.055659 277.807060 C416.222346 280.215354 411.088557 284.270591 405.343439 286.949912 C393.831965 292.318534 386.643488 302.399192 378.171503 311.075767 C374.912958 314.412956 371.092707 317.766898 369.317316 321.884513 C363.163630 336.156944 357.214350 350.575523 352.329523 365.316978 C348.954279 375.502708 347.228144 386.268089 345.219416 396.860587 C344.057245 402.989036 343.354548 409.282615 343.273615 415.512626 C343.212397 420.225944 344.503779 424.950950 345.119929 429.680259 C346.077570 437.030296 345.778681 444.498832 349.046808 451.555198 C355.387202 465.244621 361.784113 478.936515 372.547236 489.749503 C379.627619 496.862785 387.342585 503.442985 395.347712 509.503288 C400.868708 513.682975 407.014399 518.372855 413.509455 519.658073 C427.914728 522.508720 442.686640 523.751395 457.369013 524.840385 C463.508295 525.295707 470.013544 524.476981 475.974726 522.851920 C486.074946 520.098624 496.956049 517.937797 505.544184 512.452018 C517.940424 504.533744 530.959345 496.378715 537.716181 482.016654 C540.216425 476.702323 544.021357 471.916557 545.945429 466.438163 C548.259638 459.849418 549.481806 452.827079 550.672602 445.905753 C552.395502 435.892234 553.743281 425.811240 555.092158 415.737785 C555.649897 411.573509 556.195673 407.340873 556.056879 403.162254 C555.578730 388.768729 555.487543 374.309867 553.928828 360.019920 C552.458491 346.540855 547.255121 333.949455 540.642206 322.099754 C534.420649 310.951438 526.717768 300.952323 517.103388 292.407859 C509.664667 285.797019 501.202753 281.427238 491.129389 278.526969 M676.129389 954.526969 C676.129389 939.361198 676.144404 924.195426 676.095576 909.029838 C676.092280 908.028068 675.602900 907.027885 675.339594 906.026969 C674.602900 906.916373 673.341059 907.737174 673.214472 908.706229 C672.382807 915.074577 671.778193 921.473136 671.136103 927.865470 C670.765253 931.556571 670.301142 935.248893 670.169916 938.950980 C670.002680 943.668388 670.719355 948.486991 670.010248 953.101432 C668.387202 963.663200 665.354120 974.050895 664.307001 984.648795 C662.641840 1001.500480 662.198969 1018.470817 661.096674 1035.381706 C660.624995 1042.617545 659.858149 1049.836540 659.116450 1057.051994 C657.490961 1072.864372 655.695063 1088.660026 654.193964 1104.483756 C653.770991 1108.943229 654.483271 1113.510368 654.060908 1117.969962 C652.927851 1129.935416 651.482050 1141.871696 650.122919 1153.815299 C649.145991 1162.399772 648.173945 1170.985587 647.081171 1179.555778 C645.832514 1189.349723 644.292963 1199.108634 643.179316 1208.916740 C642.267695 1216.945426 642.632319 1225.203727 640.948359 1233.041496 C637.824213 1247.581046 635.975825 1262.135856 636.055659 1277.005485 C636.094477 1284.232169 635.597773 1291.487296 634.884272 1298.684074 C634.341059 1304.165153 632.285517 1309.574210 632.282343 1315.016105 C632.274042 1329.404289 628.571894 1343.560294 630.056391 1358.033927 C630.807001 1365.352409 630.846430 1372.747184 631.107538 1380.110954 C631.233637 1383.663444 631.009028 1387.228873 631.157343 1390.779533 C631.384028 1396.202628 632.251948 1401.635490 632.043940 1407.033195 C631.420893 1423.207389 636.186030 1438.401725 640.243525 1453.687858 C642.252680 1461.256950 645.381464 1468.538932 648.226191 1475.864372 C648.607294 1476.845939 650.298212 1477.318595 651.382807 1478.026969 C651.385126 1476.947135 651.627680 1475.801627 651.353022 1474.797599 C648.324702 1463.727897 644.963007 1452.743034 642.206293 1441.607658 C639.835078 1432.028922 637.916010 1422.322990 636.206904 1412.601188 C635.125483 1406.450919 634.427851 1400.179679 634.237543 1393.941886 C634.062495 1388.205436 635.109247 1382.438712 635.060297 1376.690055 C634.974482 1366.603141 634.265375 1356.521110 634.199946 1346.434562 C634.157709 1339.909049 634.758539 1333.376945 635.142328 1326.851920 C635.408808 1322.319816 635.679804 1317.782707 636.151728 1313.269035 C637.419428 1301.148917 638.750117 1289.034904 640.156611 1276.930167 C640.594111 1273.163932 641.395136 1269.441276 641.958369 1265.687980 C643.042475 1258.463126 644.179438 1251.244010 645.102656 1243.997916 C646.215815 1235.260734 647.069086 1226.490714 648.145014 1217.748527 C649.411371 1207.460197 650.777949 1197.183952 652.135737 1186.907218 C653.073847 1179.805778 654.093989 1172.714957 655.036005 1165.614005 C656.420038 1155.182243 657.801020 1144.749870 659.115961 1134.309318 C659.856684 1128.428825 660.118525 1122.466544 661.208735 1116.656120 C662.908686 1107.595817 665.524286 1098.698600 667.026850 1089.612296 C668.797724 1078.904655 669.907587 1068.081413 671.083002 1057.284293 C671.681757 1051.785026 671.562006 1046.206779 672.179804 1040.710685 C673.337885 1030.411002 675.411249 1020.176994 675.950190 1009.855460 C676.454096 1000.204826 675.263300 990.477531 675.200068 980.781364 C675.158564 974.422477 675.821772 968.060416 676.114496 961.697196 C676.208979 959.644584 676.129389 957.583915 676.129389 954.526969 M244.129389 1226.526969 C243.796076 1220.334708 243.310236 1214.146232 243.158625 1207.949455 C242.740717 1190.875602 242.721613 1173.787711 242.014765 1156.727287 C241.685663 1148.785026 240.360102 1140.855949 239.073542 1132.988395 C237.296320 1122.120231 234.833735 1111.359977 233.210749 1100.472160 C231.513483 1089.085441 230.601984 1077.583976 229.094050 1066.166129 C227.242914 1052.149894 225.156672 1038.164542 223.121577 1024.172965 C221.157587 1010.670890 219.384333 997.133903 217.050165 983.695182 C215.122126 972.593864 212.541559 961.603996 210.164057 950.583305 C208.914484 944.791251 206.645563 939.083732 206.333674 933.257926 C205.912348 925.388114 200.416132 918.638114 201.932062 910.440055 C202.107661 909.490531 200.418879 908.196281 199.594477 907.061881 C199.106074 908.358756 198.575617 909.642082 198.152460 910.959892 C198.007014 911.412894 198.092768 911.955070 198.134699 912.451225 C199.127863 924.197379 200.084589 935.946830 201.147639 947.686759 C201.711664 953.916251 202.382624 960.138664 203.147455 966.346793 C204.414362 976.629874 205.789789 986.899650 207.135615 997.172843 C207.361750 998.899284 207.587519 1000.632438 207.953608 1002.332389 C208.972773 1007.065055 210.267634 1011.747184 211.085993 1016.512443 C212.640925 1025.565910 213.614496 1034.729118 215.435724 1043.724113 C217.286432 1052.864982 220.080012 1061.811515 222.069147 1070.928581 C224.013117 1079.838859 225.478510 1088.854240 227.122065 1097.829337 C227.832575 1101.709464 228.618647 1105.585319 229.094355 1109.496696 C229.889399 1116.034415 230.379877 1122.608756 231.145685 1129.150504 C233.096918 1145.817985 235.673517 1162.433463 236.976191 1179.149528 C238.274653 1195.812003 235.348078 1212.723014 239.215327 1229.260123 C240.686579 1235.551383 243.126948 1241.616447 245.134882 1247.781364 C245.270685 1248.198356 245.485468 1248.589713 245.663508 1248.992912 C245.818842 1248.557487 246.143305 1248.106193 246.104120 1247.688957 C245.473261 1240.965812 244.796015 1234.246818 244.129389 1226.526969 M336.129389 622.526969 C332.619440 621.350333 329.133173 620.094230 325.587702 619.036491 C324.189142 618.619254 322.658564 618.644462 321.188105 618.468253 C322.306147 619.625480 323.218683 621.189201 324.575129 621.875175 C334.755121 627.023124 344.861628 632.369560 355.316706 636.903007 C362.929682 640.204032 370.890925 642.994804 378.961603 644.879691 C391.353205 647.773612 403.888422 650.491203 416.516718 651.817313 C431.030512 653.341300 445.606562 651.635307 459.722529 647.801383 C468.482294 645.422172 477.080073 642.317069 485.540400 639.001395 C493.986201 635.691337 502.462031 632.237174 510.364374 627.839408 C515.487055 624.988639 519.537958 620.248832 524.192621 616.509147 C528.155268 613.325614 532.332880 610.410514 536.323603 607.260307 C537.135737 606.619193 537.538203 605.459281 538.129389 604.538444 C536.779413 604.551261 535.122919 604.064384 534.136347 604.669547 C531.041987 606.567558 528.406245 609.263053 525.224970 610.960441 C511.192133 618.447868 497.330317 626.363212 482.837519 632.853385 C465.658808 640.546439 447.218867 644.064628 428.430048 644.934745 C416.288508 645.496940 404.275934 644.381522 392.156794 642.325919 C376.168696 639.614127 361.880244 632.348991 346.599116 627.877738 C343.102167 626.854484 339.943659 624.674552 336.129389 622.526969 M235.629389 1450.026969 C233.629999 1457.026359 231.546625 1464.003165 229.651789 1471.030631 C227.089594 1480.533317 221.925349 1488.607414 216.259333 1496.476676 C214.090998 1499.488273 212.243281 1502.782340 210.675654 1506.146232 C210.145014 1507.284782 210.925898 1509.034660 211.107538 1510.505119 C212.114802 1509.771354 213.314081 1509.198966 214.092280 1508.272697 C216.138849 1505.836540 218.115351 1503.324332 219.916682 1500.702873 C224.807001 1493.586173 229.818964 1486.535758 234.311457 1479.171500 C236.196039 1476.082023 236.887812 1472.266105 238.130488 1468.783561 C240.460139 1462.254508 243.602167 1455.890128 244.956904 1449.165275 C247.550471 1436.290641 249.370661 1423.242912 251.065607 1410.208976 C252.991083 1395.402457 252.911188 1380.563224 250.093683 1365.830924 C249.845270 1364.531974 249.092585 1363.329459 248.574213 1362.082145 C248.092585 1363.548087 247.175532 1365.024528 247.211054 1366.477897 C247.317744 1370.841911 248.328181 1375.235221 248.017023 1379.547233 C247.395991 1388.153434 246.399409 1396.755485 245.057856 1405.280631 C243.544184 1414.899162 241.540888 1424.443229 239.631525 1433.995841 C238.591608 1439.198356 237.304804 1444.351554 235.629389 1450.026969 M688.129389 1586.526969 C689.296992 1599.961173 692.982905 1612.621818 702.461054 1622.483756 C706.032953 1626.200675 710.100703 1630.496452 716.727900 1630.213371 C721.718989 1629.999992 726.784296 1631.472038 731.813471 1632.213737 C742.648798 1633.811271 753.460078 1636.518180 764.322260 1636.737418 C776.715082 1636.987785 789.160639 1635.114982 801.565302 1633.969596 C804.979365 1633.654289 808.373774 1632.795646 811.678461 1631.843498 C812.549067 1631.592765 813.051020 1630.062492 813.722040 1629.119621 C812.681635 1628.431510 811.508295 1627.009391 810.621699 1627.170036 C802.603510 1628.623649 794.686274 1630.697623 786.636103 1631.891715 C780.528315 1632.797477 774.192133 1633.462882 768.095576 1632.853751 C757.723871 1631.817130 747.420038 1629.908073 737.164301 1627.962028 C728.267695 1626.274040 719.246699 1624.701896 710.719843 1621.792106 C704.933344 1619.817619 699.405024 1616.230216 698.076044 1608.983634 C697.006830 1603.154655 695.209345 1597.457145 694.188349 1591.621940 C692.630121 1582.714469 691.054194 1573.775260 690.242304 1564.781364 C689.401606 1555.465934 689.554316 1546.064201 689.047968 1536.712394 C688.952875 1534.957023 687.833002 1533.243644 687.055659 1531.571647 C687.009150 1531.471793 685.223261 1531.884513 685.212275 1532.106681 C684.781245 1540.796378 683.805659 1549.529777 684.308954 1558.175651 C684.842402 1567.335929 686.796015 1576.413322 688.129389 1586.526969 M831.129267 1563.526847 C832.810541 1562.360221 834.528681 1561.242912 836.166376 1560.018058 C842.135493 1555.553581 849.185663 1552.124137 852.050654 1544.570548 C852.788325 1542.625724 852.558100 1540.313468 852.772578 1538.170158 C851.224848 1539.402702 849.681391 1540.640739 848.128535 1541.866691 C843.835200 1545.256095 839.864130 1549.218864 835.156000 1551.873649 C829.838007 1554.872184 823.921503 1556.872184 818.145624 1558.978019 C812.061152 1561.196525 805.936274 1564.239005 799.649286 1564.761710 C788.349482 1565.701286 776.910273 1565.229972 765.539911 1564.936393 C760.308344 1564.801383 754.990473 1564.148429 749.913080 1562.907340 C744.096674 1561.485587 738.537592 1559.038322 732.789301 1557.291496 C731.391718 1556.866935 729.690790 1557.439689 728.129389 1557.553825 C729.057123 1558.472648 729.822870 1559.773429 730.939448 1560.247184 C737.310908 1562.949455 743.558710 1566.559196 750.232905 1567.809684 C766.979609 1570.947379 783.762568 1573.100456 801.101801 1571.416984 C811.565058 1570.401359 821.102778 1567.748039 831.129267 1563.526847 M187.629328 1612.026969 C188.925043 1610.064567 190.271174 1608.133415 191.507929 1606.134635 C198.064997 1595.537711 201.970759 1584.224113 202.231501 1571.554801 C202.500117 1558.498161 201.192988 1545.641471 199.081782 1532.820304 C198.922602 1531.853751 198.086237 1530.998649 197.564570 1530.091789 C197.086176 1531.059684 196.173029 1532.044547 196.209650 1532.992667 C196.326960 1536.028190 197.122553 1539.056144 197.068598 1542.076408 C196.901362 1551.437125 196.085627 1560.799552 196.244013 1570.149040 C196.380366 1578.204337 193.443476 1585.304801 190.263361 1592.204704 C184.865351 1603.917228 176.824457 1612.420402 162.798640 1614.269523 C155.133356 1615.280021 148.202509 1620.467033 139.837336 1619.094596 C137.732477 1618.749259 135.453242 1619.035514 133.326655 1619.426261 C132.181513 1619.636710 131.190180 1620.683585 130.129389 1621.353019 C131.363703 1621.911002 132.589838 1622.930290 133.833552 1622.952262 C142.051203 1623.096793 150.287897 1623.325431 158.486567 1622.905265 C162.809870 1622.683830 167.264948 1621.721061 171.309016 1620.174064 C176.759882 1618.088737 181.871943 1615.117790 187.629328 1612.026969 M161.629389 1540.027091 C153.334772 1543.321647 145.055353 1546.655631 136.732111 1549.876334 C135.147516 1550.489494 133.402277 1550.729240 131.709833 1551.014518 C123.296992 1552.431876 114.634333 1552.986686 106.516352 1555.388786 C94.294245 1559.004997 81.965693 1557.581901 69.660944 1558.036857 C67.498347 1558.116813 65.340571 1558.326286 63.180536 1558.475822 C64.970026 1559.632804 66.619013 1561.228873 68.578181 1561.855827 C72.720392 1563.181266 77.005305 1564.724479 81.267634 1564.838981 C86.299250 1564.973869 91.384943 1563.796012 96.418818 1563.006217 C107.662043 1561.242423 118.996577 1559.850944 130.080195 1557.357414 C136.921137 1555.818229 143.513300 1552.850211 149.953181 1549.939689 C156.839228 1546.827628 163.433710 1543.063590 170.087946 1539.459464 C170.577753 1539.194206 170.522089 1537.921745 170.719965 1537.117545 C169.798029 1536.979118 168.747004 1536.488883 167.979120 1536.770499 C165.963373 1537.509879 164.070978 1538.585441 161.629389 1540.027091 M676.129511 885.526969 C676.462763 884.333244 677.120234 883.126518 677.073115 881.947929 C676.872065 876.919791 676.370478 871.903800 676.160029 866.875846 C676.004511 863.162956 676.230341 859.433585 676.054926 855.722465 C676.013422 854.844474 675.043207 854.010490 674.500117 853.156242 C674.043207 853.965873 673.235590 854.754020 673.184443 855.588493 C672.754267 862.603202 672.195673 869.626640 672.202509 876.646964 C672.209711 884.057670 672.756220 891.470084 673.173701 898.875724 C673.233881 899.943290 673.889155 900.977409 674.269037 902.026969 C674.889155 900.855827 675.975703 899.711173 676.043940 898.508720 C676.270136 894.526054 676.129389 890.522514 676.129511 885.526969 M248.129389 1296.526969 C248.097407 1295.161613 248.113276 1293.791496 247.975458 1292.436881 C247.957331 1292.259147 246.816218 1291.965568 246.762812 1292.056876 C246.154658 1293.099113 245.181635 1294.219962 245.214167 1295.292350 C245.335505 1299.297599 245.736262 1303.299308 246.193598 1307.283927 C246.262629 1307.885856 247.188349 1308.389518 247.717829 1308.938590 C248.188349 1308.306144 249.091059 1307.649284 249.057123 1307.045158 C248.878168 1303.865104 248.462702 1300.698356 248.129389 1296.526969 M672.129389 828.526969 C672.129389 827.528678 672.360956 826.454459 672.065302 825.553214 C671.760126 824.623466 670.942255 823.862052 670.348505 823.026908 C669.608759 824.077445 668.101923 825.266837 668.262446 826.154533 C668.950312 829.956290 670.076777 833.684745 671.183466 837.398185 C671.359614 837.988944 672.252802 838.366019 672.814448 838.841911 C673.252802 838.191581 674.127314 837.487113 674.054560 836.900199 C673.726435 834.257560 673.129511 831.648246 672.129389 828.526969 M667.129389 805.526969 C666.893061 806.290641 666.656733 807.054313 666.420405 807.818046 C666.851069 807.859977 667.281733 807.901969 667.712519 807.943961 C667.684809 806.971610 667.657099 805.999320 667.129389 805.526969 z"
  />
</svg>
