<?xml version="1.0" encoding="utf-8" ?>
<!DOCTYPE svg PUBLIC "-//W3C//DTD SVG 1.1//EN" "http://www.w3.org/Graphics/SVG/1.1/DTD/svg11.dtd">
<svg
  version="1.1"
  id="Contours"
  xmlns="http://www.w3.org/2000/svg"
  xmlns:xlink="http://www.w3.org/1999/xlink"
  x="0px"
  y="0px"
  width="1707.832275px"
  height="1707.832275px"
  viewBox="-0.000003 -0.000009 1707.832275 1390.424561"
  enable-background="new 0 0 1707.832275 1707.832275"
  xml:space="preserve"
  stroke-linecap="round"
  stroke-linejoin="round"
  fill="none"
>
  <animate
    attributeName="opacity"
    dur="8s"
    keyTimes="0;0.05625;0.06875;0.125;1"
    values="0;1;1;0;0"
    repeatCount="indefinite"
    begin="7s"
  />
  <!-- <animateTransform -->
  <!--   xmlns="http://www.w3.org/2000/svg" -->
  <!--   attributeName="transform" -->
  <!--   type="rotate" -->
  <!--   begin="0s" -->
  <!--   dur="1s" -->
  <!--   repeatCount="indefinite" -->
  <!--   values="0;5;-5;5;-5;0" -->
  <!--   keyTimes="0;0.2;0.4;0.6;0.8;1" -->
  <!-- /> -->
  <path
    class="selected"
    fill="#ffb6c1"
    opacity="1.000000"
    stroke="none"
    d="
M1156.889209 1194.072916 C1157.429370 1205.277261 1154.727344 1215.620523 1153.573413 1226.132120 C1151.677539 1243.403116 1142.958789 1257.498697 1134.516284 1271.786783 C1130.748096 1278.163858 1126.351733 1284.305948 1121.432788 1289.836343 C1113.103809 1299.200845 1104.380664 1308.250528 1095.368823 1316.962686 C1084.776050 1327.203043 1073.513476 1336.639200 1060.700000 1344.182169 C1054.047168 1348.098551 1048.350268 1353.635782 1041.706103 1357.570230 C1032.269580 1363.158487 1022.491138 1368.219522 1012.617602 1373.008829 C997.690112 1380.249551 981.085132 1382.204141 965.298022 1386.547159 C950.890918 1390.510538 935.422412 1390.809732 920.188159 1390.154215 C903.628833 1389.441690 887.881396 1385.088907 872.404468 1379.874551 C862.077441 1376.395426 851.999805 1371.908853 842.287952 1366.939859 C830.677539 1360.999429 819.540820 1354.169473 809.650867 1345.446207 C803.412219 1339.943277 796.385852 1335.323282 790.243030 1329.725382 C785.973254 1325.834757 783.052173 1320.449991 778.736560 1316.626749 C770.759387 1309.559732 766.333728 1300.143839 761.007800 1291.378458 C755.475391 1282.273233 750.448840 1272.794351 746.016162 1263.106119 C741.795032 1253.880289 738.777637 1244.111490 734.953906 1234.693887 C730.571826 1223.901163 730.184192 1212.322061 727.885364 1201.121744 C727.571216 1199.591104 727.523425 1197.866861 726.730884 1196.630777 C726.322009 1195.992960 723.979358 1195.658975 723.472827 1196.160318 C715.963611 1203.590616 706.356982 1206.776529 696.718738 1210.164224 C688.450366 1213.070474 680.452075 1216.748819 672.349170 1220.121256 C665.241260 1223.079508 658.240771 1226.322061 651.026782 1228.990030 C646.240710 1230.760294 641.203845 1231.928751 636.205127 1233.030313 C627.930164 1234.853922 619.622790 1236.562906 611.276355 1238.017496 C605.770312 1238.977091 600.187976 1239.710489 594.611194 1240.007486 C584.094836 1240.567545 573.554980 1240.669229 563.030017 1241.089517 C547.970386 1241.690592 532.920032 1242.550821 517.857104 1243.033365 C501.943896 1243.543009 485.996326 1244.407755 470.110583 1243.829996 C460.087085 1243.465494 450.159900 1240.673258 440.169726 1239.095377 C433.102344 1237.979288 425.956409 1237.313394 418.933276 1235.982950 C414.708301 1235.182535 410.664722 1233.449259 406.516406 1232.212930 C399.540271 1230.133707 392.586047 1227.963663 385.550464 1226.105020 C371.264392 1222.330972 356.575915 1219.730753 342.721301 1214.778116 C330.306018 1210.340006 318.955188 1203.012003 306.819110 1197.676920 C297.089038 1193.399698 292.471545 1186.325601 294.147845 1176.234415 C294.997394 1171.120157 297.683429 1165.721231 301.060474 1161.742227 C307.598712 1154.038736 314.908008 1146.905191 322.471210 1140.180460 C329.494464 1133.935587 337.216724 1128.467325 344.742541 1122.805093 C346.436084 1121.530924 348.595508 1120.878702 350.522021 1119.903848 C350.617725 1119.855386 350.569385 1119.255533 350.532397 1119.249429 C348.029468 1118.835123 345.456287 1118.692667 343.024036 1118.031046 C333.600726 1115.467569 324.241229 1112.669840 314.821918 1110.090982 C303.585681 1107.014566 292.065539 1104.772745 281.113544 1100.907999 C265.007434 1095.224039 248.984088 1089.097086 233.490344 1081.936685 C211.782184 1071.904215 190.245746 1061.381021 169.290515 1049.875528 C152.075366 1040.423624 135.464465 1029.739298 119.311481 1018.553384 C113.260089 1014.362833 105.960681 1010.690469 103.630603 1001.867960 C101.716632 994.621011 104.657794 987.060587 111.792468 983.466715 C129.418201 974.588175 148.086475 968.757608 166.848071 963.046060 C180.302692 958.949991 193.645251 954.485269 207.105273 950.407999 C216.898669 947.441324 226.781116 944.758341 236.675372 942.143717 C238.544788 941.649698 240.672626 942.217813 242.648456 941.999551 C243.408038 941.915445 244.076221 941.004190 244.785998 940.469644 C244.145496 940.004068 243.570239 939.313150 242.854938 939.106119 C228.714252 935.015176 216.225970 927.411417 203.842364 919.896402 C194.780231 914.397134 186.660998 907.329141 178.207873 900.847574 C174.247790 897.811197 170.285297 894.724283 166.686816 891.280924 C159.625201 884.523966 152.817798 877.501138 145.905078 870.588663 C143.450488 868.133951 140.921435 865.748819 138.554553 863.212442 C130.173053 854.230753 121.715533 845.314737 113.536182 836.151285 C105.006610 826.595499 96.531665 816.970987 88.488086 807.008951 C83.866626 801.285318 79.925281 794.968790 76.078311 788.674356 C70.815738 780.063760 65.775806 771.307291 60.928973 762.455362 C54.764743 751.197305 48.745471 739.854288 42.936145 728.409647 C38.541644 719.752176 34.208514 711.028909 30.507022 702.062906 C25.629962 690.249429 21.437228 678.154581 16.874042 666.209879 C14.291278 659.449197 11.244464 652.849283 8.985263 645.986490 C7.090732 640.231546 5.851627 634.237528 4.651553 628.282938 C2.908725 619.635477 0.860736 610.980264 0.105380 602.228006 C-0.380017 596.603677 0.909732 590.740518 1.968188 585.090128 C3.300799 577.976236 10.831134 571.744363 18.036227 571.063089 C24.597705 570.442667 31.151248 569.220010 37.708469 569.218973 C44.266376 569.217874 50.844211 570.250528 57.377765 571.102640 C66.509936 572.293619 75.852771 572.871805 84.645404 575.346719 C91.684619 577.327982 98.742938 578.436258 105.869800 579.534525 C116.068713 581.106363 126.288928 582.539224 136.492297 584.082681 C142.752612 585.029825 148.999438 586.066690 155.250445 587.075235 C159.309497 587.730020 163.355792 588.470682 167.424213 589.059122 C175.141345 590.175211 182.929919 590.898111 190.577991 592.363138 C198.683673 593.915750 207.068378 595.167215 214.591235 598.317301 C224.183185 602.333902 235.232532 600.562051 244.158984 606.671426 C245.564319 607.633218 247.975513 606.975259 249.783679 607.522257 C265.623950 612.313760 281.705585 616.477457 297.184924 622.250406 C318.525348 630.209268 339.463733 639.265054 360.454883 648.133585 C370.669971 652.449381 380.684375 657.262308 390.655383 662.125406 C396.912097 665.176859 402.893664 668.788736 409.067981 672.016580 C409.929309 672.466898 411.187915 672.157388 412.262561 672.199625 C411.855395 671.374613 411.503589 670.516519 411.032581 669.729715 C405.035083 659.711893 398.734180 649.862405 393.088000 639.650858 C387.036060 628.705667 381.267383 617.575845 375.969836 606.248453 C368.859363 591.044717 361.740527 575.797708 355.700183 560.154215 C349.867602 545.048929 345.212939 529.474832 340.391894 513.997293 C336.612964 501.865518 332.895190 489.676553 330.036121 477.308206 C327.652759 466.997720 326.626025 456.378030 324.868274 445.917215 C323.301196 436.590921 321.260791 427.335367 319.970081 417.973978 C318.609332 408.104776 317.389270 398.166849 316.997974 388.223978 C316.282458 370.043985 315.605426 351.822061 316.081348 333.648233 C316.473437 318.676126 318.679156 303.757730 319.823505 288.795755 C320.233386 283.436624 319.623096 278.002542 319.972186 272.634805 C320.258716 268.229105 321.243945 263.865457 321.977618 259.492899 C323.257892 251.863016 324.624408 244.247598 325.879748 236.613748 C327.908160 224.278665 330.004687 211.952432 331.806018 199.583627 C332.529803 194.613748 333.010638 189.522165 332.803271 184.519083 C332.164294 169.103433 336.287463 154.828256 342.532092 141.012552 C343.207996 139.517282 344.442676 138.035349 345.805102 137.128336 C354.813525 131.131265 364.393970 130.392984 374.505298 134.153574 C386.645435 138.668649 398.185535 144.289621 408.568225 152.093057 C413.174426 155.554971 417.646289 159.198496 422.125354 162.825937 C427.752856 167.383402 433.386645 171.936350 438.907581 176.621103 C448.421924 184.694498 458.024524 192.676920 467.266101 201.054971 C476.060901 209.027994 484.653491 217.250681 492.952197 225.737955 C504.353931 237.398782 515.359302 249.446390 526.608997 261.257303 C530.955981 265.821146 535.774524 269.958170 539.899524 274.705667 C545.466479 281.113016 550.647876 287.862650 555.849170 294.578165 C559.633044 299.463663 562.545459 305.202554 566.959705 309.386392 C578.027942 319.876932 585.222949 333.073099 593.716785 345.379251 C599.898791 354.336099 606.460742 363.042154 612.367236 372.174417 C618.192737 381.181436 623.477161 390.543070 628.863025 399.828043 C632.125781 405.452860 635.283801 411.151102 638.181140 416.969522 C639.474109 419.565958 639.860522 422.600259 640.964709 425.311075 C641.389941 426.355081 642.665881 427.052591 643.554187 427.907938 C643.999194 426.758951 644.876697 425.588968 644.822070 424.464212 C644.292102 413.543375 647.140796 403.071817 649.038013 392.494363 C650.724292 383.092996 652.850330 373.767740 654.904590 364.435831 C658.298267 349.019449 661.857654 333.639505 665.217883 318.215982 C667.553943 307.493509 669.433154 296.666544 671.980273 285.996988 C673.482043 279.706583 675.909289 273.638712 677.884997 267.459512 C681.932178 254.801431 685.976306 242.142374 689.982776 229.471414 C693.664600 217.827158 696.967273 206.050394 701.048633 194.549020 C704.545947 184.693155 709.361011 175.300852 712.778430 165.421640 C717.376453 152.129251 721.100391 138.536997 725.369189 125.127481 C729.490893 112.179880 733.746265 99.273172 738.097705 86.400888 C741.257556 77.053873 744.524524 67.737314 748.009814 58.507669 C751.599597 49.001383 755.383350 39.562723 759.328174 30.198129 C761.958972 23.952951 764.231250 17.324625 768.110217 11.902353 C772.022327 6.433817 777.629504 1.672647 784.492236 0.257791 C790.688769 -1.019705 796.087573 2.644602 799.999499 6.974374 C803.939807 11.335550 807.692737 16.430032 809.685779 21.877207 C814.937549 36.230722 820.215259 50.725687 823.468738 65.604685 C825.536243 75.059915 829.293750 83.546549 832.575915 92.400034 C835.314563 99.787241 837.108630 107.521494 839.408130 115.075510 C842.064685 123.802438 845.192737 132.404398 847.442798 141.232248 C851.243823 156.145242 857.774707 169.942148 863.870898 183.940592 C868.297534 194.104898 872.511890 204.361429 876.903003 214.541391 C880.502002 222.884958 884.614062 231.029642 887.794116 239.526163 C892.173511 251.227091 895.659961 263.260416 899.955859 274.995035 C903.977710 285.980692 909.429370 296.508035 912.687793 307.692789 C917.781299 325.176126 921.654346 343.020426 925.854785 360.756693 C928.701343 372.775980 931.434741 384.830545 933.823535 396.947183 C935.810840 407.026773 937.192432 417.225076 938.939746 427.353983 C939.100024 428.283182 939.968677 429.090128 940.508350 429.953836 C940.968677 429.144510 941.664477 428.386820 941.854785 427.518289 C947.075122 403.706949 953.518848 380.335977 964.808765 358.512308 C968.620776 351.143778 971.275317 343.185098 974.858325 335.687174 C979.318896 326.353311 983.896167 317.049905 988.968433 308.040445 C994.622485 297.997842 1000.605884 288.113260 1006.950854 278.492960 C1018.547534 260.910196 1030.266406 243.395792 1042.444995 226.214945 C1047.746020 218.736429 1054.571460 212.356851 1060.222827 205.102853 C1065.446216 198.398050 1070.028003 191.193186 1074.885059 184.203317 C1075.239795 183.692789 1075.450000 183.061289 1075.867602 182.617929 C1087.165942 170.623453 1098.236865 158.401041 1109.869311 146.738901 C1120.303638 136.277780 1131.644580 126.720407 1142.069263 116.250436 C1155.468555 102.793100 1170.181811 91.195413 1187.060474 82.519144 C1193.894214 79.006265 1201.587207 78.155283 1209.105762 79.209146 C1216.591724 80.258493 1222.843188 88.506448 1222.756518 97.457651 C1222.653857 108.077341 1221.564258 118.687906 1220.885425 129.301340 C1220.574512 134.164621 1220.171924 139.022501 1219.901416 143.887827 C1219.520068 150.747019 1218.924731 157.612375 1218.960864 164.472299 C1219.011890 174.168894 1219.469531 183.866831 1219.910693 193.557047 C1220.490161 206.284677 1221.114307 219.012247 1221.918628 231.727152 C1222.789111 245.487650 1224.404468 259.220072 1224.764209 272.989053 C1225.261768 292.032999 1225.120166 311.103494 1224.801807 330.155069 C1224.614185 341.386759 1223.942432 352.644022 1222.783984 363.816751 C1221.539111 375.823160 1219.568896 387.759500 1217.721851 399.696512 C1216.639087 406.694132 1215.238208 413.644876 1213.873828 420.595865 C1212.272876 428.751627 1210.620410 436.898416 1208.873340 445.023905 C1206.605395 455.571390 1204.481250 466.160013 1201.817554 476.609171 C1199.062549 487.416605 1195.733691 498.077615 1192.663013 508.804788 C1192.469287 509.481790 1192.339770 510.177225 1192.180469 510.864114 C1193.082812 510.767618 1194.184863 510.958231 1194.838184 510.503763 C1195.705249 509.900797 1196.305957 508.844644 1196.876514 507.896219 C1203.793384 496.398843 1212.073047 486.040262 1221.664600 476.610941 C1226.324145 472.030191 1229.680713 466.144083 1234.210498 461.406595 C1240.433154 454.898660 1247.190723 448.900247 1253.754443 442.720987 C1258.276904 438.463358 1262.854175 434.263895 1267.416186 430.048258 C1276.092822 422.030435 1284.593188 413.809244 1293.508350 406.065653 C1302.241382 398.480081 1311.379077 391.358865 1320.377612 384.081155 C1326.981738 378.740030 1333.409961 373.138651 1340.335742 368.246744 C1354.585132 358.181863 1368.143603 347.130716 1383.566211 338.714395 C1390.708789 334.816568 1396.834766 329.041055 1404.008960 325.219522 C1414.466968 319.648843 1425.367480 314.872659 1436.240405 310.126505 C1448.233203 304.891458 1460.366138 299.967813 1472.530688 295.142191 C1475.829883 293.833475 1479.435840 292.797342 1482.949878 292.623148 C1494.177051 292.066629 1505.615893 288.683328 1516.533130 294.238504 C1525.769092 298.938089 1533.459888 314.986978 1527.966113 325.832620 C1525.575244 330.552713 1526.077685 336.647196 1524.474902 341.874857 C1519.766650 357.231729 1514.548633 372.431680 1509.750171 387.761881 C1506.281299 398.844583 1503.158496 410.035623 1499.890674 421.181070 C1496.883838 431.436258 1493.733935 441.652933 1490.938281 451.965494 C1488.695605 460.237833 1486.965137 468.647562 1484.868701 476.961343 C1482.626758 485.851114 1480.385303 494.746805 1477.849780 503.555277 C1474.340259 515.748209 1470.773120 527.932901 1466.836719 539.992532 C1461.379077 556.713358 1455.803638 573.405130 1449.777881 589.926614 C1447.042041 597.427530 1443.380786 604.635599 1439.651782 611.719827 C1432.583423 625.148111 1425.396777 638.525858 1417.822803 651.673074 C1410.435718 664.495889 1402.698901 677.129068 1394.748950 689.611856 C1388.415454 699.556680 1381.551929 709.164957 1374.873340 718.888162 C1373.253711 721.246317 1371.367725 723.422098 1369.757129 725.785928 C1369.358935 726.370645 1369.558643 727.362589 1369.483569 728.167276 C1370.220508 728.135843 1371.023120 728.285684 1371.684375 728.045694 C1381.679736 724.418253 1391.522143 720.303568 1401.670581 717.180948 C1415.016284 713.074686 1428.480151 709.184854 1442.119067 706.253092 C1452.538501 704.013406 1463.345508 703.642252 1473.911182 701.996866 C1482.116870 700.719034 1490.181934 698.556253 1498.373950 697.166361 C1504.369434 696.149149 1510.466846 695.723306 1516.523730 695.079630 C1523.077685 694.383096 1529.623950 693.467813 1536.197925 693.147745 C1543.071948 692.813028 1549.994189 693.399637 1556.861255 692.999429 C1568.321826 692.331583 1579.743335 690.659036 1591.203662 690.400003 C1605.083301 690.086405 1618.987964 690.738992 1632.878345 691.102274 C1638.911426 691.260111 1644.968799 691.451395 1650.958057 692.130899 C1664.882983 693.710611 1678.880542 695.138345 1692.138354 700.104776 C1702.808154 704.101724 1712.969287 720.501383 1704.951221 731.527567 C1704.405444 732.278238 1704.130054 733.253519 1703.507129 733.915689 C1697.196948 740.624063 1690.973437 747.422281 1684.459888 753.929117 C1677.592212 760.789468 1670.572314 767.511514 1663.373096 774.022134 C1652.043628 784.268228 1640.995410 794.921304 1628.905688 804.200235 C1619.309863 811.564859 1608.353442 817.163370 1597.962817 823.483072 C1588.251880 829.389566 1578.587085 835.381754 1568.726489 841.029703 C1556.626147 847.960489 1544.456836 854.789224 1532.110156 861.267008 C1517.208423 869.085489 1502.242602 876.815225 1487.023608 883.987833 C1469.331836 892.325723 1451.363818 900.081827 1433.462939 907.970743 C1418.807666 914.429361 1404.114307 920.805826 1389.351123 927.012369 C1385.236865 928.742227 1380.799365 929.693521 1376.545947 931.109903 C1375.635669 931.412882 1374.881030 932.183267 1374.054858 932.738565 C1374.870532 933.183389 1375.710254 934.054239 1376.498462 934.009927 C1392.047168 933.137735 1406.449634 939.431314 1421.583423 941.228433 C1427.671680 941.951456 1433.501147 944.639200 1439.542773 946.019571 C1449.168506 948.219034 1458.858203 950.150308 1468.548755 952.052164 C1479.202319 954.143228 1489.973682 955.703775 1500.537158 958.166422 C1513.695727 961.233926 1526.733325 964.847940 1539.752368 968.479654 C1557.794482 973.512369 1575.109546 980.577432 1591.541797 989.450967 C1603.824145 996.083658 1615.572070 1004.078287 1623.084643 1016.228800 C1625.145801 1019.562540 1624.773486 1025.300455 1623.701221 1029.467569 C1621.954639 1036.255289 1616.401660 1040.791544 1611.945605 1046.112955 C1603.981860 1055.622842 1593.383960 1060.690347 1583.399097 1066.881021 C1579.266528 1069.443155 1574.315356 1070.655557 1569.822681 1072.673502 C1561.529590 1076.398721 1553.494311 1080.788858 1544.996020 1083.943765 C1533.709399 1088.133951 1522.196582 1091.829996 1510.574145 1094.973428 C1493.139209 1099.688760 1475.506396 1103.667642 1458.000293 1108.127359 C1453.982959 1109.150552 1450.223315 1111.205972 1446.197559 1112.172037 C1438.425586 1114.037027 1430.521533 1115.345499 1422.724902 1117.116617 C1417.890552 1118.214884 1413.185840 1119.875528 1408.362964 1121.034830 C1403.485400 1122.207437 1398.544360 1123.127725 1393.611987 1124.056802 C1389.112720 1124.904581 1384.589404 1125.625650 1380.073657 1126.384927 C1376.642261 1126.961954 1373.216968 1127.591715 1369.770068 1128.057535 C1359.657642 1129.424234 1349.541919 1130.770670 1339.414600 1132.019815 C1335.408740 1132.513712 1331.337817 1132.524210 1327.350757 1133.118814 C1320.485400 1134.142496 1313.700976 1135.828287 1306.810596 1136.530679 C1300.365649 1137.187662 1293.805591 1136.656168 1287.337085 1137.165933 C1282.813403 1137.522257 1278.357715 1138.748331 1273.872974 1139.592081 C1273.103198 1139.736734 1272.343555 1140.027384 1271.572070 1140.055582 C1261.711230 1140.415323 1251.850391 1140.781900 1241.987109 1141.062540 C1228.793140 1141.437906 1215.571704 1142.408487 1202.408252 1141.907877 C1184.935474 1141.243448 1167.509204 1139.376383 1150.052417 1138.179239 C1149.337573 1138.130289 1147.754565 1139.767618 1147.859790 1140.407999 C1149.058520 1147.699014 1150.510059 1154.948282 1151.885547 1162.210367 C1152.062060 1163.143228 1151.933520 1164.233560 1152.378345 1165.000528 C1157.572314 1173.956705 1158.772266 1183.514566 1156.889209 1194.072916 M943.889209 545.572916 C943.889209 540.522379 944.233569 535.442911 943.812427 530.427713 C943.089648 521.819620 942.052417 513.228494 940.840991 504.673624 C939.734790 496.861307 938.217334 489.107401 936.890918 481.326029 C935.882129 475.409097 934.804858 469.502176 933.910815 463.567789 C932.820117 456.329813 931.895312 449.066873 930.887256 441.816324 C930.011279 435.515726 929.467090 429.144327 928.163379 422.932840 C925.276294 409.176859 921.906177 395.522989 918.918872 381.787088 C916.353198 369.989603 914.555102 358.002176 911.492480 346.341654 C907.801685 332.289407 903.282031 318.446207 898.844775 304.601175 C894.936938 292.407938 890.685351 280.324075 886.514819 268.216104 C883.703174 260.053201 880.854053 251.900858 877.847827 243.808267 C876.617358 240.495645 874.960742 237.338175 873.442920 234.136209 C869.942920 226.752359 866.182544 219.482492 862.943042 211.986887 C858.240771 201.106455 854.903247 189.503793 849.119311 179.262094 C843.811694 169.863870 841.435413 159.704538 838.018726 149.828409 C833.217700 135.950449 829.456103 121.716562 824.975818 107.722696 C821.684802 97.443369 817.854297 87.337564 814.490771 77.080118 C813.660998 74.549661 814.009631 71.649179 813.303210 69.058786 C811.307849 61.742319 808.978015 54.517893 806.905322 47.221567 C803.860767 36.503763 801.586108 25.517282 794.911975 16.184274 C791.491443 11.401041 786.890918 10.794168 781.848437 13.435556 C774.920520 17.064554 772.545764 23.726724 770.014087 30.035440 C763.991138 45.043802 758.393420 60.234323 753.045032 75.498758 C747.124988 92.394754 741.620837 109.437662 736.034717 126.449136 C731.360217 140.684641 727.052295 155.044168 722.172839 169.207803 C716.903125 184.504434 710.950183 199.565958 705.692126 214.866403 C702.074573 225.393045 699.271350 236.196695 695.850146 246.794473 C692.438220 257.363687 688.393970 267.736490 685.222644 278.373087 C682.818469 286.436502 681.401782 294.791300 679.452563 302.994302 C676.642383 314.820352 673.496753 326.572550 670.951831 338.454324 C667.663196 353.808389 665.630847 369.475076 661.570727 384.608316 C657.390002 400.191080 656.874866 416.205911 653.917529 431.893900 C652.745166 438.113138 651.892505 444.392557 650.888415 450.643655 C649.558337 458.924295 647.890796 467.167520 646.976733 475.493631 C645.932178 485.008341 645.222278 494.587625 644.971484 504.154642 C644.638171 516.868387 644.633289 529.603922 644.954944 542.318277 C645.344470 557.714151 646.013538 573.110574 646.967273 588.481668 C647.542895 597.759378 648.459399 607.061197 649.990283 616.223856 C652.266772 629.849588 654.874438 643.442362 657.988208 656.899454 C661.032031 670.053873 664.897937 683.017740 668.382800 696.070596 C671.774097 708.772745 675.790576 721.295694 681.550098 733.106241 C687.984241 746.300211 695.103503 759.159342 701.873889 772.190592 C703.650684 775.610269 704.845019 779.396280 706.991809 782.547525 C712.778674 791.042154 718.920703 799.295450 724.949695 807.624307 C728.573962 812.631265 731.513965 818.448526 736.065295 822.400064 C744.102527 829.377969 750.975330 837.509073 761.097644 842.536905 C769.270618 846.596475 775.775073 854.407388 782.351062 861.201334 C793.236133 872.447305 806.149585 873.783975 820.260913 870.101236 C824.853381 868.902628 829.121570 866.505411 833.679675 865.123331 C847.426196 860.954630 858.934375 853.370035 867.390308 841.879923 C874.718921 831.921671 881.201343 821.329874 887.853076 810.887857 C892.704272 803.272623 897.378345 795.533853 901.834277 787.681680 C904.800220 782.455240 907.339893 776.977213 909.887744 771.526407 C911.711597 767.624674 913.231250 763.580606 914.889575 759.601358 C917.554736 753.206094 920.697681 746.961832 922.772876 740.380655 C925.574512 731.495828 927.603809 722.364420 929.873584 713.316080 C931.618335 706.360147 933.544116 699.427164 934.818408 692.380716 C937.071094 679.922952 939.047290 667.409219 940.841479 654.876260 C942.403857 643.962564 943.937915 633.018839 944.764575 622.034219 C945.392383 613.691873 944.889209 605.264383 944.889209 596.874796 C944.889209 588.318582 944.963672 579.761270 944.843188 571.206766 C944.807666 568.674234 943.947803 566.149820 943.944629 563.621072 C943.937183 557.771829 944.222583 551.922342 943.889209 545.572916 M635.889209 487.572916 C636.222522 483.551370 636.468188 479.520059 636.910876 475.510599 C637.488635 470.278116 637.908557 464.998819 638.958118 459.854288 C640.826404 450.697122 640.508289 442.173197 634.061084 434.652628 C632.680469 433.042215 631.708667 430.978372 630.924487 428.976175 C625.005054 413.863077 616.245715 400.273294 607.739123 386.614969 C600.173694 374.467691 591.516406 363.004801 583.493152 351.136942 C575.910327 339.920450 568.829578 328.442362 559.243213 318.605997 C552.984119 312.183634 548.481982 304.083109 542.831592 297.023355 C537.660571 290.562357 532.148425 284.356302 526.524036 278.280924 C520.131091 271.375467 513.404468 264.780130 506.899768 257.976480 C498.490771 249.181070 490.345447 240.124735 481.729480 231.539041 C475.493457 225.324869 468.599414 219.776834 462.139331 213.780313 C454.902881 207.063150 448.286365 199.593393 440.581470 193.483438 C424.767383 180.942819 408.375476 169.132669 392.283923 156.939340 C383.065723 149.954355 372.350207 146.411539 361.480151 143.201517 C358.745532 142.393961 352.832629 145.440622 351.911243 148.073282 C348.245959 158.545786 344.849048 169.154276 343.991687 180.252054 C343.181384 190.741495 342.868945 201.300333 342.976550 211.822122 C343.118701 225.721353 341.865771 239.644876 344.724170 253.519327 C346.310413 261.218607 345.860339 269.314066 346.967029 277.140604 C349.071948 292.025430 351.490649 306.870584 354.059985 321.683450 C355.748279 331.416422 357.690356 341.119913 359.946277 350.736368 C363.179797 364.520242 366.470264 378.307657 370.355395 391.916849 C374.126880 405.128397 378.554797 418.158731 382.925159 431.191202 C387.091663 443.615823 391.366016 456.011759 395.963245 468.281595 C398.552112 475.191202 401.921924 481.806192 404.882922 488.578897 C413.147754 507.483499 420.762866 526.704202 429.813159 545.224100 C438.033557 562.045877 447.276233 578.433328 457.059924 594.404825 C464.551807 606.635172 473.594714 617.914957 481.937244 629.625040 C485.601428 634.768228 489.203052 639.956278 492.897571 645.077432 C498.641406 653.039102 504.294055 661.072977 510.256946 668.868448 C516.295886 676.763162 522.643420 684.422830 528.897205 692.151895 C532.643909 696.782510 536.119067 701.708719 540.358142 705.844034 C544.686999 710.066812 549.949451 713.314066 554.532397 717.299661 C559.843310 721.918192 564.712451 727.045267 570.031543 731.653543 C583.609912 743.417398 597.403430 754.933267 610.954883 766.727457 C615.322009 770.528360 618.803760 775.416422 623.390124 778.881143 C633.069018 786.192789 643.140430 792.995279 653.180347 799.816080 C663.296374 806.688638 673.522143 813.403116 683.787952 820.050699 C692.702808 825.823648 701.728564 831.426065 710.731128 837.062540 C714.028186 839.126871 717.266711 841.351114 720.763171 843.017130 C728.964770 846.925333 737.413501 850.322305 745.558520 854.339029 C752.911975 857.965494 759.972583 862.183023 767.228564 866.014200 C768.058704 866.452432 769.315417 866.082681 770.374377 866.087686 C769.892810 865.262979 769.533740 864.322427 768.894824 863.646402 C768.267200 862.982217 767.400989 862.491861 766.561328 862.087686 C758.366443 858.142496 751.583667 852.415567 745.175769 846.021646 C741.110583 841.965128 736.239246 838.721231 731.774768 835.057535 C730.402393 833.931314 728.920764 832.799722 727.937671 831.363565 C724.935168 826.977823 722.320544 822.322550 719.247729 817.990030 C712.287768 808.176798 705.071277 798.545816 698.092090 788.745889 C688.235461 774.905801 682.066638 759.092935 674.267566 744.145059 C666.783496 729.800821 661.810046 714.539835 657.120227 699.269998 C652.096240 682.912027 648.532642 666.070902 645.007312 649.298685 C642.406055 636.923013 640.741748 624.340738 638.934192 611.810953 C637.383777 601.063699 635.415942 590.286356 635.065967 579.475931 C634.439014 560.110025 634.776172 540.708231 634.933337 521.323282 C635.021899 510.404581 635.555896 499.489603 635.889209 487.572916 M929.889209 751.572916 C927.222583 758.460977 924.499194 765.327799 921.910327 772.245035 C920.342700 776.433511 919.429492 780.925943 917.426440 784.878580 C914.409228 790.832437 910.861255 796.540567 907.232837 802.155313 C903.301318 808.239298 898.903979 814.020792 894.914355 820.069132 C887.759082 830.916544 880.741504 841.855264 873.732104 852.797891 C873.348315 853.397134 873.564868 854.380899 873.501880 855.185465 C874.407886 855.147989 875.574512 855.460733 876.175952 855.013712 C879.139697 852.810709 881.711108 849.987467 884.870166 848.158975 C891.689136 844.212198 898.800220 840.772501 905.757129 837.060587 C909.995044 834.799478 914.159106 832.400308 918.377490 830.102091 C919.593433 829.439493 920.965259 829.041055 922.125659 828.301920 C928.990161 823.928262 935.646899 819.198892 942.701343 815.161905 C948.709155 811.723917 955.496509 809.592691 961.325854 805.912393 C968.404834 801.443155 975.051074 796.206094 981.475024 790.813272 C985.305225 787.597940 987.725268 782.390543 991.877368 779.936685 C1000.351855 774.928262 1005.952197 766.979898 1013.401782 761.010050 C1014.386645 760.220743 1015.072681 759.056314 1015.888354 758.058511 C1021.078540 751.709146 1026.026050 745.140299 1031.522143 739.067911 C1037.068896 732.939554 1043.588306 727.664285 1048.898364 721.355997 C1055.010059 714.095377 1060.691455 706.385294 1065.798144 698.384378 C1075.774951 682.753336 1085.474902 666.931314 1094.802417 650.904886 C1101.253955 639.819864 1106.946948 628.289713 1112.868823 616.901163 C1116.785571 609.368448 1120.650195 601.801737 1124.279712 594.128092 C1128.626636 584.937967 1133.113940 575.777445 1136.758350 566.303323 C1139.695605 558.667642 1141.641406 550.629495 1143.715381 542.688577 C1145.961719 534.087930 1147.960376 525.417764 1149.850513 516.730753 C1151.189136 510.579447 1152.008227 504.315103 1153.344165 498.163187 C1155.397143 488.708231 1157.938403 479.354837 1159.829272 469.869974 C1162.355395 457.197855 1164.570117 444.460001 1166.704028 431.714456 C1168.276904 422.319193 1169.554370 412.873026 1170.864307 403.435770 C1171.351001 399.928446 1171.362476 396.350931 1171.924487 392.859171 C1173.832324 381.006265 1175.913257 369.181314 1177.877734 357.337381 C1178.708179 352.331094 1179.377856 347.298380 1180.184009 342.287882 C1181.389697 334.795511 1182.798267 327.332681 1183.844165 319.818765 C1184.729297 313.458780 1185.090503 307.026956 1185.920459 300.657816 C1187.131885 291.361002 1188.780688 282.117105 1189.823657 272.803629 C1190.796924 264.114176 1190.808887 255.307413 1191.981738 246.652261 C1193.979785 231.906900 1196.590381 217.245157 1198.878955 202.538248 C1200.927539 189.374429 1202.927783 176.202738 1204.878589 163.024088 C1206.926074 149.193063 1209.064258 135.371378 1210.793506 121.499551 C1211.393726 116.683908 1210.889209 111.730570 1210.889209 106.840097 C1210.889209 103.116281 1211.722217 99.108530 1210.585010 95.772379 C1209.872851 93.683267 1206.377612 91.829965 1203.812671 91.227976 C1197.744189 89.803659 1193.082202 93.533487 1187.981006 96.261057 C1178.613452 101.269907 1170.586719 107.922861 1162.700976 114.820718 C1157.526904 119.346445 1152.649951 124.210123 1147.584766 128.862344 C1140.131274 135.708109 1132.579028 142.447183 1125.167895 149.338113 C1121.550586 152.701547 1118.108325 156.258646 1114.671313 159.809793 C1106.392017 168.363840 1098.169971 176.973215 1089.907764 185.543588 C1087.961475 187.562448 1085.691333 189.322733 1084.019336 191.540628 C1080.993945 195.553873 1078.470264 199.944956 1075.448779 203.961374 C1064.918872 217.958688 1054.153125 231.779581 1043.697070 245.831278 C1036.244678 255.846292 1028.869556 265.940714 1021.960498 276.332498 C1013.659351 288.818399 1005.759326 301.577921 997.937915 314.373209 C993.248462 322.045023 988.741992 329.861124 984.705249 337.889932 C981.044726 345.169901 978.512622 353.020426 974.805347 360.272928 C968.246020 373.104532 962.735278 386.270853 958.820972 400.168619 C954.795581 414.460245 950.252734 428.606851 945.878955 442.799234 C942.711352 453.077738 945.096851 463.188760 946.652026 473.330362 C947.708423 480.219705 948.936694 487.085428 949.851611 493.993021 C950.694873 500.360025 950.483569 506.956155 952.045093 513.119852 C955.169604 525.452371 956.208423 537.885904 955.856006 550.501077 C955.729297 555.035379 954.906421 559.562662 954.957568 564.086832 C955.052783 572.508524 955.871020 580.927530 955.820605 589.344217 C955.728442 604.707437 955.640308 620.092691 954.738696 635.420999 C954.161792 645.229654 952.470142 655.016336 950.667041 664.699014 C948.028613 678.867655 944.777515 692.920999 941.907153 707.047769 C938.901904 721.837381 935.955981 736.633096 929.889209 751.572916 M837.389209 1251.072916 C845.340320 1254.406290 853.440845 1257.429239 861.198535 1261.164224 C868.306811 1264.586588 874.929370 1269.008707 881.991382 1272.539468 C885.958423 1274.522867 890.320727 1275.811807 894.616016 1277.017984 C900.165088 1278.576212 905.777148 1280.011148 911.448169 1281.010416 C920.351001 1282.579141 929.334888 1283.681925 938.266528 1285.095621 C943.239551 1285.882852 948.143970 1287.184488 953.136523 1287.749796 C961.795459 1288.730264 970.488940 1289.708780 979.187060 1289.926676 C984.388965 1290.057047 989.637866 1288.813394 994.846118 1288.053018 C1000.637134 1287.207437 1006.441699 1286.387613 1012.176929 1285.239664 C1023.536670 1282.965982 1034.771899 1279.938150 1046.207812 1278.211099 C1059.944751 1276.136514 1071.326709 1269.414835 1082.490161 1261.950967 C1090.853076 1256.359781 1099.273364 1250.839273 1107.419238 1244.943399 C1114.024097 1240.162637 1121.537768 1235.840128 1126.311816 1229.542886 C1131.488086 1222.715006 1134.894458 1214.112222 1137.353320 1205.776163 C1139.929248 1197.042886 1141.300098 1187.737467 1141.629077 1178.625406 C1141.901294 1171.088419 1140.229663 1163.403116 1138.778979 1155.907510 C1137.666553 1150.159464 1136.234302 1144.282877 1133.743335 1139.033243 C1129.040454 1129.121744 1123.428760 1119.643839 1118.287158 1109.936929 C1116.267505 1106.123941 1115.023364 1101.789468 1112.498462 1098.379190 C1107.706103 1091.906290 1102.530810 1085.658365 1096.995654 1079.807901 C1088.430957 1070.755289 1079.679370 1061.846597 1070.540942 1053.379801 C1062.496265 1045.926431 1053.889331 1039.068887 1045.390796 1032.119302 C1035.466357 1024.003580 1025.359790 1016.111124 1015.389331 1008.051187 C1007.633105 1001.781290 1000.012256 995.343546 992.243091 989.089884 C984.644214 982.973062 976.941577 976.984659 969.269214 970.959634 C964.623462 967.311319 960.158984 963.382852 955.248340 960.130777 C938.412158 948.980142 921.376636 938.131143 904.493945 927.049967 C895.038257 920.843668 885.771045 914.350992 876.347705 908.094522 C871.013476 904.552896 865.609302 901.102823 860.092456 897.856119 C857.113574 896.103189 854.186694 895.324014 853.816943 900.577921 C853.656055 902.862467 852.941333 905.185831 852.077197 907.330118 C847.417285 918.894083 842.558704 930.378214 837.908801 941.946207 C832.840747 954.554361 823.850635 964.564737 816.087939 975.396402 C813.063098 979.617349 809.761706 983.718057 807.335132 988.272257 C803.207812 996.018594 799.690234 1004.088785 795.879565 1012.005045 C794.607471 1014.647745 793.220447 1017.235147 791.889819 1019.849649 C788.878772 1025.766397 786.157214 1031.856729 782.749866 1037.535562 C780.787585 1040.805826 777.433032 1043.210489 775.208850 1046.360513 C771.331226 1051.852335 767.220203 1057.322183 764.346851 1063.345010 C760.646106 1071.101968 758.317248 1079.500284 754.948535 1087.431680 C749.696399 1099.797769 746.821704 1112.516397 747.900684 1125.992227 C748.156909 1129.192545 748.415881 1132.403360 748.917041 1135.570963 C750.125964 1143.211832 750.342273 1151.258218 753.019092 1158.365030 C758.017139 1171.634561 762.367908 1185.411539 771.854907 1196.536783 C779.625293 1205.649210 786.761340 1215.423624 795.357165 1223.677164 C804.206103 1232.173746 814.114368 1239.690469 825.367419 1245.096719 C829.129993 1246.904215 832.720203 1249.070596 837.389209 1251.072916 M83.389209 588.072916 C82.699145 587.739542 82.039966 587.300516 81.314441 587.088419 C63.832172 581.977213 45.802692 581.518167 27.812076 581.253641 C24.159763 581.199930 19.935382 582.694986 16.909412 584.812051 C9.540469 589.967325 11.356921 597.392618 13.736819 604.358133 C20.491275 624.126871 31.252383 641.893900 42.040393 659.603922 C44.843280 664.205240 48.491275 668.306009 51.887988 672.526529 C54.232074 675.439066 57.310214 677.863382 59.201648 681.020303 C68.458972 696.471353 82.522021 707.642313 94.303821 720.828592 C99.440021 726.577127 105.740253 731.270670 111.071124 736.863382 C120.138599 746.376383 130.171405 754.571695 141.502948 761.223428 C146.079913 763.910196 150.713885 766.575601 154.957965 769.739053 C165.187488 777.363687 175.117175 785.389932 185.323840 793.046182 C200.574390 804.485880 218.119647 811.940958 234.726581 821.013956 C243.659259 825.894205 252.844531 830.334879 262.057513 834.673013 C271.250384 839.001871 280.505603 843.244058 289.946002 846.988321 C298.682483 850.453287 308.144458 852.329996 316.464984 856.533121 C324.279285 860.480631 332.336688 863.468790 340.565784 865.959634 C355.116748 870.364053 369.858935 874.145914 384.558765 878.046549 C393.886035 880.521524 403.235339 882.953287 412.663928 884.992227 C418.249744 886.200357 424.067615 886.312418 429.678393 887.432047 C443.465991 890.183511 456.997424 894.616617 471.418384 892.139932 C477.629443 891.073160 483.954883 890.587076 490.249255 890.114053 C497.096179 889.599283 503.965686 889.200601 510.828601 889.144083 C515.519824 889.105509 520.264087 890.330484 524.901904 889.958902 C537.374011 888.959390 549.776477 886.779947 562.255176 886.278726 C571.602100 885.903238 581.019885 887.868936 590.414172 887.959634 C603.102649 888.082315 615.797839 887.203531 628.491992 887.143961 C637.017261 887.104044 645.544665 887.772745 654.074023 888.025186 C655.002429 888.052652 655.950305 887.422403 656.889209 887.097330 C656.271289 886.422525 655.781543 885.475015 655.015674 885.115030 C647.068347 881.379923 638.966052 877.959268 631.125842 874.015909 C621.868274 869.359781 612.320789 865.016763 603.803088 859.211343 C588.866504 849.031046 574.732471 837.681680 560.037158 827.135538 C551.897937 821.294229 542.917590 816.584879 535.020557 810.457803 C527.050952 804.274454 519.681628 797.239908 512.527270 790.099527 C497.166003 774.768350 482.090747 759.150064 466.950915 743.598428 C463.994983 740.561929 461.051013 737.465860 458.488818 734.102457 C448.376758 720.827921 438.521350 707.357156 428.344409 694.133402 C425.096423 689.913065 420.895312 687.204691 415.288989 685.820902 C409.107165 684.295084 403.329639 680.974527 397.515124 678.149393 C384.885364 672.012979 372.598010 665.099466 359.704089 659.596964 C342.576221 652.287637 325.065601 645.854044 307.602740 639.357889 C293.299060 634.036905 278.849872 629.101419 264.413074 624.146890 C258.854785 622.239420 253.205524 620.538980 247.504962 619.115701 C234.346271 615.830423 221.163928 612.624674 207.929645 609.661356 C192.955859 606.308511 177.992511 602.801798 162.878345 600.217264 C150.888934 598.167093 138.676105 597.431802 126.569354 596.052164 C124.064593 595.766702 121.421252 595.632730 119.132983 594.708109 C111.877216 591.776407 104.301257 591.462869 96.652728 590.944742 C92.519000 590.664713 88.474139 589.072916 83.389209 588.072916 M1214.389087 500.072855 C1209.327197 506.468179 1204.356616 512.938638 1199.180469 519.240152 C1192.475757 527.402689 1186.925220 536.279398 1183.371631 546.195780 C1179.153613 557.966592 1175.622363 569.981546 1171.591968 581.822122 C1168.712085 590.282083 1165.814502 598.760904 1162.357959 606.993265 C1157.827075 617.784525 1152.877124 628.407694 1147.847217 638.979349 C1143.470386 648.178507 1139.171924 657.462930 1134.037891 666.241190 C1128.113208 676.371439 1121.165698 685.897501 1114.931201 695.854288 C1109.068652 705.217386 1103.885669 715.018167 1097.787158 724.217569 C1092.695361 731.898416 1086.843555 739.093668 1081.072192 746.298868 C1077.716846 750.487711 1073.935229 754.347696 1070.203418 758.218912 C1065.712939 762.877115 1061.195850 767.523111 1056.463916 771.931436 C1050.866870 777.145914 1044.039722 781.353677 1039.516650 787.336710 C1032.011401 797.264078 1021.509204 803.343179 1012.233935 810.915689 C1004.011523 817.628458 994.617236 822.913980 985.687915 828.749796 C979.800586 832.597330 974.227222 837.317545 967.809131 839.890299 C944.919604 849.065592 922.389209 859.308756 898.290454 865.204508 C892.264331 866.678629 886.326831 868.511636 880.331470 870.115396 C876.422046 871.161295 872.510669 872.235391 868.547168 873.033243 C864.358813 873.876260 860.070483 874.241251 855.908008 875.179605 C854.751758 875.440347 853.887378 876.995401 852.889209 877.956705 C854.281421 878.328775 855.692554 879.081339 857.062793 879.013101 C868.291553 878.452799 879.512500 877.738321 890.736133 877.073770 C894.860156 876.829385 899.020312 876.854654 903.101855 876.300211 C912.366748 875.041422 921.588672 873.469888 930.836475 872.081094 C940.416919 870.642740 950.005908 869.262125 959.593799 867.874551 C962.275561 867.486368 964.980029 867.241251 967.650928 866.793375 C974.809009 865.592813 982.021899 864.610880 989.086597 862.990640 C996.176929 861.364542 1003.159961 859.214884 1010.097827 857.005289 C1013.008227 856.078409 1015.671802 854.386148 1018.463794 853.076456 C1030.324756 847.512247 1042.337207 842.247232 1054.012744 836.318277 C1064.096973 831.197550 1073.788745 825.305948 1083.676074 819.794595 C1096.400806 812.701456 1109.419482 806.088907 1121.811694 798.458048 C1135.307788 790.147379 1148.346240 781.072550 1161.374194 772.028360 C1175.525806 762.204141 1189.551562 752.188272 1203.411304 741.956827 C1212.926318 734.932718 1221.715991 726.887796 1231.465869 720.230875 C1241.782886 713.186807 1251.108203 705.138040 1260.013232 696.481302 C1263.881885 692.720621 1268.193652 689.384927 1271.821460 685.415201 C1276.368579 680.439676 1280.260059 674.869608 1284.733081 669.820657 C1288.566699 665.493448 1293.162524 661.819925 1296.826953 657.368143 C1309.164966 642.379678 1321.215747 627.155008 1333.427783 612.062296 C1336.482837 608.286783 1339.952197 604.832071 1342.843921 600.941995 C1349.258105 592.313760 1354.934985 583.092325 1361.808520 574.861063 C1372.643970 561.885050 1383.874194 549.302103 1392.198657 534.417459 C1395.115283 529.202676 1399.396777 524.770364 1402.649219 519.719461 C1406.773242 513.315347 1409.896289 506.196878 1414.486865 500.176431 C1426.577197 484.320047 1434.761890 466.209940 1444.835254 449.199747 C1452.261645 436.658731 1459.340381 423.904398 1466.291186 411.091654 C1471.074512 402.274393 1475.925098 393.423563 1479.765918 384.180582 C1486.270312 368.528238 1494.065478 353.939249 1505.763110 341.360330 C1511.112109 335.608438 1514.893237 328.278970 1518.767993 321.321207 C1521.065967 317.194803 1517.298022 309.247842 1513.469043 305.989359 C1505.460864 299.174173 1496.613086 303.387735 1488.092944 303.421671 C1485.737964 303.431070 1483.232226 303.672464 1481.058643 304.499124 C1471.272632 308.221109 1461.675098 312.450784 1451.835010 316.014871 C1435.325000 321.994852 1419.858691 330.024515 1404.897510 339.093790 C1395.555347 344.756937 1386.117358 350.304544 1377.122607 356.486429 C1367.569995 363.051737 1358.506274 370.326883 1349.198169 377.250406 C1342.965259 381.886514 1336.583911 386.327676 1330.440967 391.078592 C1323.460498 396.477213 1316.637866 402.082315 1309.809619 407.674844 C1303.694263 412.683634 1297.559131 417.677347 1291.625171 422.896463 C1284.880664 428.828531 1278.245898 434.894876 1271.752856 441.100931 C1263.966724 448.542825 1256.361865 456.174967 1248.713428 463.759988 C1242.106982 470.311807 1235.420093 476.789957 1229.012012 483.531778 C1224.107593 488.691812 1219.582812 494.212564 1214.389087 500.072855 M691.889209 1090.572916 C701.034473 1084.094278 710.279529 1077.751260 719.303760 1071.108072 C736.562060 1058.402994 752.737231 1044.526895 767.140002 1028.522134 C777.818713 1016.655557 784.434070 1002.345499 792.819568 989.102945 C794.690112 986.149088 795.227466 982.335001 797.161853 979.440469 C803.296924 970.259805 810.063281 961.496500 816.088428 952.247842 C821.687060 943.653970 827.492419 935.021890 831.652637 925.712076 C835.849170 916.320963 837.910083 905.996744 841.357349 896.240396 C842.943896 891.750528 840.358630 890.942423 837.315417 890.091470 C832.379016 888.711221 827.440784 887.312906 822.446765 886.169473 C814.802173 884.419229 806.806018 881.865762 799.346362 885.338419 C786.610278 891.267008 774.342273 898.196085 761.830127 904.612100 C747.128528 912.150675 732.409656 919.657144 717.633105 927.047159 C709.223010 931.253092 700.693164 935.220743 692.197986 939.255167 C683.148669 943.552896 674.180347 948.043863 664.982165 951.998087 C657.348926 955.279337 649.399097 957.816324 641.652515 960.844156 C634.054065 963.814493 626.509631 966.927896 618.987720 970.088297 C609.619922 974.024332 600.231921 977.923990 590.979663 982.119425 C583.396838 985.557779 575.988391 989.382974 568.524646 993.081217 C563.682788 995.480386 558.717578 997.686929 554.089648 1000.451578 C538.308337 1009.879312 522.595081 1019.423990 506.964343 1029.099283 C491.957568 1038.388345 477.046802 1047.834512 462.166675 1057.325845 C449.365466 1065.491251 436.635364 1073.769449 423.934131 1082.089761 C415.267078 1087.767374 406.574878 1093.421915 398.130420 1099.419840 C389.836108 1105.310465 381.951709 1111.777139 373.676929 1117.696939 C367.567798 1122.067301 361.026355 1125.829630 354.857593 1130.121622 C350.920215 1132.861246 347.444080 1136.260294 343.530505 1139.038736 C330.050677 1148.610025 317.295154 1159.053873 306.814563 1171.866983 C301.924640 1177.845010 303.096423 1183.171915 310.578509 1184.975504 C316.714069 1186.454508 323.028247 1187.633341 329.314197 1187.957926 C342.987353 1188.663858 356.692126 1188.794595 370.386279 1189.020303 C372.741626 1189.059244 375.103137 1188.170206 377.470691 1188.118692 C383.690295 1187.982950 389.963367 1188.564737 396.125659 1187.955484 C404.950305 1187.082926 413.687976 1184.364176 422.476245 1184.300943 C438.291431 1184.186685 453.343982 1180.036173 468.455371 1176.686441 C485.653857 1172.874185 502.460620 1167.227823 519.336719 1162.050089 C531.734973 1158.246256 544.454394 1155.706705 556.475146 1150.330240 C567.409717 1145.439737 579.423816 1143.024088 590.629565 1138.662882 C603.820239 1133.529215 616.783130 1127.753214 629.602649 1121.739664 C641.340198 1116.233682 652.718860 1109.967203 664.324206 1104.173135 C673.290942 1099.696329 682.363635 1095.431802 691.889209 1090.572916 M955.389209 904.072794 C944.974658 903.739542 934.551929 903.558267 924.149463 903.001016 C919.736133 902.764810 915.366504 901.192667 910.974658 901.182047 C900.506274 901.156656 890.523486 898.706827 880.481250 896.269205 C878.754321 895.850015 876.760059 896.532633 874.889209 896.706339 C876.196704 897.969278 877.500415 899.236246 878.815112 900.491739 C879.043872 900.710245 879.300830 900.912271 879.575000 901.068399 C893.331592 908.893839 907.258105 916.438028 920.798511 924.621011 C931.793140 931.265176 942.524707 938.393472 953.007617 945.822550 C964.165210 953.729898 974.745898 962.448160 985.849536 970.435587 C997.273608 978.653360 1007.377002 988.702066 1021.358813 993.343668 C1030.796191 996.476602 1039.218433 1002.630289 1048.629443 1005.887857 C1067.386768 1012.380533 1086.154712 1018.988321 1105.920215 1022.155924 C1119.883350 1024.393717 1133.688281 1027.601846 1147.625049 1030.024576 C1166.013599 1033.221231 1184.446216 1036.175089 1202.894824 1039.006998 C1208.015308 1039.793009 1213.288867 1039.537882 1218.439258 1040.182779 C1227.418018 1041.306802 1236.323169 1043.076334 1245.318408 1043.996378 C1258.039111 1045.297647 1270.802905 1046.697672 1283.567798 1046.917276 C1300.114062 1047.201944 1316.428760 1050.293253 1332.991138 1050.146158 C1341.848804 1050.067423 1350.723437 1050.576944 1359.570727 1051.133096 C1364.981372 1051.473306 1370.340381 1052.727335 1375.749560 1052.969278 C1379.921191 1053.155924 1384.136523 1052.119669 1388.329272 1052.145426 C1393.583179 1052.177530 1398.836719 1053.013467 1404.084888 1052.960367 C1406.814990 1052.932657 1409.903735 1050.555216 1412.194751 1051.271646 C1424.024219 1054.971842 1436.043872 1052.258951 1447.931079 1052.988443 C1451.425830 1053.203043 1454.977588 1052.203653 1458.512012 1052.117227 C1464.898364 1051.960855 1471.320972 1052.470377 1477.675098 1051.992227 C1491.974536 1050.916177 1506.220752 1049.076700 1520.528369 1048.187784 C1530.214160 1047.586099 1539.975146 1048.303873 1549.687793 1047.985391 C1555.426929 1047.797281 1561.160693 1046.893350 1566.856006 1046.039468 C1577.182666 1044.491007 1587.531665 1043.007486 1597.770435 1040.984903 C1605.426562 1039.472574 1610.647266 1034.174356 1612.662036 1026.961710 C1614.094897 1021.832437 1609.778247 1017.905679 1606.071582 1014.905313 C1598.772143 1008.996744 1590.824512 1004.182291 1582.510303 999.578409 C1568.249072 991.681558 1553.258716 986.319864 1537.885181 981.670206 C1528.217212 978.746134 1518.338794 976.502481 1508.518726 974.101236 C1502.442187 972.615396 1496.312793 971.332193 1490.180469 970.089761 C1480.328052 968.093301 1470.409351 966.405313 1460.600391 964.219888 C1449.349658 961.713052 1438.236377 958.582681 1426.973560 956.137857 C1416.368335 953.835611 1405.653491 952.032388 1394.973437 950.083292 C1381.948901 947.706339 1368.936816 945.242227 1355.869067 943.126260 C1345.965747 941.522989 1335.993091 940.330850 1326.034473 939.090982 C1312.068042 937.352335 1298.124683 935.097452 1284.099780 934.255045 C1270.325244 933.427774 1256.522388 933.854532 1242.830981 931.204263 C1234.048022 929.503946 1225.022632 929.043253 1216.100268 928.080118 C1203.489795 926.718546 1190.873462 925.411539 1178.261035 924.068033 C1175.916675 923.818399 1173.576099 923.260416 1171.238574 923.285440 C1168.186572 923.318277 1165.115649 924.178995 1162.095019 923.993692 C1155.356006 923.580484 1148.645679 922.716837 1141.919238 922.081583 C1137.895312 921.701456 1133.804858 921.729776 1129.845996 921.012979 C1117.440234 918.767130 1105.129932 916.165689 1092.411426 915.932169 C1086.785083 915.829019 1081.197314 914.127481 1075.573291 913.274942 C1065.993823 911.822916 1056.407764 909.395914 1046.809863 909.324381 C1032.435107 909.217081 1018.302661 906.996256 1004.048267 906.247598 C988.173999 905.413614 972.191455 906.816202 955.389209 904.072794 M597.389209 900.072916 C596.694263 899.739542 596.009936 899.141031 595.302844 899.112955 C585.444995 898.720377 575.565662 897.874063 565.728870 898.215006 C554.790210 898.594156 543.907581 900.509317 532.967822 900.957071 C520.657275 901.460733 508.310290 901.072916 495.979114 901.072916 C493.812854 901.072916 491.610278 900.816080 489.486377 901.116007 C478.332446 902.690592 467.196521 904.393106 456.058215 906.077676 C448.693957 907.191202 441.270740 908.038492 433.994739 909.576822 C427.178332 911.017740 420.585681 913.502969 413.779773 915.010416 C400.767810 917.892374 387.657581 920.327066 374.620166 923.098062 C364.228870 925.306680 353.877063 927.704752 343.527515 930.103922 C341.587085 930.553751 339.787707 931.652994 337.841418 932.029581 C329.952319 933.556192 322.045154 935.001627 314.118030 936.316812 C305.985706 937.666055 297.812854 938.769937 289.676013 940.093546 C284.237414 940.978067 278.724689 941.675821 273.434100 943.139932 C264.952777 945.486856 256.682422 948.588052 248.223956 951.027384 C236.444018 954.424722 224.555591 957.443643 212.745441 960.738809 C200.655444 964.111734 188.549182 967.444376 176.552631 971.128824 C166.822009 974.117471 157.373309 978.081461 147.562213 980.735391 C136.869830 983.627481 126.793353 987.748575 117.196796 993.137979 C115.842425 993.898721 114.979571 995.534586 113.889209 996.765421 C115.274524 997.867960 116.552631 999.742716 118.061847 999.952066 C131.564044 1001.825845 145.096149 1003.502603 158.643207 1005.026163 C164.138782 1005.644205 169.750354 1005.348795 175.209613 1006.148721 C189.606586 1008.258096 203.929889 1010.867960 218.323260 1013.004434 C223.453998 1013.766153 228.757831 1013.368692 233.885303 1014.144083 C247.947375 1016.271158 261.908130 1019.120889 276.003802 1020.956339 C288.013934 1022.520426 300.140918 1023.353189 312.243487 1023.996011 C324.975360 1024.672525 337.741016 1025.021280 350.489246 1024.960245 C357.381580 1024.927286 364.254932 1023.481729 371.160266 1023.124674 C387.206164 1022.295206 403.290637 1022.080362 419.310290 1020.930826 C427.455066 1020.346475 435.529590 1018.456827 443.568774 1016.826700 C450.125598 1015.497110 456.552112 1013.535928 463.091052 1012.104166 C474.264270 1009.657633 485.502551 1007.507242 496.671741 1005.043253 C507.029712 1002.758218 517.710803 1001.240396 527.573962 997.569376 C543.279651 991.723795 558.536304 984.613565 573.768848 977.574991 C584.835010 972.461832 595.249988 965.851846 606.505298 961.256509 C621.617541 955.086588 637.513965 950.833292 652.611255 944.631387 C671.691699 936.793131 690.337817 927.889932 709.108691 919.309122 C717.661792 915.399332 725.982226 910.977091 734.561633 907.129434 C741.861438 903.855875 749.398364 901.113687 756.780994 898.018594 C757.644702 897.656412 758.194141 896.544595 758.889209 895.780313 C757.860889 895.544595 756.772937 894.969156 755.815662 895.137369 C753.060290 895.621744 750.385913 896.810220 747.629443 897.002847 C735.752490 897.833292 723.864429 898.597818 711.967456 899.024576 C697.058276 899.559122 682.135974 900.020670 667.220081 900.000162 C649.470386 899.975748 631.722400 899.310709 613.971545 899.132120 C608.781116 899.079874 603.583545 899.739542 597.389209 900.072916 M1222.389209 870.072916 C1216.967212 873.072916 1211.641406 876.267008 1206.095386 879.016519 C1200.860522 881.611856 1195.374438 883.696939 1190.057300 886.133707 C1189.471606 886.402017 1189.269336 887.507364 1188.889209 888.224527 C1189.537036 888.507364 1190.260059 889.135050 1190.819751 889.012979 C1193.239795 888.486002 1195.604053 887.709146 1198.003101 887.078409 C1205.667773 885.063516 1213.282519 882.812784 1221.022266 881.142252 C1229.641650 879.281900 1238.483203 878.391153 1247.035937 876.294962 C1258.769092 873.419473 1270.295459 869.710611 1281.958545 866.536173 C1295.148730 862.946207 1308.394702 859.561563 1321.611987 856.070718 C1337.980029 851.747354 1354.367480 847.495401 1370.700122 843.042642 C1382.357226 839.864664 1393.939746 836.413126 1405.551929 833.070841 C1414.780078 830.414835 1423.959766 827.578043 1433.238696 825.113809 C1444.818896 822.038370 1456.596118 819.657877 1468.071826 816.248575 C1479.888599 812.737955 1491.445605 808.353067 1503.114795 804.346475 C1516.825854 799.638834 1530.603320 795.114176 1544.227466 790.167398 C1559.859424 784.491983 1575.347949 778.422159 1590.914233 772.564737 C1595.096973 770.990884 1599.356738 769.622598 1603.544849 768.062051 C1615.090259 763.760050 1626.696460 759.605753 1638.123828 755.007974 C1646.831714 751.504434 1655.107593 746.862833 1663.930835 743.726236 C1674.203296 740.074381 1683.474658 734.939493 1692.079028 728.395242 C1694.217700 726.768717 1697.977222 726.179361 1696.418628 722.165689 C1695.361743 719.444132 1694.548999 715.673685 1692.442920 714.503641 C1687.382129 711.692301 1681.774585 709.412454 1676.113696 708.236368 C1666.794726 706.300272 1657.293140 705.038187 1647.806445 704.167154 C1636.232715 703.104532 1624.591357 702.143961 1612.985767 702.216043 C1596.597705 702.317789 1580.218921 703.509622 1563.829639 704.028787 C1555.783496 704.283670 1547.712085 703.821695 1539.671680 704.155130 C1533.599536 704.406839 1527.557910 705.401285 1521.503589 706.074136 C1515.452930 706.746500 1509.390430 707.331644 1503.356128 708.129312 C1491.370044 709.713785 1479.401904 711.432596 1467.422168 713.065653 C1462.836963 713.690653 1458.181201 713.945780 1453.662524 714.878214 C1446.341601 716.388956 1439.141284 718.479715 1431.827930 720.033426 C1422.150928 722.089395 1412.287768 723.382242 1402.735889 725.885538 C1391.688769 728.780679 1380.791186 732.349222 1370.025195 736.177713 C1363.310351 738.565592 1356.868945 741.284952 1352.338061 747.842325 C1345.456470 757.801798 1337.811816 767.296426 1329.850146 776.429605 C1321.930347 785.514810 1313.289111 793.979288 1304.821582 802.575357 C1301.170337 806.282266 1297.169849 809.646524 1293.310596 813.147134 C1286.310229 819.496866 1279.391894 825.941812 1272.254565 832.133951 C1267.667163 836.113809 1262.746387 839.708902 1257.980640 843.483316 C1253.108203 847.342203 1248.344653 851.347818 1243.348560 855.038858 C1236.621509 860.008951 1229.717334 864.739542 1222.389209 870.072916 z"
  />
</svg>
