<?xml version="1.0" encoding="utf-8" ?>
<!DOCTYPE svg PUBLIC "-//W3C//DTD SVG 1.1//EN" "http://www.w3.org/Graphics/SVG/1.1/DTD/svg11.dtd">
<svg
  version="1.1"
  id="Contours"
  xmlns="http://www.w3.org/2000/svg"
  xmlns:xlink="http://www.w3.org/1999/xlink"
  x="0px"
  y="0px"
  width="763.929443px"
  height="763.929443px"
  viewBox="-0.000013 -0.000011 763.929443 772.467651"
  enable-background="new 0 0 763.929443 763.929443"
  xml:space="preserve"
  fill="none"
  stroke-linecap="round"
  stroke-linejoin="round"
>
  <animate
    attributeName="opacity"
    dur="8s"
    keyTimes="0;0.05625;0.06875;0.125;1"
    values="0;1;1;0;0"
    repeatCount="indefinite"
    begin="3s"
  />
  <!-- <animateTransform -->
  <!--   xmlns="http://www.w3.org/2000/svg" -->
  <!--   attributeName="transform" -->
  <!--   type="rotate" -->
  <!--   begin="0s" -->
  <!--   dur="1s" -->
  <!--   repeatCount="indefinite" -->
  <!--   values="0;5;-5;5;-5;0" -->
  <!--   keyTimes="0;0.2;0.4;0.6;0.8;1" -->
  <!-- /> -->
  <path
    class="selected"
    fill="#ffb6c1"
    opacity="1.000000"
    stroke="none"
    d="
M6.947096 497.241924 C5.613722 489.627911 3.678968 482.564373 3.077101 475.388958 C1.957228 462.037151 1.564955 448.622356 0.963819 435.229595 C0.543775 425.871990 -0.260851 416.487408 0.083570 407.150982 C0.517897 395.378277 1.093275 383.490582 3.147047 371.925884 C6.232252 354.553143 10.226209 337.307415 14.636427 320.214825 C18.498854 305.245281 22.962110 290.382061 28.126539 275.814495 C31.509168 266.272930 36.393568 257.229961 40.998182 248.163250 C48.138441 234.103619 55.034498 219.867474 63.120191 206.356060 C70.306166 194.348064 78.645460 182.980511 87.071302 171.778301 C95.372145 160.742046 104.036390 149.923626 113.253126 139.648235 C121.882093 130.028057 130.771620 120.414898 140.772108 112.311138 C152.326124 102.948589 161.817457 91.321270 175.297621 83.921795 C188.891432 76.459881 200.822035 66.030804 214.078810 57.872601 C224.840589 51.249798 236.413160 45.915508 247.762953 40.285564 C258.256239 35.080578 268.657423 29.509075 279.593824 25.422924 C294.051954 20.020947 308.893507 15.559643 323.760328 11.367962 C333.241529 8.694714 343.009718 6.882458 352.752149 5.331036 C365.503248 3.300579 378.313795 1.268017 391.176832 0.423443 C403.845411 -0.408405 416.611280 0.241924 429.334547 0.241924 C432.501051 0.241924 435.700880 -0.054798 438.827955 0.295910 C449.457716 1.488018 460.056105 2.955364 470.677687 4.224346 C477.056471 4.986462 483.566358 5.050274 489.820265 6.364788 C499.237135 8.344067 508.588453 10.801678 517.774000 13.674786 C531.320021 17.911724 544.833204 22.331432 558.090772 27.381359 C565.697828 30.278942 572.872145 34.390728 580.062818 38.285259 C590.833814 44.118755 601.948316 49.514202 611.999586 56.429180 C624.100538 64.754253 635.451368 74.224957 646.722975 83.680950 C654.146803 89.908794 661.274855 96.607708 667.783155 103.778484 C675.996290 112.827618 683.664503 122.400616 691.159132 132.064556 C698.631422 141.699627 706.484938 151.212811 712.566603 161.709270 C720.518263 175.433025 727.244459 189.910503 733.822706 204.370892 C738.150343 213.884319 741.838941 223.774700 744.831251 233.789776 C749.631300 249.854900 754.101759 266.054974 757.757643 282.411236 C759.810377 291.594585 760.117506 301.191998 760.901441 310.628582 C761.768019 321.059185 762.356520 331.515057 762.922804 341.967693 C763.375563 350.322735 764.282667 358.729473 763.784010 367.041119 C763.104933 378.360821 761.503126 389.643902 759.886671 400.883587 C758.154859 412.926495 756.310255 424.976238 753.839674 436.882854 C751.598829 447.682415 748.842237 458.414715 745.588575 468.953106 C742.455763 479.099957 738.634962 489.056683 734.674635 498.919659 C730.717115 508.775921 725.145460 518.101665 722.198316 528.218365 C717.822096 543.241436 708.146192 555.143780 700.742140 568.329205 C693.693434 580.882305 685.082105 592.575420 676.871656 604.448711 C674.128004 608.416363 670.514601 611.784893 667.276930 615.407696 C655.969679 628.059429 645.489210 641.599590 633.129835 653.123882 C617.410719 667.780865 602.279371 683.303448 583.469801 694.432110 C575.858351 698.935406 569.438551 705.426739 561.914503 710.110699 C553.263502 715.496197 544.050611 719.999249 534.973341 724.674664 C520.834303 731.957134 506.756300 739.389629 492.345167 746.098370 C485.534986 749.268780 478.076856 751.136822 470.798292 753.191509 C457.945021 756.820049 445.059767 760.368267 432.080397 763.505596 C423.830397 765.499493 415.412306 766.851055 407.024366 768.211529 C382.563063 772.179424 357.888624 773.049664 333.193678 772.136333 C313.677564 771.414410 294.173780 770.163067 275.073316 765.316753 C262.950514 762.240704 250.361463 760.770855 238.497999 756.969219 C226.377821 753.085430 214.984938 746.988506 203.100233 742.300030 C185.835768 735.489605 170.159681 725.784893 154.443067 716.164410 C149.156263 712.928326 143.522230 710.088604 139.649061 704.711773 C138.057630 702.502422 134.592237 701.733257 132.239637 699.962872 C127.249952 696.208111 122.046400 692.616802 117.619764 688.258404 C107.379408 678.176128 97.065016 668.095318 87.685072 657.232769 C77.784193 645.766949 68.289259 633.830181 59.808058 621.293438 C51.647962 609.231548 45.383924 595.904156 37.607313 583.561016 C28.517286 569.133038 23.339308 553.110943 17.679273 537.304119 C13.822157 526.532269 11.105482 515.348797 7.985304 504.319256 C7.385450 502.198589 7.280409 499.937969 6.947096 497.241924 M68.947096 621.741924 C76.947096 631.592510 84.708509 641.650005 93.018629 651.231670 C100.348280 659.682720 107.943556 667.968975 116.058668 675.655499 C124.381056 683.538311 133.468641 690.614117 142.243971 698.016338 C143.327223 698.930035 144.494459 699.773540 145.717054 700.488140 C155.239332 706.053570 164.750746 711.638897 174.332411 717.100933 C183.894789 722.551983 193.354444 728.228008 203.190382 733.142193 C213.376295 738.231426 223.784193 742.986919 234.421949 747.028057 C244.088575 750.700298 254.069166 753.760479 264.143934 756.080791 C273.248243 758.177471 282.646681 759.077251 291.951734 760.203350 C306.909254 762.013653 321.864698 764.047466 336.883497 765.066265 C346.013136 765.685406 355.262647 764.629620 364.453443 764.218365 C368.821119 764.022930 373.195997 763.730083 377.535597 763.212872 C390.853346 761.625591 404.248243 760.431133 417.437330 758.092022 C430.170240 755.833965 442.826246 752.832256 455.248976 749.234966 C464.682814 746.502911 473.750074 742.453350 482.887159 738.759380 C496.589918 733.219952 510.434278 727.952984 523.793653 721.667217 C533.872389 716.925030 543.358229 710.891094 552.969313 705.197979 C559.158277 701.531963 565.182814 697.568096 571.117750 693.499493 C575.317945 690.620342 579.302076 687.414043 583.282667 684.228863 C597.185865 673.104229 611.709913 662.639751 624.716017 650.545635 C635.503492 640.514507 644.575758 628.618877 654.230421 617.396465 C660.398390 610.227276 666.102735 602.659405 672.263380 595.483501 C682.784376 583.228741 690.474317 569.101543 699.060865 555.566021 C699.451856 554.949688 699.287184 553.980816 699.381300 553.176128 C698.648512 553.198101 697.887892 553.104107 697.189772 553.271099 C696.299269 553.484356 695.416334 553.827251 694.603956 554.254375 C685.296583 559.148418 676.270216 564.691998 666.636427 568.819439 C655.463697 573.606182 643.874952 577.521343 632.256788 581.141338 C620.112501 584.925274 607.777418 588.149517 595.412428 591.152081 C587.917189 592.972271 580.221144 593.996807 572.588697 595.211285 C567.390821 596.038433 562.148512 596.588482 556.923170 597.239117 C546.144361 598.581524 535.390211 600.229107 524.574293 601.128765 C517.400709 601.725323 510.135450 601.139629 502.915357 601.287212 C499.548292 601.355938 496.187940 602.205669 492.830274 602.170391 C488.132521 602.121075 483.442213 601.539532 478.744581 601.250957 C472.718946 600.880718 466.641065 600.942852 460.671827 600.160992 C450.158644 598.783794 439.689649 597.029278 429.241773 595.206158 C419.799147 593.558453 410.311720 591.999371 401.023512 589.681988 C391.581617 587.326275 382.445265 583.759747 373.022413 581.311504 C353.783399 576.312847 335.563429 568.734478 317.992506 559.664776 C297.322706 548.995464 276.700880 538.175884 258.514723 523.365582 C249.470838 516.000469 239.671339 509.494793 231.104261 501.630291 C221.125807 492.470379 212.259474 482.111187 202.661939 472.521221 C188.102369 457.973125 177.160536 440.722454 166.043226 423.649395 C160.396376 414.977459 156.247450 405.344280 150.877027 396.475140 C142.318251 382.340618 137.050611 366.780010 131.914625 351.343731 C126.768019 335.875530 123.918897 319.648724 119.925733 303.788982 C116.120497 288.675640 114.987623 273.192120 114.089735 257.765240 C112.792433 235.475811 114.488355 213.251385 119.031690 191.368816 C121.849317 177.798077 125.185255 164.313580 128.887831 150.956463 C130.936598 143.565472 134.234266 136.522076 136.924879 129.305523 C137.186170 128.604900 137.135939 127.788067 137.230360 127.025188 C136.523329 127.210064 135.676100 127.207684 135.134474 127.613384 C133.204664 129.059124 131.133680 130.427227 129.557081 132.213848 C123.577223 138.990093 117.592787 145.776409 111.937818 152.822063 C102.133497 165.037701 92.277479 177.232647 83.027113 189.863873 C77.899427 196.865582 73.906263 204.705120 69.489637 212.218792 C63.900587 221.727093 57.770399 230.985882 53.019544 240.901287 C46.840040 253.798504 41.552320 267.143353 36.320814 280.468243 C31.872389 291.798565 27.660353 303.253216 24.047071 314.871624 C19.713941 328.804424 16.214125 342.949383 14.849134 357.598980 C13.651747 370.451092 11.082899 383.184734 10.111708 396.045635 C9.306654 406.707623 9.818556 417.480755 9.986463 428.200909 C10.127943 437.231609 10.245863 446.289593 11.043836 455.276043 C11.959974 465.593121 13.407484 475.876934 15.010206 486.114788 C16.370680 494.804852 17.881117 503.511944 20.078138 512.017010 C21.726209 518.396893 24.799085 524.394634 26.816603 530.697247 C28.802748 536.901897 29.655226 543.519634 32.077101 549.523663 C36.625807 560.800152 41.436354 572.032696 47.078688 582.790264 C53.855177 595.709820 61.613722 608.114361 68.947096 621.741924 M305.947096 358.741924 C305.007643 364.348064 304.638990 370.134380 302.945631 375.502666 C301.623365 379.694317 298.757887 383.430096 296.391432 387.252972 C293.797926 391.442852 294.476148 392.626263 299.202711 394.333172 C304.834547 396.367168 310.479811 398.640789 315.624342 401.655010 C319.348097 403.836590 322.224928 407.442852 325.600904 410.268414 C325.972608 410.579510 327.825147 409.993023 327.848951 409.722149 C328.743116 399.575176 333.634107 391.297283 340.001661 383.766460 C341.975782 381.431744 340.854322 380.503277 338.815504 379.616497 C327.228102 374.576275 316.527052 368.358929 308.942335 357.800701 C307.402540 355.657330 307.182447 355.814556 305.947096 358.741924 M583.947096 434.741924 C583.155470 433.575237 582.363844 432.408550 581.572218 431.241863 C580.697096 431.992107 579.357374 432.575603 579.019117 433.518353 C575.765089 442.590557 569.691969 449.207073 561.652174 454.263958 C557.949781 456.592754 558.083692 458.696697 561.665846 461.258587 C568.022535 465.804852 575.393995 469.196026 579.068800 476.809368 C580.482008 479.736919 582.292921 482.474102 583.958692 485.276653 C584.362257 485.955975 584.908644 486.550640 585.389356 487.184185 C585.908522 486.438457 586.502516 485.733318 586.934034 484.939983 C588.632765 481.817303 589.876173 478.350811 592.031568 475.592632 C596.469068 469.914165 599.881056 462.934978 607.946241 461.145306 C608.134107 461.103680 608.350050 459.188641 607.966261 458.882549 C604.243360 455.912457 600.652906 452.632183 596.521681 450.351971 C590.392408 446.968914 585.795606 442.634624 583.947096 434.741924 M395.947096 123.741985 C393.754957 125.267498 391.472608 126.686016 389.438307 128.399029 C388.969923 128.793438 388.996656 130.818645 389.395094 131.046917 C398.841749 136.459393 404.471632 144.584087 406.995680 155.057476 C407.191603 155.870708 408.012892 157.020916 408.660963 157.104656 C409.350050 157.193645 410.491163 156.374432 410.899610 155.650005 C415.958937 146.676800 425.213575 142.801556 433.080397 137.246075 C434.330030 136.363567 435.620069 135.538189 436.891554 134.686382 C435.619215 133.747417 434.466017 132.540997 433.055250 131.912823 C423.809522 127.796307 418.216017 120.372173 415.091871 111.183392 C413.640211 106.913677 412.567457 108.171795 410.401441 110.245403 C405.810499 114.640728 401.105421 118.916912 395.947096 123.741985 z"
  />
</svg>
