<?xml version="1.0" encoding="utf-8" ?>
<!DOCTYPE svg PUBLIC "-//W3C//DTD SVG 1.1//EN" "http://www.w3.org/Graphics/SVG/1.1/DTD/svg11.dtd">
<svg
  version="1.1"
  id="Contours"
  xmlns="http://www.w3.org/2000/svg"
  xmlns:xlink="http://www.w3.org/1999/xlink"
  x="0px"
  y="0px"
  width="658.330139px"
  height="658.330139px"
  viewBox="0.000004 -0.000003 658.330139 976.717590"
  enable-background="new 0 0 658.330139 658.330139"
  xml:space="preserve"
  fill="none"
  stroke-linecap="round"
  stroke-linejoin="round"
>
  <animate
    attributeName="opacity"
    dur="8s"
    keyTimes="0;0.5;0.55625;0.56875;0.625;1"
    values="0;0;1;1;0;0"
    repeatCount="indefinite"
  />
  <path
    class="selected"
    fill="#ffb6c1"
    opacity="1.000000"
    stroke="none"
    d="
M457.014584 958.850375 C447.281674 954.183749 437.706234 950.080966 428.890927 944.726474 C413.243710 935.222445 398.018856 925.018344 382.693295 914.990878 C374.146176 909.398593 365.678280 903.677768 357.309506 897.822055 C347.979305 891.293490 338.786312 884.567904 329.562802 877.887851 C320.838314 871.569247 312.075863 865.298984 303.476132 858.813876 C298.091549 854.753085 292.986080 850.323153 287.738766 846.079501 C280.876095 840.529330 274.010372 834.982943 267.120663 829.466586 C262.373532 825.665927 257.552609 821.957187 252.819027 818.139804 C243.940975 810.980014 235.098873 803.775546 226.254269 796.574374 C225.611508 796.051059 225.099117 795.370273 224.475155 794.820468 C210.558590 782.558261 196.612484 770.329501 182.732601 758.026034 C180.118344 755.708651 177.812985 753.046786 175.280209 750.632968 C161.963436 737.942172 149.053951 724.800937 133.933468 714.128207 C131.629635 712.502109 130.156246 709.726352 128.209164 707.563022 C121.773373 700.412509 115.074581 693.485507 108.884884 686.129306 C98.430416 673.704745 88.188412 661.097201 78.049679 648.412631 C71.287228 639.952304 64.554867 631.435946 58.381222 622.547275 C53.783810 615.927890 50.999996 607.903598 45.823727 601.862948 C35.757198 590.115512 30.250302 575.847873 23.423153 562.520175 C14.873470 545.829623 8.056454 528.076205 4.924435 509.204257 C2.668942 495.613864 0.032589 482.113315 0.000790 468.263217 C-0.041080 450.023715 1.572994 432.052218 6.946407 414.474032 C11.553036 399.404086 14.822994 383.829074 23.094113 370.173678 C28.620358 361.050021 34.947384 352.413546 40.833981 343.504916 C44.454281 338.025912 47.397457 332.008761 51.571285 327.006442 C58.792782 318.351352 66.352047 309.898349 74.481442 302.102939 C82.632321 294.287082 91.648800 287.373324 100.302609 280.083957 C100.892025 279.587436 101.669552 279.317904 102.276486 278.837741 C103.551815 277.828952 104.771847 276.750216 106.014584 275.700229 C104.410275 275.521274 102.712155 274.908725 101.216488 275.232211 C89.608639 277.742770 77.999142 277.321383 66.307430 275.929782 C62.142880 275.434054 57.806027 276.315890 53.660092 275.748630 C46.184139 274.725741 38.718807 273.375644 31.412838 271.517978 C29.323605 270.986728 27.798458 268.237155 26.014584 266.504855 C27.646298 264.953341 29.012814 262.720370 30.954342 261.964633 C41.005734 258.052096 51.192990 254.485934 61.354183 250.858859 C72.245297 246.971286 83.170040 243.177768 94.048702 239.256137 C95.094052 238.879367 95.917172 237.886264 96.843441 237.179233 C95.693661 236.736300 94.545223 235.922458 93.393856 235.918368 C89.601742 235.904818 85.531552 237.156772 82.067501 236.169772 C71.541866 233.171115 61.230465 229.408664 50.873104 225.834872 C39.357723 221.861545 27.664852 218.280185 16.489865 213.498324 C11.377865 211.310885 7.155819 206.844088 2.857723 203.040744 C0.794491 201.214999 2.658993 197.912204 5.887203 197.929477 C10.583798 197.954623 15.275570 198.736545 19.973080 198.778354 C23.498165 198.809665 27.032589 198.215976 30.556759 197.843234 C36.616207 197.202426 42.663448 196.434909 48.729733 195.870639 C56.778744 195.121859 64.838864 194.049167 72.898617 194.009738 C78.564022 193.981967 84.217465 195.642856 89.910763 196.193026 C97.502438 196.926608 105.125668 197.346469 112.741696 197.791781 C113.380795 197.829074 114.068295 197.037936 114.733273 196.631686 C114.166805 196.037936 113.703793 195.257480 113.018734 194.877780 C98.105831 186.611911 84.080441 176.969882 71.955502 165.042697 C61.021237 154.286654 51.095455 142.501071 40.858883 131.049716 C40.116085 130.218722 40.112362 128.312289 40.452267 127.098300 C40.629330 126.465548 42.841244 125.619235 43.227352 125.944796 C49.691464 131.394504 57.978573 130.707736 65.415768 132.849460 C72.373776 134.853305 79.118466 137.586032 86.014462 139.820651 C91.609615 141.633700 97.327389 143.069919 102.912716 144.910434 C104.937802 145.577792 106.686642 147.045260 108.663082 147.917575 C109.433346 148.257663 110.483273 147.964084 111.405819 147.959140 C111.104611 147.252109 110.928402 146.452365 110.483456 145.851840 C103.675533 136.663791 96.605404 127.658420 90.116268 118.251742 C87.721188 114.779818 86.779904 110.329135 84.985775 106.411715 C83.123043 102.344638 80.889889 98.443515 79.117733 94.340609 C78.524471 92.967196 78.158383 90.495273 78.905514 89.756564 C80.352352 88.326144 83.001522 86.589816 84.561642 87.037753 C96.565853 90.484164 109.208309 92.643283 119.638607 99.977511 C126.606625 104.877170 132.722714 110.988131 139.221493 116.555453 C139.686703 116.953952 140.163387 117.338962 140.634762 117.730197 C141.094723 116.920810 142.022823 116.060336 141.941036 115.309970 C141.232540 108.809543 140.091183 102.348544 139.578365 95.836520 C139.082577 89.540500 139.219784 83.196444 139.004330 76.876010 C138.711666 68.289432 138.155941 59.706027 138.121823 51.119632 C138.110348 48.231997 139.756771 45.363070 139.925778 42.443973 C140.236752 37.071780 140.078976 31.667697 139.987484 26.279086 C139.941342 23.560946 139.833004 20.262240 143.062313 20.115878 C144.984738 20.028781 147.609799 22.171359 148.887936 24.023227 C151.237484 27.427157 152.748226 31.398898 154.746334 35.058749 C159.794979 44.306155 165.495724 53.249423 169.853390 62.807712 C174.251522 72.454715 177.331234 82.701419 181.045712 92.664035 C181.348873 93.476962 182.093197 94.125461 182.632504 94.850375 C183.093197 94.046847 183.938107 93.252658 183.957882 92.438388 C184.372494 75.364627 188.597775 58.986484 192.700009 42.555301 C194.002987 37.336490 194.144161 31.836703 195.092587 26.514621 C195.377011 24.918399 196.276119 22.712527 197.480221 22.219973 C198.499630 21.802951 201.001095 23.058322 201.753109 24.258761 C206.207089 31.368289 210.997921 38.383456 214.413815 45.996432 C218.439999 54.969638 221.589413 64.400882 224.330868 73.861880 C225.995785 79.607333 226.133785 85.790194 227.048824 91.762607 C227.211849 92.826938 227.821285 93.822848 228.224667 94.850375 C228.821224 94.016086 229.769100 93.255465 229.961788 92.336520 C232.805416 78.773990 239.209957 66.686374 246.418881 55.175265 C254.769833 41.840487 264.095150 29.108188 273.192623 16.252475 C276.795468 11.161319 280.822201 6.354770 284.891537 1.621158 C285.780392 0.587192 287.846127 -0.244931 289.050900 0.066043 C289.967404 0.302646 291.003658 2.539493 290.917660 3.814212 C290.078671 16.243319 288.857968 28.647494 288.081295 41.079745 C287.697506 47.222018 288.250729 53.420260 287.933529 59.570163 C287.713986 63.825808 286.580990 68.027408 286.164730 72.283328 C286.004269 73.924716 286.696713 75.649508 287.000546 77.336337 C288.005245 76.261996 289.105282 75.260409 289.992977 74.096805 C291.425839 72.218600 292.459469 69.970004 294.116635 68.340396 C300.682186 61.884128 307.089169 55.198062 314.196346 49.380740 C321.128597 43.706546 328.743588 38.836062 336.256283 33.914157 C340.056210 31.424685 342.243221 32.653781 341.933285 37.008365 C341.514828 42.889132 340.602841 48.740603 339.755795 54.583346 C338.939022 60.216525 338.100033 65.855777 336.975765 71.432895 C335.338558 79.555301 333.405453 87.617709 331.686703 95.724399 C331.457943 96.803622 331.745907 97.992343 331.794613 99.130282 C332.619442 98.785434 333.438046 98.424228 334.270199 98.098117 C341.296200 95.345309 348.146542 91.938876 355.388485 89.984103 C371.782284 85.558810 388.396542 81.956698 404.861752 77.785312 C409.777767 76.539828 414.487972 74.490970 419.311825 72.867465 C420.635922 72.421908 422.122128 71.719150 423.368588 71.966647 C424.967098 72.284060 426.837216 73.130984 427.716366 74.369906 C428.153011 74.985232 426.972469 77.338504 425.953549 78.303958 C416.773739 87.000888 407.403256 95.496432 398.222958 104.192965 C392.922177 109.214267 387.812557 114.442721 382.749447 119.705661 C381.701229 120.795321 381.239437 122.449252 380.507382 123.843173 C381.998959 123.689792 383.679501 123.929171 384.950497 123.317477 C391.818661 120.011996 399.112606 119.153964 406.600887 118.805880 C417.165585 118.314792 427.710507 117.341708 438.277523 117.017245 C440.110165 116.960971 442.286312 118.838046 443.704037 120.375400 C444.110043 120.815585 442.786434 123.654452 441.617001 124.617282 C431.588680 132.873324 421.410458 140.947177 411.293270 149.095553 C410.836117 149.463717 410.534725 150.025058 410.160702 150.496432 C410.807064 150.947726 411.469052 151.812716 412.097347 151.788852 C422.729916 151.383944 433.358334 150.870944 443.987362 150.376193 C447.581478 150.208957 451.203549 149.707858 454.752133 150.029147 C455.936703 150.136447 457.846737 152.364657 457.800106 153.559970 C457.730282 155.352817 456.650082 158.118869 455.265927 158.688449 C443.589535 163.492953 431.734554 167.861850 419.955746 172.419894 C405.880551 177.866733 391.819882 183.351779 377.785946 188.903720 C377.038876 189.199252 376.598080 190.269198 376.014584 190.978610 C376.821591 191.269198 377.660946 191.879794 378.430477 191.801547 C387.523495 190.877475 396.585507 189.549594 405.696591 188.934359 C414.948666 188.309543 424.173641 187.238254 433.501156 189.668490 C443.511044 192.276767 454.111752 192.868991 463.884701 196.076999 C478.489437 200.871066 492.660580 207.026706 506.893734 212.899753 C518.422177 217.656650 530.180477 222.101901 541.076229 228.073092 C550.835140 233.421359 559.934628 240.193210 568.635433 247.194064 C578.665829 255.264804 588.566097 263.687533 597.357723 273.051425 C605.385555 281.601962 612.548641 291.176913 618.820858 301.104098 C625.151180 311.123141 631.106014 321.706027 635.071957 332.811007 C640.174618 347.099399 643.552059 362.059359 646.888607 376.906283 C649.824520 389.970187 651.764584 403.262607 653.964047 416.484164 C654.625057 420.457919 654.621639 424.538424 655.028378 428.559298 C655.641659 434.621493 656.507260 440.663119 656.933651 446.736728 C657.097103 449.063632 656.086971 451.451632 656.060116 453.816806 C655.950741 463.481601 656.014584 473.148410 656.014584 482.814425 C656.014584 491.537692 656.115658 500.262546 655.985409 508.983859 C655.861630 517.261691 655.061093 525.456637 656.784725 533.787509 C657.735409 538.383395 656.290707 543.460177 656.038021 548.325961 C655.905575 550.876071 656.014584 553.438754 656.014584 555.995761 C656.014584 564.109591 656.014584 572.223422 656.014584 580.337253 C656.014584 588.727206 656.014584 597.117160 656.014584 605.507113 C656.014584 623.563144 655.760189 641.623813 656.095150 659.673617 C656.362362 674.070468 657.573910 688.448398 657.946591 702.845492 C658.272762 715.450595 658.664730 728.113803 657.833798 740.672397 C656.982723 753.535190 654.832577 766.323886 652.975033 779.105014 C650.811093 793.995517 649.073910 809.003451 645.819882 823.664950 C642.228451 839.845614 637.085507 855.679721 632.712826 871.690707 C631.683529 875.459506 630.695614 879.295199 630.274105 883.163852 C629.179012 893.211459 625.092343 902.301303 621.743221 911.647128 C615.451107 929.206088 606.328304 945.068271 593.030697 958.216464 C583.374691 967.764071 571.749569 973.695956 557.959530 974.873080 C551.724667 975.405429 545.500668 976.811923 539.289486 976.712558 C528.168026 976.534579 516.986996 976.077792 505.973202 974.644076 C499.157284 973.756625 492.549130 971.015292 485.946346 968.810946 C476.422054 965.631503 466.987484 962.183749 457.014584 958.850375 M338.014584 104.350375 C332.854428 107.177218 327.437313 109.623996 322.582943 112.903415 C309.028622 122.060397 294.953732 130.380526 283.005978 141.945163 C275.568356 149.144381 268.091427 155.876864 263.991390 165.591159 C263.392513 167.010104 262.542233 168.335666 261.708981 169.641086 C252.269222 184.430087 243.522396 199.568393 231.306454 212.571689 C224.373959 219.950961 216.426144 225.580234 208.708431 231.744479 C207.578610 232.646884 206.973324 234.205905 206.125363 235.461154 C207.596127 235.249911 209.309017 235.452670 210.497006 234.757907 C216.685543 231.138644 222.683163 227.193515 228.858639 223.550692 C234.864437 220.007846 241.105587 216.859347 247.065243 213.243930 C259.197201 205.884067 271.207455 198.323581 283.271481 190.851779 C288.705380 187.486422 294.374630 184.447421 299.532833 180.703402 C306.902889 175.353732 313.840389 169.412265 321.080013 163.877231 C326.356747 159.842929 332.032162 156.310458 337.151791 152.095004 C343.423886 146.930575 349.326107 141.314120 355.343441 135.843844 C363.823300 128.135043 372.412899 120.538058 380.675472 112.601840 C388.719418 104.875705 396.409603 96.781405 404.259213 88.852572 C404.799252 88.307040 405.372250 87.793979 405.929989 87.265841 C405.126034 86.794040 404.364071 86.052096 403.507382 85.918673 C402.433895 85.751468 401.234432 85.917880 400.172421 86.226352 C391.553890 88.729831 382.975277 91.371371 374.345150 93.833163 C362.419491 97.235080 350.459774 100.517001 338.014584 104.350375 M208.514584 217.850375 C208.347897 219.613437 208.094723 221.378512 208.134640 223.136874 C208.139157 223.335177 210.273312 223.960421 210.621029 223.605319 C217.639950 216.438022 224.563412 209.176486 231.448727 201.879794 C232.757015 200.493319 233.938717 198.952975 234.979061 197.353671 C240.434323 188.967563 246.051449 180.674289 251.168820 172.084567 C255.435360 164.923068 259.805294 157.680514 262.862179 149.971347 C268.813900 134.961459 272.599728 119.369784 274.154965 103.154696 C275.755306 86.468661 281.079891 70.151065 279.027279 53.093844 C278.928524 52.273257 278.923092 51.418521 279.029598 50.599917 C279.665890 45.710757 280.330502 40.825076 281.019589 35.943057 C281.662533 31.387515 282.431698 26.847537 282.953610 22.278781 C283.079098 21.180453 282.445675 19.995486 282.161190 18.850375 C281.112301 19.426364 279.716610 19.746219 279.071285 20.620212 C275.137753 25.946811 271.421139 31.432803 267.546505 36.803866 C254.497250 54.892947 243.229061 73.937716 236.151608 95.227694 C233.377072 103.573947 229.981014 111.804477 228.182369 120.363986 C225.229122 134.418185 223.549435 148.734836 220.949581 162.870334 C218.942257 173.784884 216.381771 184.598971 214.002682 195.443576 C212.397946 202.758578 210.681210 210.048984 208.514584 217.850375 M179.014584 191.350375 C181.250851 195.586642 183.286740 199.944858 185.771115 204.030246 C189.347897 209.912021 193.242062 215.601169 197.024899 221.356723 C197.541805 222.143161 198.197811 222.838168 198.789547 223.575473 C199.197933 222.578952 200.020077 221.551791 199.948910 220.590732 C199.401730 213.197909 198.957760 205.779818 197.947628 198.443149 C196.547299 188.272738 194.616940 178.176547 193.036434 168.029391 C191.911312 160.806369 191.594601 153.400790 189.836788 146.345859 C187.035458 135.102572 183.720394 123.949496 179.921566 113.001559 C174.624447 97.735507 169.018185 82.555087 162.874996 67.613254 C159.716732 59.931552 155.150448 52.822940 151.123532 45.508670 C150.206295 43.842654 148.888241 42.397311 147.754818 40.850375 C147.174740 42.894565 146.554379 44.928683 146.038937 46.988986 C145.882076 47.615878 145.996151 48.315677 146.017330 48.981112 C146.346798 59.334201 146.711117 69.686282 146.996212 80.040591 C147.080624 83.106021 146.640865 86.210544 146.969601 89.239840 C147.828671 97.156466 148.578427 105.120822 150.119198 112.918368 C151.926388 122.064486 154.142147 131.172519 156.899410 140.074435 C159.030270 146.954196 162.104672 153.564181 165.052670 160.163119 C169.574398 170.284640 174.347897 180.293612 179.014584 191.350375 M148.014584 208.350375 C153.765194 211.767672 159.430416 215.340671 165.292172 218.555453 C170.427853 221.372043 175.737179 223.888156 181.059139 226.343356 C184.689449 228.018161 188.425350 229.507663 192.222958 230.745639 C193.164120 231.052401 194.528317 230.061435 195.698055 229.666903 C195.319882 228.744418 195.119808 227.685214 194.533932 226.922336 C191.414120 222.859591 188.063168 218.969211 185.046627 214.833590 C180.681332 208.848849 176.913937 202.386874 172.174313 196.729281 C168.324154 192.133517 163.638607 188.147067 158.931637 184.380160 C151.364742 178.324435 143.316586 172.869601 135.758846 166.803195 C125.016415 158.180636 111.447384 156.237338 99.279598 151.024692 C91.648190 147.755526 83.244503 146.326083 75.275326 143.793979 C70.884335 142.398776 66.749142 140.191195 62.349117 138.834872 C60.521664 138.271579 58.304012 138.974215 56.263790 139.101169 C57.255795 140.259250 58.211239 141.451449 59.249569 142.566379 C60.384640 143.785006 61.642086 144.890414 62.766049 146.118564 C65.835018 149.472018 68.606625 153.145907 71.959835 156.180392 C78.309323 161.926181 84.686398 167.721835 91.598934 172.743991 C99.687802 178.620761 108.562618 183.408481 116.727963 189.189181 C126.564938 196.153354 136.158016 203.429233 148.014584 208.350375 M374.014584 182.350375 C377.682797 180.348788 381.136410 177.560336 385.058773 176.490085 C397.898251 172.986545 409.256161 165.148288 422.804379 163.747226 C423.890072 163.634982 424.824642 162.060214 425.829403 161.165133 C424.678524 160.726901 423.514584 159.882419 422.378842 159.918551 C416.516171 160.105014 410.627255 161.084811 404.809139 160.742587 C388.191097 159.765292 372.149105 163.688632 355.918392 165.926852 C347.840267 167.040744 339.700741 168.368991 331.897152 170.653415 C321.311825 173.752170 312.455013 179.967685 303.349056 186.389255 C286.364132 198.366794 267.853451 208.185885 249.930172 218.822970 C246.213925 221.028476 242.254147 222.821078 238.494991 224.959201 C237.786740 225.362033 237.497311 226.501254 237.014584 227.300570 C237.904782 227.426974 238.869198 227.843173 239.674130 227.636874 C253.668820 224.050509 267.736141 220.702243 281.593502 216.639743 C292.231686 213.520968 302.674008 209.679416 313.069271 205.799960 C325.900570 201.011325 338.566464 195.781833 351.355404 190.876742 C358.689144 188.063998 366.124813 185.517062 374.014584 182.350375 M57.514584 258.850375 C52.737606 260.183749 47.936398 261.438632 43.200924 262.905917 C42.029171 263.268954 41.070919 264.321078 40.014584 265.056369 C41.208370 265.654391 42.381832 266.724276 43.598995 266.776462 C54.337277 267.237216 65.083309 267.776523 75.827084 267.777194 C86.513912 267.777865 97.215389 267.418185 107.881161 266.749179 C113.036801 266.425815 118.270626 265.512729 123.214108 264.021518 C133.840573 260.816134 144.190182 256.664523 154.869198 253.671115 C162.260800 251.599338 168.856808 248.510348 174.733944 243.668307 C176.431637 242.269626 178.348507 241.139560 180.132992 239.842563 C181.453610 238.882663 182.722653 237.851718 184.014584 236.852328 C182.419003 236.518344 180.792843 235.795566 179.233273 235.918429 C172.835140 236.422336 166.462948 237.660800 160.070614 237.736911 C150.830929 237.847079 141.536190 236.475558 132.351437 237.070651 C124.771298 237.561679 117.159908 239.469699 109.842709 241.678683 C98.490109 245.105807 87.390988 249.367465 76.154110 253.186068 C70.307797 255.172885 64.396542 256.968417 57.514584 258.850375 M385.014584 715.350375 C385.602230 715.938022 386.090511 716.736972 386.798031 717.069735 C388.317074 717.783969 389.949032 718.257846 391.534847 718.830111 C392.028011 717.206088 393.332699 715.281650 392.863217 714.014071 C391.428280 710.138949 389.497006 706.402011 387.327084 702.877109 C386.795712 702.013949 384.033016 701.442904 383.326107 702.013461 C382.158016 702.956332 380.982235 705.158481 381.317196 706.433993 C382.045101 709.205356 383.724301 711.726718 385.014584 715.350375 M463.514584 674.850375 C465.042294 677.711459 466.200009 680.889193 468.258602 683.296420 C469.246395 684.451327 472.074520 684.691806 473.794857 684.257968 C474.553402 684.066806 474.893734 681.173129 474.936093 679.494052 C474.974423 677.977694 474.430844 676.420566 473.996517 674.924106 C473.211117 672.218661 467.792782 668.438754 465.381893 668.854892 C461.804867 669.472567 463.371639 672.331210 463.514584 674.850375 M377.014584 386.350375 C377.299130 381.687961 377.140194 376.961642 373.905331 373.343112 C372.383480 371.640902 369.694515 370.982028 367.534481 369.850375 C367.361263 371.807406 366.725155 373.865390 367.124813 375.697360 C367.701962 378.342318 368.533505 381.230441 370.188900 383.251071 C371.623959 385.002658 374.355892 385.691684 377.014584 386.350375 M634.514706 377.850436 C634.681332 377.586764 634.929012 377.343844 635.002499 377.056308 C636.434139 371.464328 634.977230 367.469394 630.054135 364.545566 C629.210018 364.044345 626.541805 364.725375 626.513119 365.029880 C626.186215 368.492221 625.367733 372.262362 626.390194 375.391696 C627.295223 378.162143 630.361630 380.205111 634.514706 377.850436 M76.514584 434.850375 C79.532711 429.404025 79.709652 423.688510 77.971615 417.857821 C77.647335 416.770053 76.765011 415.848605 76.140255 414.850375 C75.098385 415.597751 73.662228 416.118319 73.080136 417.130221 C69.902584 422.653720 71.019711 430.117221 76.514584 434.850375 M118.014584 337.350375 C116.347897 337.734469 113.230404 338.124911 113.232113 338.501742 C113.257260 344.232028 111.745785 350.234225 115.291439 355.478549 C115.556027 355.869784 117.480404 355.783847 117.955929 355.280307 C120.560909 352.521335 120.799618 341.392489 118.014584 337.350375 M542.014584 400.350375 C542.363094 395.649203 539.368954 393.009250 535.878719 390.891452 C532.390682 388.775119 530.772396 389.729342 531.104183 393.843112 C531.310726 396.404757 531.956722 399.133883 533.175717 401.367526 C535.525204 405.672397 539.424252 405.520846 542.014584 400.350375 M474.014584 341.350375 C471.388607 340.420077 468.167904 340.500583 469.240292 343.926181 C470.873348 349.142489 473.947689 353.920505 476.571835 358.797580 C476.905209 359.417209 478.198422 359.667331 479.079647 359.752658 C479.332699 359.777194 479.959530 358.629916 479.974178 358.009372 C480.117855 351.974276 478.828427 346.392795 474.014584 341.350375 M563.514584 640.850375 C562.235409 638.237826 561.182064 635.471347 559.559750 633.092929 C558.957699 632.210238 556.931942 631.782748 555.726010 632.018832 C554.987972 632.163363 554.094296 633.970492 554.110043 635.018344 C554.147640 637.531039 553.953304 640.520663 555.212704 642.412265 C556.558285 644.433261 559.389462 646.438876 561.707333 646.609164 C565.143612 646.861606 563.668270 643.364901 563.514584 640.850375 M234.514584 594.850375 C232.665096 593.000888 230.944943 590.982943 228.888607 589.402682 C228.256466 588.916903 226.516354 589.327792 225.632382 589.883273 C224.892025 590.348483 224.020809 592.037814 224.303646 592.473483 C226.693966 596.154391 229.069576 599.914096 232.005184 603.145297 C233.698544 605.009067 235.780392 603.919955 235.925167 601.379550 C236.038326 599.393588 235.347958 597.361789 234.514584 594.850375 M189.514584 366.850375 C187.927670 365.183688 186.340756 363.517001 184.753781 361.850375 C183.917111 362.940646 182.816647 363.919772 182.300411 365.145053 C181.312618 367.489718 185.990353 378.648837 188.408383 379.597751 C189.015133 379.835849 190.906796 378.748996 190.892636 378.313937 C190.773312 374.653781 190.347897 371.003573 189.514584 366.850375 M575.014584 535.350375 C575.347958 536.039706 575.739926 536.707370 576.004452 537.422213 C577.187191 540.618442 577.878597 545.504916 582.070126 544.542453 C586.259945 543.580417 585.351498 538.992709 583.911801 535.798129 C582.916683 533.590121 580.955502 531.817538 579.425961 529.850375 C577.955502 531.350375 576.485043 532.850375 575.014584 535.350375 M267.014584 406.350375 C263.756466 412.005526 268.676998 418.820285 273.043514 420.232394 C273.792172 420.474460 275.579891 419.497104 275.923947 418.678134 C278.470455 412.616855 272.864803 407.946872 267.014584 406.350375 M229.514584 299.850375 C228.034603 299.330356 226.554562 298.810397 225.074581 298.290378 C224.945553 299.868014 224.585140 301.469211 224.743405 303.017489 C224.963375 305.169406 225.224789 307.440219 226.105465 309.369235 C227.126461 311.605624 228.761105 313.590365 230.348446 315.502475 C230.541744 315.735263 232.927975 314.692233 232.892086 314.490512 C232.050167 309.756259 231.014584 305.056491 229.514584 299.850375 M295.014584 336.350375 C296.657345 338.040927 298.300106 339.731540 299.942745 341.422152 C300.299984 338.747592 300.695309 336.076816 300.964718 333.393405 C300.997189 333.070102 300.296505 332.713473 300.022885 332.312655 C298.103268 329.500705 296.216732 326.665683 294.223995 323.907199 C294.186825 323.855746 292.475033 324.568210 292.390255 325.067721 C291.741085 328.894809 291.221737 332.773898 295.014584 336.350375 M370.014584 797.350375 C372.910702 801.246493 375.719052 805.214755 378.792660 808.965365 C379.284603 809.565829 381.186093 809.597323 382.022396 809.138339 C382.654598 808.791293 383.167660 806.943515 382.800472 806.280551 C381.148373 803.297519 379.575619 800.049472 377.135922 797.810824 C375.778134 796.565097 372.775814 797.111606 370.014584 797.350375 M11.014584 451.350375 C10.226559 450.850375 9.438534 450.350375 8.650448 449.850375 C8.105160 451.256503 7.103878 452.664767 7.110287 454.068454 C7.123226 456.917270 7.836788 459.756076 7.974728 462.612887 C8.142513 466.087741 7.938656 469.579806 8.069332 473.057834 C8.100948 473.901339 8.813595 474.719211 9.213070 475.548861 C9.813534 474.837558 10.515377 474.186801 10.985958 473.397983 C11.450619 472.619235 11.996884 471.688632 11.964169 470.845797 C11.724362 464.677707 11.347897 458.514865 11.014584 451.350375 M392.014584 609.350375 C393.884579 612.517001 395.632015 615.768832 397.722469 618.782626 C398.169247 619.426669 400.074032 619.648593 400.913265 619.245273 C401.588803 618.920688 402.234799 617.111850 401.918636 616.387607 C400.390072 612.888217 399.029232 609.123813 396.656185 606.236361 C394.070980 603.090854 392.201718 604.592807 392.014584 609.350375 M61.514584 600.850375 C61.162899 600.498691 60.872494 599.986239 60.448422 599.824740 C58.992733 599.269931 57.490231 598.838046 56.005612 598.359408 C56.008602 599.742343 55.537472 601.368319 56.099667 602.464511 C58.142208 606.447177 60.485409 610.280063 62.827816 614.100619 C63.282772 614.842685 64.242550 615.275058 64.969357 615.850375 C65.317745 614.940707 66.151119 613.889316 65.933590 613.145053 C64.772030 609.171054 63.347897 605.274081 61.514584 600.850375 M631.014706 609.350375 C631.592953 610.595370 632.123715 611.865512 632.764950 613.077182 C633.269711 614.031405 633.911068 614.913485 634.491879 615.827548 C634.999447 614.898471 635.857235 614.004550 635.955013 613.034091 C636.421200 608.402011 636.756893 603.752231 636.936337 599.100863 C636.964535 598.371249 636.043514 597.107089 635.395077 596.986667 C634.720394 596.861484 633.316342 597.683322 633.144344 598.332919 C632.271298 601.628817 631.694882 605.003329 631.014706 609.350375 M441.014584 434.350375 C444.544125 430.119418 442.380917 422.210299 437.122860 420.997653 C435.974178 420.732760 433.125179 422.798434 433.201595 423.006869 C434.819271 427.426913 435.295223 432.657443 441.014584 434.350375 M156.014584 462.350375 C157.014584 463.749240 157.873654 465.285251 159.059139 466.503573 C160.010311 467.481051 161.357357 468.073153 162.528683 468.836215 C163.023983 467.393100 164.348202 465.533359 163.869076 464.579989 C161.936337 460.734408 159.486019 457.142856 157.105160 453.537814 C156.859127 453.165439 155.473507 453.012851 155.190731 453.308078 C154.596493 453.928622 153.943356 455.009982 154.099728 455.732150 C154.515682 457.652987 155.347958 459.483798 156.014584 462.350375 M347.014584 457.350375 C348.014584 459.594150 348.690365 462.085055 350.139462 463.986545 C350.972225 465.079440 354.147762 465.998507 354.395443 465.653048 C355.612972 463.954440 357.330746 461.358676 356.759335 459.917697 C355.822201 457.554965 353.450863 455.552157 351.244320 454.039218 C350.644589 453.627963 348.467709 455.517001 347.014584 457.350375 M63.014584 520.350375 C62.014584 516.640902 61.056637 512.919223 59.983029 509.231173 C59.734860 508.378512 59.091122 507.640902 58.629391 506.850436 C57.757809 507.591281 56.143673 508.324679 56.136227 509.074191 C56.090695 513.624240 55.037838 518.469394 58.885433 522.239779 C59.711056 523.048739 60.419735 523.977023 61.182247 524.850375 C61.793026 523.683688 62.403805 522.517001 63.014584 520.350375 M331.514584 553.850375 C328.913754 550.451999 327.179867 552.241977 326.059750 554.988070 C324.063290 559.882235 327.479305 562.772311 330.435482 565.785861 C332.631283 568.024264 333.986630 566.435336 333.880428 564.506259 C333.692928 561.097079 332.681210 557.733249 331.514584 553.850375 M496.014584 267.350375 C492.593441 266.202609 491.042538 267.557895 492.568905 270.756076 C494.365658 274.520968 496.889218 277.944674 499.184139 281.459811 C499.507870 281.955905 500.349301 282.416842 500.899471 282.363315 C501.314022 282.323031 501.821591 281.484775 501.986630 280.914523 C503.231014 276.614291 500.536801 270.259433 496.014584 267.350375 M293.014584 758.350375 C294.057919 759.727084 295.043392 761.152621 296.157650 762.469394 C298.046627 764.701449 299.350826 764.217074 300.009457 761.487948 C300.371334 759.988559 301.420529 758.070102 300.862057 757.053988 C299.667721 754.881015 297.841976 752.882846 295.837338 751.407870 C294.976010 750.774203 293.025509 751.620883 291.569821 751.795077 C291.884701 753.813510 292.199642 755.831942 293.014584 758.350375 M398.014584 300.350375 C398.362362 301.031466 398.551937 301.894076 399.086849 302.360568 C400.858090 303.904941 402.754086 305.306491 404.602108 306.762851 C405.072933 304.152316 405.866390 301.541293 405.862484 298.931491 C405.860775 297.823214 404.316219 296.567599 403.242367 295.647983 C401.880062 294.481296 399.595638 292.394565 398.909725 292.789645 C396.309261 294.287509 396.219418 296.858432 398.014584 300.350375 M414.014584 521.350375 C411.144589 526.141879 414.367245 533.785006 419.771053 534.787997 C420.437924 534.911899 421.758602 534.348727 421.933407 533.823520 C422.993344 530.636264 418.179012 522.405734 414.014584 521.350375 M135.514584 649.850375 C134.218624 647.887729 133.213070 645.597934 131.513851 644.089511 C130.549435 643.233554 128.448666 643.657748 126.859677 643.505282 C126.885311 645.094272 126.348873 647.027133 127.063229 648.194735 C128.246823 650.129428 130.060970 651.816317 131.934384 653.151889 C133.789303 654.474032 136.046078 655.232577 138.126583 656.238315 C137.422604 654.275668 136.718624 652.313022 135.514584 649.850375 M531.014584 806.350375 C532.180844 809.699130 534.753597 811.158236 537.999691 810.546054 C538.405819 810.469394 538.230038 806.215121 537.942684 803.944858 C537.755795 802.466586 537.170590 800.824496 536.221981 799.721835 C535.393856 798.759433 533.808285 798.448886 532.557430 797.850375 C531.808041 799.448642 530.883480 800.994906 530.387753 802.668368 C530.161190 803.433261 530.779476 804.448642 531.014584 806.350375 M321.514584 256.850375 C320.877377 257.546542 319.595150 258.733005 319.697201 258.867404 C322.464291 262.508639 325.343075 266.068576 328.358822 269.505649 C328.490536 269.655795 330.799374 268.620151 330.900570 267.954928 C331.567196 263.579013 327.177303 257.958651 321.514584 256.850375 M426.514584 223.850375 C424.513973 224.327609 422.987118 224.897738 424.927548 227.316684 C426.585873 229.384067 427.754452 231.892306 429.608456 233.733249 C430.450741 234.569491 432.916683 234.921481 433.754208 234.297091 C434.640560 233.636325 435.219052 230.904941 434.619564 230.209689 C432.561459 227.822543 429.928402 225.930880 426.514584 223.850375 M566.014584 323.350375 C565.315487 322.317904 564.828060 320.958224 563.864437 320.334811 C562.622738 319.531527 560.999569 319.317904 559.540707 318.850375 C559.365292 320.259921 558.604550 321.954562 559.125790 323.024936 C560.608456 326.069369 562.505795 328.936923 564.487240 331.696505 C565.002865 332.414706 566.423031 332.483371 567.427670 332.850375 C567.623348 331.956759 568.093929 331.019687 567.960629 330.178195 C567.623104 328.045993 567.014584 325.956820 566.014584 323.350375 M580.014584 269.350375 C577.232601 266.901706 574.515194 264.373202 571.637264 262.043246 C570.461117 261.091037 568.937191 260.568393 567.571469 259.850375 C567.439511 261.070651 566.727230 262.759860 567.271542 263.433627 C570.320126 267.206454 572.515072 272.111667 578.190121 272.836520 C579.248104 272.971652 580.328915 272.927218 581.399105 272.965671 C581.104305 271.927279 580.809384 270.888827 580.014584 269.350375 M614.014584 453.350375 C613.681210 451.671542 613.545101 449.920627 612.964901 448.331942 C612.234677 446.332126 611.382870 444.276278 610.094662 442.626254 C609.518856 441.888705 607.635922 441.679843 606.567196 441.990634 C605.849178 442.199435 604.981747 443.829501 605.120419 444.668490 C605.465634 446.757968 606.045834 448.931918 607.090511 450.751315 C608.419125 453.065829 609.964413 455.774936 614.014584 453.350375 M522.014584 888.350375 C520.572933 887.517001 519.131283 886.683749 517.689633 885.850375 C517.131283 887.236606 516.105038 888.623813 516.107479 890.009067 C516.113339 893.370517 520.492367 897.695956 523.785214 897.773593 C524.509457 897.790683 525.960995 896.560092 525.886654 896.370517 C524.886044 893.815585 523.674130 891.343173 522.014584 888.350375 M513.014584 494.350375 C514.150692 491.373752 512.554989 483.637362 510.086117 482.659213 C508.751400 482.130465 505.435726 483.015353 505.232235 483.822238 C504.206967 487.886020 507.767147 492.832431 513.014584 494.350375 M316.514584 849.850375 C315.993466 849.517001 315.449154 848.870517 314.955258 848.906894 C313.191708 849.036776 311.445370 849.398593 309.692440 849.672519 C310.286801 851.052157 310.529598 852.829379 311.547787 853.729648 C313.748470 855.675082 316.295956 857.254184 318.817318 858.793490 C319.474056 859.194369 321.181454 859.180453 321.324032 858.866122 C321.710507 858.014193 321.925350 856.632724 321.474178 855.938022 C320.182430 853.949008 318.527035 852.196078 316.514584 849.850375 M144.014584 561.350375 C143.014584 558.615146 142.187130 555.796664 140.928219 553.186252 C140.436520 552.166720 138.974606 551.615085 137.954647 550.850375 C137.307980 551.988437 135.868405 553.405368 136.153378 554.215732 C137.317562 557.525241 138.921932 560.695285 140.569149 563.808261 C140.963070 564.552585 142.146847 564.879001 142.967343 565.397616 C143.316403 564.381869 143.665524 563.366122 144.014584 561.350375 M610.514584 777.850375 C610.681210 774.794345 611.301815 771.664340 610.821469 768.713656 C610.584164 767.255404 608.316342 766.127597 606.967220 764.850375 C606.316342 766.106357 605.130184 767.359530 605.123593 768.618930 C605.108822 771.439609 605.379574 774.350497 606.156918 777.044955 C606.486752 778.188144 607.616635 781.297030 610.514584 777.850375 M552.014584 723.350375 C551.198666 719.534457 550.540707 715.672519 549.451473 711.936191 C549.191830 711.045566 547.491757 710.574618 546.454281 709.910678 C545.974423 711.041171 544.946957 712.262240 545.116024 713.285312 C545.645565 716.486484 546.341000 719.738192 547.631161 722.681308 C547.958553 723.427890 549.166439 727.648471 552.014584 723.350375 M583.514584 920.850375 C582.143002 920.221957 580.771298 919.593661 579.399716 918.965243 C578.938046 920.271274 577.968929 921.637118 578.114437 922.871493 C578.478329 925.958285 579.129818 929.055819 580.085262 932.013705 C580.818417 934.283359 582.473324 934.237948 582.927426 931.899081 C583.598324 928.442782 583.681332 924.872226 583.514584 920.850375 M459.014584 926.350375 C459.814511 926.817050 460.562435 927.498813 461.424740 927.706942 C463.440853 928.193637 465.511654 928.453158 467.560360 928.804599 C466.461727 926.736606 465.398495 924.648349 464.241390 922.613559 C463.925839 922.058505 463.403988 921.402621 462.846737 921.241122 C460.509213 920.563266 458.450009 916.660434 455.956844 919.833285 C455.307919 920.659091 457.582699 923.782260 459.014584 926.350375 M596.014584 858.350375 C595.191586 855.527377 594.458431 852.669711 593.404598 849.935702 C593.300839 849.666293 590.259945 850.023227 590.220883 850.311557 C589.736141 853.887973 588.591976 857.678012 591.518612 860.787021 C592.330136 861.649203 593.563168 862.114657 594.602841 862.762118 C595.073422 861.624911 595.544003 860.487582 596.014584 858.350375 M484.514584 568.850375 C485.707333 572.043124 486.583676 575.415561 488.245907 578.341586 C488.927548 579.541720 491.305477 579.778293 492.911801 580.453158 C492.824886 578.964389 492.915829 577.436923 492.601864 575.997653 C492.278011 574.512240 491.892636 572.817416 490.938534 571.743380 C489.417538 570.031283 488.625424 566.552524 484.514584 568.850375 M217.514584 688.850375 C214.116635 688.873813 212.829220 690.253940 215.001583 693.274081 C216.671322 695.595492 218.621334 697.726108 220.560116 699.837314 C221.185909 700.518832 222.171810 700.869784 222.992977 701.371982 C223.089718 700.121005 223.682064 698.612460 223.190670 697.667148 C221.689144 694.778598 219.770809 692.106601 217.514584 688.850375 M390.514584 886.850375 C387.686215 884.183749 384.917172 881.448642 381.983578 878.903354 C381.330868 878.336825 380.098934 878.437655 379.133724 878.231234 C379.281185 879.458163 378.989926 881.058505 379.657406 881.843173 C381.783138 884.342196 384.092831 886.760043 386.675472 888.766269 C388.205013 889.954379 390.614071 890.985019 390.514584 886.850375 M255.514584 500.850375 C253.776730 498.921603 252.038876 496.992770 250.301022 495.063937 C250.258114 497.878695 249.649532 500.850253 250.371029 503.453097 C250.852719 505.190463 253.228085 506.402987 254.755978 507.850375 C255.175533 506.181430 255.620663 504.518222 255.998409 502.839877 C256.105038 502.366122 256.014584 501.848117 255.514584 500.850375 M314.014584 648.350375 C312.396176 645.731967 310.791317 643.104281 309.074276 640.552157 C309.034237 640.492587 307.068661 641.528964 307.110897 641.642611 C308.325131 644.916537 309.568661 648.191684 311.071102 651.340854 C311.656918 652.568637 312.876888 653.493808 313.808163 654.556796 C314.210385 653.243442 314.703427 651.948031 314.969784 650.607699 C315.075985 650.073153 314.681210 649.439120 314.014584 648.350375 M458.514584 764.850375 C460.149227 767.119418 462.017880 767.467318 461.884579 766.065097 C461.534969 762.392001 460.631527 758.757602 459.716976 755.166903 C459.572445 754.600131 458.030209 753.850985 457.473568 754.065829 C456.798763 754.326205 455.986996 755.603793 456.102352 756.296908 C456.554257 759.012240 457.347958 761.670810 458.514584 764.850375 M626.014584 686.350375 C627.191219 688.860385 628.294003 691.410067 629.604183 693.848422 C629.880428 694.362338 630.917294 694.467685 631.603573 694.761264 C631.740536 693.985385 632.153622 693.134433 631.966732 692.446689 C631.157284 689.467318 630.326351 686.473666 629.173153 683.618442 C628.730526 682.522250 627.407772 681.781527 626.486263 680.878817 C626.329037 682.369296 626.171810 683.859897 626.014584 686.350375 M439.014584 843.350375 C440.539730 845.208896 442.008846 847.118442 443.626766 848.892245 C444.069637 849.377841 445.303402 849.867465 445.575863 849.639682 C446.241757 849.082675 447.115902 847.918124 446.917660 847.333651 C446.082821 844.874301 445.407040 842.014804 443.682430 840.295443 C441.737606 838.356357 438.811215 837.663363 439.014584 843.350375 M531.014584 947.350375 C529.604061 945.939975 528.381527 944.200107 526.710140 943.247226 C525.764584 942.708285 524.046932 943.343661 522.756893 943.722201 C522.456112 943.810580 522.133480 945.372836 522.408749 945.631869 C524.642391 947.732943 526.927914 949.807895 529.414120 951.588290 C529.973812 951.989047 531.382748 951.203525 532.400814 950.964145 C532.105404 949.926181 531.809994 948.888339 531.014584 947.350375 M241.514584 791.850375 C240.375729 791.322543 239.236813 790.794711 238.097958 790.267001 C238.070187 791.615512 237.629818 793.146640 238.124203 794.264193 C238.679867 795.519931 239.996395 796.506747 241.137997 797.414340 C242.049130 798.138705 243.194210 798.568759 244.235470 799.129550 C244.161862 797.739047 244.318478 796.281283 243.939266 794.979892 C243.653622 793.999667 242.681210 793.219638 241.514584 791.850375 z"
  />
</svg>
