<?xml version="1.0" encoding="utf-8" ?>
<!DOCTYPE svg PUBLIC "-//W3C//DTD SVG 1.1//EN" "http://www.w3.org/Graphics/SVG/1.1/DTD/svg11.dtd">
<svg
  version="1.1"
  id="Contours"
  xmlns="http://www.w3.org/2000/svg"
  xmlns:xlink="http://www.w3.org/1999/xlink"
  x="0px"
  y="0px"
  width="1148.815552px"
  height="1148.815552px"
  viewBox="-0.000005 0.000016 1148.815552 838.939514"
  enable-background="new 0 0 1148.815552 1148.815552"
  xml:space="preserve"
  fill="none"
  stroke-linecap="round"
  stroke-linejoin="round"
>
  <animate
    attributeName="opacity"
    dur="8s"
    keyTimes="0;0.625;0.68125;0.69375;0.75;1"
    values="0;0;1;1;0;0"
    repeatCount="indefinite"
  />
  <path
    class="selected"
    fill="#ffb6c1"
    opacity="1.000000"
    stroke="none"
    d="
M406.602178 719.330611 C393.567083 706.295577 380.344060 693.911056 368.153875 680.582076 C360.269048 671.960616 353.940008 661.923263 346.830511 652.583785 C341.125555 645.089400 334.968450 637.915572 329.631902 630.172408 C325.874456 624.720382 323.510259 618.321822 319.891302 612.757491 C314.557867 604.557052 308.530279 596.810958 303.064519 588.692184 C300.656621 585.115523 298.882391 581.109176 296.855840 577.279220 C289.359197 563.111495 278.935674 551.734176 265.437871 542.957809 C260.829717 539.961593 257.023138 535.666427 253.071111 531.742355 C246.681036 525.397628 238.076482 525.074630 230.123235 523.160690 C221.126348 520.995773 212.013128 519.262252 202.890996 517.685226 C195.131139 516.343795 187.489568 513.844527 179.334295 515.938888 C175.997198 516.795821 172.252721 515.975631 168.699804 516.098190 C150.474737 516.726730 132.253332 517.824874 114.027166 517.899947 C105.453710 517.935348 96.837682 516.266036 88.306737 514.944381 C82.612890 514.062057 77.094640 511.871871 71.391607 511.264693 C62.803350 510.350387 57.043615 504.973678 51.137517 499.768600 C46.916112 496.048263 43.118536 491.846969 39.131841 487.860274 C35.380834 484.109298 31.367193 480.583175 27.927953 476.565231 C17.472478 464.350448 7.171758 451.934310 2.517553 436.123824 C1.055456 431.156966 -0.078120 425.848983 0.004217 420.719100 C0.224706 406.988143 0.779455 393.234054 1.959539 379.554549 C3.299413 364.023238 8.436681 349.312911 12.875219 334.449508 C18.222265 316.543990 28.368444 301.574386 40.631109 287.983749 C49.309148 278.365768 58.680639 269.339645 68.162572 260.499862 C71.368993 257.510543 75.825017 255.832259 79.777959 253.679610 C86.163122 250.202315 92.551000 246.722762 99.033483 243.432906 C111.916662 236.894759 124.841924 230.355025 139.914007 231.095138 C152.031835 231.690231 164.182470 232.008895 176.248601 233.174544 C194.845983 234.970992 213.055852 234.011153 231.020147 228.487044 C245.980169 223.886764 254.124456 213.861861 259.122076 199.158248 C266.262762 178.149215 270.250494 156.044173 281.023809 136.236190 C286.609685 125.965804 290.569097 114.806319 296.228521 104.582809 C298.311040 100.820785 303.012273 98.369002 306.804021 95.728805 C311.276372 92.614425 315.942022 89.731002 320.730291 87.126937 C329.418523 82.401961 338.218389 77.876266 347.047735 73.418136 C356.689092 68.549850 366.520635 64.050094 376.076849 59.023788 C385.230169 54.209396 394.971258 51.517867 404.901372 48.846114 C414.507085 46.261581 423.460027 41.345931 432.945318 38.193038 C442.504278 35.015731 452.569280 33.319198 462.044134 29.940597 C474.847723 25.374984 487.926092 22.769210 501.342535 20.911361 C512.158330 19.413680 522.720342 16.167586 533.481756 14.163863 C541.154363 12.735152 548.988653 12.198531 556.718633 11.047897 C564.688238 9.861617 572.586187 8.155624 580.574773 7.145797 C590.626348 5.875289 600.755437 5.228194 610.818609 4.037093 C619.975408 2.953231 629.066900 1.304794 638.230108 0.294051 C642.884038 -0.219315 647.632391 0.098067 652.338201 0.086410 C660.671453 0.065780 669.004766 0.080611 677.338079 0.080611 C690.728521 0.080611 704.120611 -0.048905 717.508916 0.119002 C729.539800 0.269942 741.580083 0.497848 753.591436 1.148360 C766.526739 1.849044 779.444707 2.952377 792.348882 4.116622 C805.311285 5.286178 818.273687 6.536849 831.187017 8.145431 C842.035894 9.496810 852.827032 11.336288 863.620122 13.103988 C873.114507 14.658919 882.618169 16.208785 892.042730 18.129256 C905.838506 20.940414 919.614873 23.879745 933.311529 27.134933 C948.142461 30.659652 962.941900 34.360397 977.621831 38.461288 C987.575445 41.241927 997.204961 45.176620 1007.148199 48.001266 C1021.317754 52.026656 1035.062994 57.079757 1047.957891 64.153670 C1058.318731 69.837386 1068.407842 76.035751 1078.420904 82.319015 C1080.635137 83.708480 1082.569341 86.160140 1083.696050 88.561935 C1088.928350 99.716293 1092.873296 111.588241 1099.078741 122.145553 C1108.177618 137.625411 1112.904058 154.796127 1120.014288 171.017379 C1123.652349 179.317489 1125.325567 188.482223 1127.846319 197.267806 C1130.539800 206.655502 1133.373052 216.009078 1135.780157 225.470504 C1137.175664 230.955672 1137.887945 236.617599 1138.844732 242.210738 C1140.869024 254.044784 1142.996221 265.863937 1144.795049 277.732650 C1145.781377 284.241378 1146.366704 290.825973 1146.812627 297.398177 C1147.619146 309.279098 1148.351690 321.170516 1148.770147 333.069686 C1148.936651 337.804549 1147.885747 342.574081 1147.923467 347.323592 C1147.978033 354.187667 1149.155523 361.088790 1148.718511 367.901290 C1147.832769 381.710921 1146.229009 395.476180 1144.836797 409.251205 C1143.917852 418.345138 1143.202642 427.480331 1141.758184 436.494857 C1140.171148 446.399215 1138.151495 456.259017 1135.783575 466.007857 C1132.041631 481.413619 1128.297735 496.845748 1123.699834 512.007491 C1120.490362 522.590377 1115.939092 532.774459 1111.826910 543.072799 C1107.944463 552.796188 1104.027227 562.513229 1099.791387 572.085250 C1096.920904 578.572066 1093.518926 584.826705 1090.272100 591.142745 C1086.314458 598.841598 1082.560186 606.666183 1078.183355 614.122604 C1073.589971 621.948043 1068.326421 629.378097 1063.427129 637.026900 C1060.059942 642.283492 1057.010625 647.754440 1053.451543 652.874068 C1050.704595 656.825362 1047.394414 660.386153 1044.320806 664.109054 C1037.962408 671.810836 1031.692876 679.588912 1025.204107 687.179610 C1018.053472 695.544601 1011.074224 704.109664 1003.321905 711.891647 C996.119146 719.121871 988.052129 725.500899 980.263921 732.135421 C972.282476 738.934371 964.420415 745.910445 956.058599 752.215499 C947.656133 758.551315 938.864873 764.414352 929.953374 770.023116 C914.585699 779.695113 899.151983 789.314620 882.552496 796.793502 C876.243413 799.636153 869.540533 801.595748 863.179693 804.335494 C856.670293 807.139449 850.590704 811.093429 843.916387 813.332198 C828.228887 818.594283 812.399908 823.509566 796.422613 827.799728 C788.946294 829.807296 780.986333 829.987472 773.259283 831.092696 C759.581670 833.049483 745.937871 835.263717 732.234258 837.011642 C724.058355 838.054366 715.790899 838.999190 707.572698 838.936568 C696.620611 838.853194 685.670721 837.825851 674.730596 837.053268 C667.329900 836.530440 659.901189 836.068160 652.568243 835.004562 C641.952825 833.464767 631.404363 831.452315 620.843145 829.553756 C612.949041 828.134566 604.946844 827.066695 597.229253 824.971481 C583.945928 821.365523 570.711736 817.468429 557.718755 812.941817 C549.313726 810.013473 541.399175 805.691695 533.219915 802.096603 C525.466741 798.688766 517.336492 795.997359 509.937261 791.955978 C495.620000 784.136642 481.483465 775.934493 467.671697 767.254928 C451.184637 756.894088 435.733343 745.062667 421.245489 732.005660 C416.538335 727.763473 411.654974 723.716720 406.602178 719.330611 M646.352178 826.080611 C651.070074 826.413985 655.785650 826.783492 660.506231 827.073409 C671.727727 827.762618 682.944646 828.737228 694.176580 828.976607 C702.917181 829.163009 711.678411 828.432174 720.429082 828.075240 C727.958135 827.768233 735.545049 827.897384 742.999883 826.973922 C756.050909 825.356856 769.108770 823.523849 781.999883 820.958541 C795.439703 818.284103 809.026128 815.624068 821.934698 811.176559 C839.814947 805.016280 857.243047 797.472701 874.625860 789.967940 C883.965826 785.935714 892.943243 780.991622 901.837530 776.017867 C912.693365 769.947433 923.446172 763.659591 933.943853 756.993697 C940.885259 752.586105 947.588628 747.692916 953.886968 742.407516 C965.224615 732.893233 976.334722 723.091842 987.237554 713.080978 C994.575079 706.343673 1001.665166 699.287765 1008.365728 691.919479 C1014.964971 684.662398 1020.961065 676.854293 1027.164922 669.241500 C1029.376592 666.527633 1030.942998 663.046065 1033.632452 661.008468 C1041.731817 654.871749 1045.882207 645.709396 1051.613897 637.888106 C1059.879034 626.609786 1066.720953 614.257857 1073.771001 602.132003 C1077.561529 595.612594 1080.462530 588.580367 1083.866460 581.830733 C1088.109624 573.417159 1093.096075 565.315353 1096.624029 556.617599 C1103.454107 539.777755 1109.915655 522.758590 1115.700689 505.535201 C1119.502813 494.215011 1121.815801 482.397262 1124.867193 470.821334 C1126.448247 464.823043 1128.627813 458.947555 1129.749517 452.871261 C1131.479742 443.499313 1132.539190 434.003341 1133.872198 424.558456 C1135.205694 415.109603 1136.870367 405.690353 1137.734869 396.198409 C1138.342168 389.530440 1137.726812 382.759505 1137.893316 376.040389 C1138.017950 371.007064 1138.845098 365.979659 1138.793218 360.955489 C1138.612432 343.426864 1138.340826 325.895797 1137.781866 308.375960 C1137.529668 300.472884 1136.894048 292.540206 1135.770391 284.716048 C1133.725103 270.475814 1131.321661 256.282394 1128.803228 242.116378 C1127.185308 233.015731 1125.656744 223.835433 1123.078374 214.984969 C1119.630254 203.149581 1115.090704 191.636153 1111.264654 179.904647 C1110.056768 176.201095 1110.085210 172.077743 1108.761236 168.432113 C1105.714849 160.042831 1102.209966 151.818954 1098.843633 143.547225 C1096.522222 137.843002 1094.252691 132.111861 1091.721807 126.500228 C1088.806646 120.036300 1085.672124 113.669356 1082.527349 107.312545 C1081.932256 106.109969 1080.843389 105.151656 1079.982427 104.080611 C1078.939092 105.025252 1077.714727 105.834640 1076.887701 106.941085 C1074.815801 109.713241 1073.228277 112.899886 1070.906988 115.424117 C1061.194585 125.985397 1047.657232 130.835982 1035.647710 137.767867 C1025.084844 143.864852 1013.001104 147.347884 1001.536993 151.852889 C996.660650 153.769088 991.748174 155.730270 986.684698 157.006942 C973.072515 160.438827 959.388433 163.592879 945.697637 166.702438 C935.773321 168.956466 925.830938 171.168929 915.826177 173.020309 C906.633306 174.721358 897.350957 175.947189 888.093999 177.284591 C887.104375 177.427535 886.020147 176.916122 884.979986 176.708297 C885.503301 175.832442 885.839117 174.433211 886.581060 174.167220 C890.797613 172.655257 895.042974 171.100448 899.406744 170.148360 C907.549688 168.371688 915.868413 167.355941 923.952276 165.366073 C933.723394 162.960921 943.309087 159.811629 953.006353 157.095931 C965.557622 153.580978 978.262701 150.562301 990.672857 146.611678 C1002.260015 142.923141 1013.830328 138.910506 1024.863653 133.852950 C1031.632207 130.750411 1037.014898 124.723922 1043.663702 121.237960 C1054.358892 115.630355 1061.737676 106.698653 1069.377325 97.952682 C1072.582037 94.283981 1071.705205 88.858138 1067.519659 86.343795 C1057.405157 80.267806 1047.473516 73.692916 1036.784429 68.818587 C1024.200079 63.080062 1011.017461 58.553573 997.866827 54.186141 C985.086309 49.941634 972.043218 46.473739 959.066534 42.839095 C951.577398 40.741439 944.024053 38.846847 936.442144 37.111922 C923.179693 34.077010 909.898565 31.111983 896.577398 28.348251 C883.471075 25.628890 870.723394 20.995040 857.084112 21.028243 C853.223394 21.037643 849.341070 20.563705 845.503545 20.050887 C836.211065 18.809127 826.956182 17.275741 817.653448 16.125167 C810.457769 15.235274 803.212530 14.747298 795.989263 14.080672 C781.542852 12.747359 767.107183 11.277877 752.645757 10.134261 C744.641607 9.501388 736.592290 9.088912 728.566778 9.137862 C696.706792 9.332076 664.848089 9.747420 632.988958 10.080001 C632.489080 10.085250 631.981939 10.025558 631.490118 10.088851 C621.208684 11.411300 610.919439 12.678939 600.651495 14.100143 C590.745245 15.471236 580.854497 16.958968 570.969976 18.480025 C563.624944 19.610213 556.313421 20.961044 548.963140 22.052657 C543.432867 22.873946 537.820196 23.190047 532.321966 24.168319 C518.229803 26.675765 504.169500 29.367843 490.120306 32.108504 C484.140630 33.275008 478.178350 34.585738 472.285711 36.127547 C466.752691 37.575240 461.361700 39.562362 455.836553 41.045211 C447.869512 43.183456 439.732366 44.740646 431.865057 47.181808 C424.821172 49.367599 418.185430 52.894332 411.117742 54.972762 C399.247686 58.463546 387.214544 61.332870 376.170782 67.205184 C370.455022 70.244308 364.544866 72.919967 358.704229 75.721542 C347.999944 80.856246 337.009222 85.475692 326.673711 91.266158 C320.624761 94.655074 315.725347 100.044784 310.100896 104.256759 C304.565252 108.402145 304.023565 109.983260 305.798833 116.625228 C307.676702 123.651046 312.615057 127.681014 318.513494 131.111434 C325.246465 135.027145 331.870855 139.133102 338.464239 143.280685 C339.338140 143.830367 339.751348 145.112106 340.377935 146.054855 C339.122137 146.149581 337.676702 146.699508 336.640081 146.267867 C327.116643 142.302352 317.447393 138.592147 308.273077 133.919356 C302.860601 131.162643 298.386236 126.737167 297.792181 119.861190 C297.737615 119.230392 296.840704 118.672408 296.334905 118.080611 C295.840642 118.683883 295.153570 119.213668 294.890264 119.904952 C294.230962 121.635543 293.863409 123.477279 293.202703 125.207259 C289.466314 134.990768 285.389471 144.655135 281.978765 154.549728 C277.448553 167.692001 272.365484 180.784591 269.501104 194.317794 C266.989385 206.184676 261.379217 215.947799 254.219060 225.005233 C247.425359 233.599105 238.259100 238.188766 227.192144 240.565108 C209.205144 244.427352 191.420385 247.209090 172.933996 245.221419 C159.956335 243.826034 146.838384 243.718429 133.779119 243.123092 C132.398168 243.060165 130.897741 243.355209 129.609472 243.873580 C117.753912 248.643783 105.767034 253.134994 94.143133 258.421615 C78.984350 265.315841 66.474523 276.140609 54.897405 287.808883 C48.173040 294.586288 42.738500 302.662032 36.887517 310.279525 C34.016454 314.017501 31.255254 317.890182 28.902776 321.966476 C22.462316 333.126388 20.579168 345.856918 16.716131 357.919601 C12.199712 372.022384 11.761266 386.629073 9.946416 401.071578 C9.618230 403.683456 10.812353 406.452254 10.789648 409.144210 C10.745580 414.366744 9.506506 419.711166 10.269262 424.778182 C11.470434 432.757247 14.718664 440.266341 19.307378 446.971603 C28.975927 461.100143 39.374517 474.531234 52.693639 485.640426 C63.053594 494.281417 73.059698 501.817062 87.469579 503.482223 C102.094335 505.172042 116.557928 507.647628 131.357427 507.146285 C134.703924 507.032882 138.100683 508.169967 141.435522 507.994430 C148.839971 507.604415 156.219518 506.744186 163.609960 506.084151 C164.582403 505.997237 165.558446 505.931441 166.534185 505.902877 C176.086828 505.623092 185.749242 504.331832 195.164831 505.340499 C206.813543 506.588180 218.234258 509.871017 229.796514 512.045577 C241.197332 514.189620 252.794500 515.508102 261.856390 524.037765 C266.640813 528.541061 272.170354 532.279464 276.760625 536.955001 C281.482366 541.764571 285.571233 547.214889 289.756170 552.527145 C295.872808 560.291427 302.447881 567.788741 307.729742 576.097823 C320.769903 596.611495 332.877447 617.719527 345.995672 638.181075 C351.666021 647.025680 358.786504 654.961593 365.471929 663.127120 C370.192815 668.893356 375.338995 674.309249 380.205877 679.958419 C385.779974 686.428634 390.910772 693.320724 396.866643 699.410934 C403.327703 706.017623 410.305913 712.167403 417.435064 718.061080 C430.160467 728.581344 443.133977 738.803390 456.080755 749.052901 C459.794317 751.992721 463.666204 754.763961 467.652715 757.320602 C474.475774 761.696212 481.312627 766.082076 488.387945 770.025314 C498.109197 775.443404 508.037237 780.493453 517.926763 785.604537 C519.966375 786.658736 522.287054 787.156905 524.373296 788.135055 C533.306890 792.323775 541.908208 797.446456 551.177740 800.641280 C565.488103 805.573287 579.407598 811.446944 594.454778 814.676315 C611.569463 818.349288 628.439825 823.211959 646.352178 826.080611 z"
  />
  <path
    class="selected"
    fill="#ffb6c1"
    opacity="1.000000"
    stroke="none"
    d="
M893.602178 144.830611 C879.742437 146.413924 866.132696 147.748763 852.522222 149.074386 C852.027105 149.122665 851.522832 149.067123 851.023321 149.082565 C840.331548 149.413314 829.609624 149.359054 818.956548 150.189010 C808.140996 151.031539 797.398565 152.790328 786.613409 154.058273 C782.602544 154.529830 778.566900 154.844833 774.533453 155.062728 C761.316534 155.777023 748.095586 156.417281 734.875982 157.079696 C721.489996 157.750472 708.096929 158.302901 694.721014 159.132552 C688.979803 159.488692 683.288030 160.685531 677.547002 160.982711 C673.880010 161.172469 670.165960 160.153182 666.469732 160.126205 C651.418340 160.016463 636.364324 160.204269 621.313970 160.038802 C610.619878 159.921310 599.930181 159.407821 589.238225 159.082259 C578.046880 158.741439 566.854925 158.421676 555.663641 158.078353 C545.138189 157.755477 534.606695 157.551498 524.090154 157.040755 C514.193914 156.560104 504.271429 156.117660 494.436590 154.993270 C479.898016 153.331100 465.247076 151.922469 450.970525 148.875899 C431.374029 144.693954 412.019231 139.311080 392.692266 133.967574 C384.923040 131.819625 377.486333 128.759627 371.171209 123.093490 C361.815313 114.699142 365.015142 106.335982 373.717840 101.311080 C382.994939 95.954452 393.250860 92.244674 403.210699 88.134139 C411.179204 84.845565 419.284734 81.857894 427.447515 79.084029 C431.564580 77.685104 435.924444 76.961349 440.208013 76.098861 C452.060064 73.712630 463.889654 71.180099 475.802984 69.142928 C489.090093 66.870956 502.477361 65.190841 515.786932 63.041854 C524.640020 61.612533 533.405767 59.638595 542.261785 58.230636 C550.292425 56.954024 558.365484 55.708297 566.467718 55.168990 C581.165960 54.190658 595.899419 53.738876 610.618902 53.083907 C618.534490 52.731734 626.448797 52.304183 634.368597 52.103561 C650.556585 51.693587 666.747625 51.402023 682.937871 51.083907 C700.627019 50.736312 718.316534 50.167098 736.006231 50.153670 C752.029302 50.141463 768.053594 50.715987 784.075933 51.090865 C796.101812 51.372298 808.137701 51.512435 820.146856 52.141891 C834.241582 52.880477 848.350347 53.714523 862.382696 55.180648 C877.262456 56.735335 892.087652 58.896163 906.881475 61.153365 C915.087286 62.405440 923.148565 64.579208 931.333501 66.001022 C939.468877 67.414230 947.901372 67.593978 955.801641 69.772506 C967.673467 73.046004 979.243658 77.455611 990.847662 81.643844 C997.937261 84.202804 1005.109014 86.758041 1011.756231 90.244613 C1016.638921 92.805587 1019.949468 97.269271 1019.895757 103.458968 C1019.861455 107.416488 1018.081182 110.346481 1014.805181 112.008712 C1009.180303 114.862533 1003.474126 117.684859 997.537115 119.763839 C988.640142 122.879440 979.588018 125.623702 970.464971 128.000838 C961.391485 130.365035 952.128912 131.993209 942.987188 134.108077 C935.559576 135.826339 928.234869 138.007796 920.779790 139.583846 C911.850957 141.471481 902.832037 142.934066 893.602178 144.830611 z"
  />
  <path
    class="selected"
    fill="#ffb6c1"
    opacity="1.000000"
    stroke="none"
    d="
M92.602178 426.330611 C83.671300 417.159530 75.418981 407.806930 72.686925 395.269576 C70.613500 385.754378 69.430791 376.327193 71.468816 366.187423 C73.680608 355.183273 76.450872 344.620040 81.961095 334.986983 C86.775304 326.570602 91.861303 318.128585 98.086248 310.761703 C102.498327 305.540450 108.968847 302.038985 114.590520 297.864120 C122.613164 291.906051 130.972417 286.641463 140.393072 282.944259 C147.441625 280.177901 154.147008 282.237106 160.737615 283.328109 C167.334539 284.420211 174.030340 286.740951 179.876104 289.979293 C184.728948 292.667648 188.839086 297.108688 192.496099 301.434432 C196.639654 306.335555 200.461431 311.684371 203.443121 317.353927 C208.906621 327.742660 213.514532 338.501449 215.968694 350.156722 C217.881414 359.240768 220.746099 368.132308 223.360418 377.058822 C227.016363 389.542037 225.577032 401.766036 223.418523 414.412765 C221.699590 424.484725 216.379644 432.334090 211.693426 440.598983 C205.820501 450.956649 195.539007 456.735946 184.394964 458.541000 C176.631536 459.798446 168.182287 457.274337 160.104620 456.019759 C150.882207 454.587386 141.790472 452.627364 133.380895 448.173324 C121.900610 442.093002 108.606908 439.468673 98.963232 429.832015 C97.402105 428.272018 94.912572 427.641036 92.602178 426.330611 M213.852178 382.580611 C211.852178 372.913619 210.031255 363.205367 207.813543 353.588546 C203.664617 335.596847 195.550664 319.521651 183.069646 305.901595 C172.046545 293.872543 157.787572 293.780685 143.128271 296.365585 C139.791204 296.954085 136.339300 297.738082 133.345892 299.240279 C128.216314 301.814620 123.372228 304.970626 118.475011 307.990646 C115.405584 309.883529 112.317052 311.793563 109.480962 314.008224 C97.786871 323.139877 92.072820 336.576339 86.220830 349.345443 C81.849279 358.884261 79.436254 369.398055 80.451086 380.795089 C81.426031 391.743880 85.661352 400.730086 92.121923 408.493209 C101.142156 419.332076 112.891241 426.972152 126.229894 432.015853 C133.711919 434.844955 140.912298 438.453353 148.470312 441.035201 C153.764135 442.843551 159.410741 443.741805 164.965948 444.634811 C174.614751 446.185592 183.852148 448.922103 193.545385 442.325423 C207.235296 433.008956 214.508367 420.950423 214.776983 404.654220 C214.892644 397.636642 214.185491 390.605575 213.852178 382.580611 z"
  />
  <path
    class="selected"
    fill="#ffb6c1"
    opacity="1.000000"
    stroke="none"
    d="
M728.852178 192.080611 C743.630254 190.747298 757.905279 189.379562 772.188116 188.099227 C777.205205 187.649398 782.250616 187.514388 787.267095 187.059615 C797.523931 186.129806 807.761724 184.976669 818.028570 184.192062 C819.578130 184.073714 821.241460 185.444137 822.852178 186.125960 C821.377813 186.777511 819.960821 187.755294 818.419561 188.025863 C810.470953 189.420821 802.500860 190.703780 794.518316 191.891708 C786.804327 193.039596 779.065923 194.021712 771.338872 195.081222 C759.198125 196.745711 747.064703 198.466293 734.913579 200.050826 C730.910528 200.572921 726.867803 200.888229 722.833257 201.056136 C705.448614 201.780013 688.062444 202.478988 670.672552 203.059432 C657.483587 203.499618 644.288152 204.004073 631.095525 204.007430 C618.236272 204.010726 605.370245 203.565658 592.520635 203.008590 C587.112493 202.774154 581.728094 201.818526 576.359746 201.011459 C575.453619 200.875106 574.684576 199.826766 573.852178 199.199813 C574.438482 198.493453 574.901922 197.587142 575.642644 197.131942 C576.537786 196.581954 577.656377 196.167281 578.697881 196.119430 C587.445379 195.717879 596.198064 195.129928 604.947759 195.153121 C615.641668 195.181502 626.334356 196.016891 637.027166 196.007491 C648.553716 195.997359 660.080938 195.449630 671.605596 195.068465 C679.801275 194.797469 687.997930 194.500899 696.185674 194.059127 C706.912237 193.480209 717.630376 192.747237 728.852178 192.080611 z"
  />
  <path
    class="selected"
    fill="#ffb6c1"
    opacity="1.000000"
    stroke="none"
    d="
M405.852178 173.080611 C412.463567 174.413924 418.567815 175.781539 424.687871 177.073714 C439.424261 180.185287 454.110601 183.439193 469.261358 184.170455 C480.530645 184.714400 491.762762 186.052047 503.006597 187.088973 C513.424566 188.049728 523.836736 189.072494 534.247991 190.103194 C534.799383 190.157760 535.318182 190.540694 535.852178 190.770675 C535.454046 191.438766 535.212408 192.402511 534.625249 192.713180 C533.414739 193.353561 532.009832 194.047591 530.702459 194.015060 C522.507696 193.811507 514.318548 193.390731 506.125677 193.094527 C503.630010 193.004317 501.109258 193.282272 498.632696 193.046920 C485.351079 191.784896 472.053655 190.628463 458.813055 189.014205 C447.802434 187.671798 436.734441 186.326461 425.924566 183.932113 C412.784551 181.021590 399.336492 178.952377 387.066839 172.835311 C381.554754 170.087081 375.836492 167.748580 370.362005 164.932174 C369.293401 164.382491 368.918035 162.485458 368.222967 161.209823 C369.713995 161.281356 371.324224 161.009322 372.677190 161.478805 C383.596197 165.267257 394.466802 169.195235 405.852178 173.080611 z"
  />
</svg>
