<?xml version="1.0" encoding="utf-8" ?>
<!DOCTYPE svg PUBLIC "-//W3C//DTD SVG 1.1//EN" "http://www.w3.org/Graphics/SVG/1.1/DTD/svg11.dtd">
<svg
  version="1.1"
  id="Contours"
  xmlns="http://www.w3.org/2000/svg"
  xmlns:xlink="http://www.w3.org/1999/xlink"
  x="0px"
  y="0px"
  width="1711.894043px"
  height="1711.894043px"
  viewBox="0.000006 -0.000002 1711.894043 931.133667"
  enable-background="new 0 0 1711.894043 1711.894043"
  xml:space="preserve"
  fill="none"
  stroke-linecap="round"
  stroke-linejoin="round"
>
  <animate
    attributeName="opacity"
    dur="8s"
    keyTimes="0;0.05625;0.06875;0.125;1"
    values="0;1;1;0;0"
    repeatCount="indefinite"
    begin="6s"
  />
  <!-- keyTimes="0;0.05625;0.125;0.18125;1" -->
  <!-- keyTimes="0;0.1125;0.125;0.2375;1" -->
  <!-- <animateTransform -->
  <!--   xmlns="http://www.w3.org/2000/svg" -->
  <!--   attributeName="transform" -->
  <!--   type="rotate" -->
  <!--   begin="0s" -->
  <!--   dur="1s" -->
  <!--   repeatCount="indefinite" -->
  <!--   values="0;5;-5;5;-5;0" -->
  <!--   keyTimes="0;0.2;0.4;0.6;0.8;1" -->
  <!-- /> -->
  <path
    class="selected"
    fill="#ffb6c1"
    opacity="1.000000"
    stroke="none"
    d="
M1552.143732 419.050234 C1549.143732 423.640444 1545.911432 427.582582 1543.188776 431.849794 C1536.055109 443.030580 1529.261041 454.428408 1522.095758 465.588320 C1518.345148 471.429628 1513.932428 476.844423 1510.146783 482.664980 C1508.318414 485.476137 1507.393732 488.857729 1505.804620 491.845156 C1501.659479 499.637514 1497.183527 507.258608 1493.195612 515.128359 C1488.946710 523.513002 1485.517023 532.330385 1480.995782 540.555361 C1473.438531 554.302797 1465.267145 567.711611 1457.413873 581.297670 C1452.522150 589.760561 1448.141779 598.549623 1442.804987 606.717226 C1436.409235 616.505434 1429.148859 625.724184 1422.427911 635.305361 C1414.199884 647.034609 1406.899347 659.511904 1397.785455 670.493471 C1389.737848 680.190126 1379.651788 688.177675 1370.656549 697.112245 C1365.295221 702.437319 1360.343561 708.172670 1355.127252 713.647036 C1352.266656 716.649233 1349.175348 719.430971 1346.299737 722.419619 C1339.914850 729.056093 1333.865167 736.039492 1327.192316 742.368471 C1318.225519 750.873232 1308.753717 758.843325 1299.607233 767.162294 C1297.594049 768.993227 1296.292291 771.630312 1294.219904 773.367617 C1288.210138 778.405825 1282.118463 783.371035 1275.798151 788.009340 C1262.667535 797.645937 1249.420953 807.127138 1236.106988 816.508974 C1232.174493 819.279970 1227.883234 821.549623 1223.710138 823.969301 C1213.501154 829.888979 1203.396051 836.006411 1192.998834 841.577211 C1184.580621 846.087709 1175.844659 850.019594 1167.160944 854.015200 C1161.148981 856.781435 1155.010065 859.278139 1148.885065 861.790956 C1137.204523 866.583437 1125.540826 871.423647 1113.777887 876.007021 C1106.024347 879.028139 1098.151056 881.759462 1090.256403 884.396303 C1079.999567 887.822084 1069.710260 891.164125 1059.357477 894.285463 C1049.117242 897.373232 1038.839777 900.376161 1028.470636 902.988222 C1016.810968 905.925234 1005.082696 908.645327 993.289239 910.980776 C979.983209 913.615663 966.604791 915.932924 953.196466 917.987856 C940.432184 919.943911 927.597223 921.451601 914.777765 923.030092 C903.176080 924.458681 891.572565 925.926577 879.934381 926.988100 C869.404840 927.948671 858.833368 928.508364 848.269342 929.014589 C837.916070 929.510927 827.547052 929.668764 817.188531 930.068544 C811.156488 930.301332 805.135187 930.851015 799.102472 931.013124 C792.883600 931.180239 786.654291 931.163393 780.434015 931.025331 C769.404352 930.780580 758.370904 930.532534 747.352533 930.004213 C738.118707 929.561464 728.882379 928.931581 719.685968 928.001284 C705.025690 926.518129 690.390619 924.774843 675.757867 923.032900 C662.439691 921.447328 649.074029 920.111025 635.848444 917.939150 C622.703729 915.780825 609.712579 912.693666 596.644830 910.059755 C583.257196 907.361147 569.778436 905.059511 556.487970 901.949892 C544.259271 899.088686 532.157159 895.618471 520.128717 891.987734 C506.675958 887.926821 493.221124 883.786196 480.035089 878.950014 C462.980463 872.694765 446.167413 865.775576 429.296808 859.026186 C420.291803 855.423647 411.216974 851.926577 402.479913 847.742494 C393.555780 843.468935 385.026300 838.375673 376.286554 833.711367 C369.331720 829.999697 362.169855 826.651796 355.367425 822.683779 C343.393945 815.699404 331.281824 808.866396 319.852228 801.056093 C303.646539 789.982241 287.881586 778.246645 272.187311 766.449282 C265.957971 761.766664 260.291711 756.300112 254.599756 750.945375 C245.202173 742.104555 235.600946 733.430727 226.793451 724.023744 C213.372003 709.688784 201.843011 693.837221 191.030115 677.417543 C185.258203 668.652773 178.494501 660.513857 171.856073 652.354799 C165.612085 644.680483 158.952814 637.343691 152.453485 629.878237 C151.580987 628.876161 150.740442 627.641542 149.605890 627.104189 C138.464716 621.827211 127.449029 616.214540 116.021539 611.635805 C107.151147 608.081728 97.427972 606.610048 88.651453 602.877993 C74.900903 597.030825 61.583643 590.149599 48.181055 583.508119 C43.871713 581.372744 39.275751 579.240175 35.862634 575.998842 C29.872766 570.310488 23.800882 564.334291 19.419992 557.427919 C14.763193 550.086367 10.706583 542.353823 9.274911 533.093447 C7.662591 522.664614 3.300928 512.661928 0.161722 502.465639 C0.021112 502.008852 0.143732 501.471254 0.143732 500.971254 C0.143732 492.581362 -0.245612 484.168154 0.257303 475.808535 C0.725595 468.024721 1.753320 460.221987 3.247858 452.566713 C4.915597 444.024233 6.477380 435.268129 9.733743 427.276796 C14.031122 416.730532 19.615472 406.659609 25.217599 396.705751 C33.705331 381.624575 41.917123 366.080873 54.269647 353.863161 C63.387445 344.844850 74.761865 338.155092 84.670343 329.876650 C95.948968 320.453615 109.295221 315.393984 122.875330 311.018984 C133.691553 307.534487 144.921289 305.601259 156.405664 304.910585 C168.057092 304.209841 179.621789 302.178469 191.258478 301.095217 C211.955225 299.168703 229.873346 290.002687 247.590173 280.138124 C258.577356 274.020510 267.176691 264.830507 277.223047 257.518251 C284.487878 252.230532 292.134210 247.453920 299.266290 241.999453 C316.830102 228.567324 336.357507 218.482485 355.686761 207.995912 C376.061334 196.942202 397.090204 187.488771 418.541559 178.669863 C432.851312 172.786928 447.436029 167.924868 461.967767 162.822267 C475.662286 158.013613 489.426263 153.293398 503.411798 149.452211 C519.195550 145.117128 535.204156 141.541933 551.219415 138.125429 C566.901727 134.780031 582.698968 131.959902 598.478937 129.092043 C605.352228 127.842897 612.328851 127.167421 619.212701 125.968325 C620.946893 125.666323 622.884393 124.710512 624.080804 123.443544 C630.821283 116.305422 637.005792 108.606264 644.083124 101.833132 C650.195673 95.983278 657.040582 90.826540 663.934564 85.883364 C672.731012 79.576052 681.782892 73.602114 690.941278 67.828127 C703.415338 59.963686 716.894769 54.116579 730.964227 49.830690 C743.874200 45.898256 756.897089 42.247927 770.039545 39.204531 C776.725397 37.656313 783.772760 37.441896 790.678339 37.166628 C794.115350 37.029665 795.401910 36.162294 795.199701 32.639040 C794.821649 26.050600 795.107843 19.605654 798.918451 13.696291 C805.437433 3.587221 817.201715 -1.985167 829.432916 0.651064 C836.060846 2.079531 842.773920 3.134218 847.071466 8.664614 C852.427057 15.556642 858.012750 22.674196 853.326654 32.534975 C852.124628 35.064333 853.301874 37.109438 856.923639 37.117678 C867.291681 37.141176 877.379938 39.176515 887.128839 42.590700 C901.819757 47.735659 916.476007 52.993837 931.014337 58.550966 C935.601617 60.304445 939.696710 63.305849 944.135065 65.497316 C952.120782 69.440554 959.268121 74.522951 966.037042 80.293825 C969.084650 82.892031 973.098077 84.331301 976.283990 86.799013 C982.376031 91.517641 988.530328 96.245546 994.041193 101.604677 C1003.027643 110.343508 1011.944513 119.227053 1020.087701 128.737307 C1026.949396 136.750978 1032.386774 145.972109 1039.054376 154.170839 C1041.258600 156.881288 1045.133356 158.623110 1048.583673 159.865297 C1067.445978 166.656435 1086.475030 172.985842 1105.321588 179.819338 C1115.592096 183.543215 1125.801935 187.548586 1135.701715 192.152285 C1148.016779 197.879091 1160.033746 204.258181 1172.086603 210.534120 C1184.297906 216.892702 1196.717828 222.940248 1208.459039 230.088808 C1221.993829 238.329348 1234.941949 247.543825 1248.036920 256.493410 C1256.382745 262.197206 1264.631769 268.055178 1272.724908 274.110598 C1276.356256 276.827578 1279.471612 280.228212 1282.875177 283.257814 C1284.676691 284.861330 1286.675836 286.246218 1288.446100 287.880983 C1297.939264 296.647463 1307.482477 305.363222 1316.810358 314.303163 C1321.046075 318.362673 1325.034845 322.725527 1328.771295 327.251528 C1338.788385 339.385622 1348.997003 351.393251 1358.381403 364.007692 C1365.560358 373.657473 1371.579767 384.168276 1378.172296 394.258608 C1378.837701 395.277040 1379.900568 396.035829 1380.778863 396.915102 C1381.567071 395.908388 1382.410211 394.939028 1383.128107 393.884340 C1383.825983 392.859316 1384.281671 391.658510 1385.038507 390.686586 C1393.385065 379.968141 1401.692316 369.217592 1410.172662 358.605471 C1415.311578 352.174684 1420.793268 346.018862 1426.014093 339.651796 C1432.118097 332.207765 1438.112726 324.673891 1444.141901 317.168642 C1450.367853 309.418337 1456.357721 301.464907 1462.854425 293.949098 C1470.140680 285.519838 1477.412408 276.983339 1485.522516 269.381105 C1500.384820 255.449526 1515.360284 241.547792 1531.248956 228.833742 C1542.061456 220.181765 1554.080865 212.768801 1566.331232 206.250368 C1582.221368 197.795168 1598.551569 190.196474 1615.490778 183.744020 C1630.517999 178.019899 1645.706598 174.525515 1661.546197 173.041689 C1668.107721 172.426943 1674.649347 171.483217 1681.222833 171.174868 C1683.576715 171.064394 1686.081354 172.177614 1688.365045 173.106569 C1690.788141 174.092043 1692.900812 175.989443 1695.374567 176.674745 C1704.672906 179.251100 1707.708185 187.071291 1708.882013 194.825258 C1710.840631 207.764833 1712.079523 220.969973 1711.871271 234.035463 C1711.676324 246.270998 1708.873956 258.313051 1705.870660 270.366518 C1703.098077 281.494936 1698.298273 291.077272 1691.992487 300.144350 C1690.171197 302.763246 1686.681329 304.403566 1683.686578 305.980226 C1679.607965 308.127504 1675.253107 309.744936 1671.048517 311.659548 C1665.719293 314.086367 1660.514947 316.813906 1655.092096 319.003725 C1642.581476 324.055605 1632.554254 332.454470 1622.930719 341.630495 C1616.377985 347.878420 1609.154596 353.418215 1602.357721 359.418032 C1600.571222 360.994936 1599.450372 363.318239 1597.686822 364.930178 C1592.408380 369.755068 1586.528253 373.994265 1581.689020 379.209963 C1575.134210 386.274599 1569.103448 393.863588 1563.276056 401.552187 C1559.194757 406.937319 1555.829156 412.864931 1552.143732 419.050234 M1107.143732 866.550234 C1109.179742 865.716982 1111.219537 864.893129 1113.251031 864.048647 C1131.164728 856.602480 1149.218927 849.470766 1166.931573 841.573061 C1176.095026 837.487245 1184.626398 831.993471 1193.491022 827.224306 C1201.933893 822.682070 1210.826471 818.852114 1218.835260 813.652162 C1235.066827 803.113344 1251.153375 792.289736 1266.686945 780.757875 C1278.085992 772.295351 1288.570123 762.588564 1299.340143 753.294985 C1304.290948 749.022646 1308.876886 744.329897 1313.763483 739.979433 C1317.614679 736.550844 1321.786798 733.479677 1325.594293 730.006166 C1327.727960 728.059633 1329.213068 725.405825 1331.332086 723.438661 C1337.649713 717.573915 1344.456354 712.205873 1350.488214 706.069765 C1362.036676 694.322206 1373.154352 682.152162 1384.502740 670.206728 C1395.293634 658.847963 1403.826715 645.856630 1412.106622 632.648867 C1416.607843 625.469057 1421.396173 618.462221 1426.239557 611.505922 C1430.404840 605.523989 1435.404352 600.055849 1439.036554 593.782534 C1449.986993 574.869448 1460.649957 555.782167 1471.039972 536.554750 C1479.042657 521.745180 1485.940485 506.323061 1494.273614 491.711733 C1505.152154 472.637026 1516.784601 453.982607 1528.429498 435.357851 C1537.398126 421.013613 1546.566583 406.770327 1556.262994 392.913759 C1562.149469 384.501650 1568.900690 376.627443 1575.850763 369.050417 C1580.525323 363.954286 1586.277399 359.856569 1591.457086 355.211306 C1598.887872 348.547121 1606.184259 341.732668 1613.643243 335.100588 C1616.999322 332.116396 1621.052911 329.813478 1624.005792 326.502077 C1629.122858 320.763857 1634.720636 316.073854 1641.865289 312.952516 C1650.057916 309.373293 1657.869806 304.932131 1665.959528 301.102602 C1669.711481 299.326601 1669.127496 297.590822 1667.279474 294.551638 C1660.203302 282.913881 1654.854303 270.443056 1655.335992 256.605226 C1655.648614 247.622805 1657.943903 238.722170 1659.113702 229.754030 C1661.063898 214.804079 1664.363214 200.303041 1672.127130 187.137331 C1673.208307 185.304079 1674.068414 183.340517 1675.030695 181.437197 C1673.055719 181.641542 1671.058893 181.723574 1669.109430 182.070803 C1658.720514 183.921144 1648.110406 185.022951 1638.013238 187.910280 C1619.913873 193.085817 1602.263116 199.705629 1585.807062 209.065920 C1571.501031 217.203066 1556.885919 224.886537 1543.143487 233.893618 C1534.023370 239.870973 1525.991876 247.596620 1517.852594 254.959413 C1508.926935 263.033815 1500.414606 271.566957 1491.767511 279.947084 C1487.839166 283.753969 1483.981500 287.635866 1480.161798 291.551943 C1475.450983 296.381472 1470.482721 301.011110 1466.216486 306.211855 C1458.628107 315.462465 1451.710504 325.264650 1444.093439 334.490419 C1435.517389 344.877809 1426.311090 354.743532 1417.680353 365.087770 C1405.735651 379.403932 1394.020563 393.913393 1382.315485 408.427431 C1378.023248 413.749697 1374.335138 419.580263 1369.834772 424.707949 C1365.027032 430.186098 1360.076349 435.759828 1354.297662 440.108950 C1346.976984 445.618593 1339.102838 450.680727 1330.809503 454.511660 C1325.024957 457.183535 1318.616632 461.992372 1311.570001 456.996767 C1310.177301 456.009584 1309.273248 454.333193 1308.143732 452.974550 C1309.656915 451.999819 1311.062799 450.508974 1312.707574 450.167177 C1315.398248 449.607851 1318.572809 450.568544 1320.972955 449.547548 C1341.004327 441.025942 1357.812555 428.371889 1369.685724 409.837343 C1370.669244 408.301943 1371.102716 405.234560 1370.233575 403.874575 C1361.870416 390.786562 1353.840631 377.398317 1344.390070 365.115786 C1334.129205 351.780153 1322.432550 339.551454 1311.416803 326.792848 C1308.480279 323.391725 1306.103204 319.431337 1302.843683 316.400453 C1295.355646 309.437685 1287.479669 302.892153 1279.766534 296.171022 C1274.499078 291.581118 1269.581964 286.499391 1263.911432 282.479311 C1249.548151 272.296572 1235.036798 262.295534 1220.229791 252.773500 C1205.823541 243.509157 1191.259332 234.413149 1176.241632 226.199160 C1161.914117 218.362673 1146.920709 211.742372 1132.200983 204.626528 C1128.873712 203.018068 1125.471612 201.563600 1122.097833 200.051760 C1114.648370 196.713381 1107.336114 193.009951 1099.713190 190.129518 C1084.718439 184.463686 1069.553278 179.248842 1054.445123 173.885195 C1053.708795 173.623720 1052.844537 173.722902 1052.039850 173.654116 C1052.031671 174.576601 1051.773004 175.585268 1052.055963 176.407656 C1053.861139 181.653749 1055.762750 186.867250 1057.678278 192.074587 C1059.137384 196.041201 1061.681573 196.901186 1065.546930 195.098940 C1069.588068 193.214723 1073.770563 191.605287 1077.984674 190.144899 C1078.820978 189.854982 1080.877985 190.640932 1080.974908 191.181154 C1081.167535 192.255983 1080.745538 194.129518 1079.954523 194.580812 C1074.722101 197.565798 1069.472711 200.613161 1063.936700 202.947023 C1058.832208 205.099001 1053.412408 206.572390 1048.041070 208.006044 C1039.915460 210.175051 1031.789972 212.507143 1023.519586 213.927004 C1014.527887 215.470522 1005.361627 215.973085 996.288385 217.070681 C985.997736 218.315554 975.759088 220.169008 965.436822 220.930056 C953.833551 221.785707 942.160944 221.685182 930.520441 222.060610 C921.824274 222.341005 913.133356 222.801943 904.436212 223.031374 C889.244195 223.432253 874.049982 223.901430 858.854791 223.980593 C849.829034 224.027590 840.801935 223.275270 831.771112 223.083498 C824.160944 222.921755 816.536127 223.279665 808.932855 222.999208 C795.870050 222.517214 782.817987 221.735781 769.763483 221.040895 C764.565729 220.764284 759.374567 220.365663 754.178400 220.054933 C748.261041 219.701113 742.322870 219.578127 736.426935 219.009890 C723.967645 217.809023 711.514276 216.512819 699.089166 215.002809 C691.385980 214.066530 683.726678 212.740480 676.070550 211.453371 C667.833673 210.068666 659.632440 208.473024 651.399530 207.063295 C641.116632 205.302614 630.680536 204.209047 620.559625 201.786928 C607.919183 198.761843 595.590265 194.458925 583.015741 191.126894 C574.625726 188.903688 567.153986 184.972902 560.018243 180.284792 C558.806634 179.488832 558.325128 177.581484 557.506341 176.187624 C559.428766 176.018495 561.559015 175.234865 563.232843 175.800905 C567.447687 177.226076 571.863336 178.679872 575.448480 181.192263 C580.286737 184.582949 581.953912 182.529848 583.554376 178.179750 C589.062189 163.209352 600.026056 151.830629 609.328973 139.361025 C609.847162 138.666567 610.333795 137.948610 610.835077 137.241579 C609.666376 136.844484 608.443414 135.998476 607.338800 136.131899 C603.589410 136.584658 599.858514 137.274660 596.162530 138.069277 C580.868341 141.357241 565.504633 144.373720 550.324823 148.129885 C526.940973 153.916017 503.538324 159.719545 480.428766 166.489015 C464.177484 171.249391 448.211725 177.153505 432.463129 183.414003 C416.159357 189.895204 400.106805 197.075441 384.249689 204.593996 C369.599847 211.540163 355.213800 219.081728 340.982049 226.856325 C331.958765 231.785585 323.167200 237.245302 314.748163 243.146852 C304.583673 250.271913 294.863916 258.039919 285.063684 265.673464 C277.344324 271.686098 270.315576 278.764162 262.045038 283.847719 C250.217096 291.117678 237.749780 297.460390 225.142480 303.308596 C217.071405 307.052553 208.442468 310.214113 199.729242 311.803652 C187.560754 314.023439 175.456049 317.245546 162.747766 316.244814 C156.780633 315.774965 150.587366 317.039308 144.606836 318.125002 C133.658960 320.112429 122.607568 321.913088 111.953577 325.010195 C103.948175 327.337404 96.562067 331.469179 89.870721 336.929811 C81.552087 343.718386 71.680078 348.761660 64.023035 356.157350 C56.671701 363.257753 50.640008 371.994997 45.205408 380.744081 C37.612283 392.968080 31.653711 406.212953 23.975839 418.377260 C17.583200 428.505556 16.948511 440.155825 13.228555 450.952700 C11.235269 456.738100 9.808664 462.606020 10.469293 469.072817 C11.488245 479.046938 10.439432 489.290956 12.050378 499.128725 C13.506876 508.023378 17.739160 516.425966 20.034708 525.231386 C22.322580 534.007509 24.368722 542.887148 30.231424 549.985781 C36.058038 557.041078 41.728174 564.733828 49.044412 569.922670 C58.284540 576.475771 69.070215 580.879579 79.292093 586.005434 C84.102747 588.417787 89.097620 590.493837 94.111108 592.462343 C99.274591 594.489931 104.563684 596.197084 109.795496 598.051088 C119.531915 601.501161 129.467065 604.487978 138.943109 608.546450 C147.593439 612.251161 154.913232 617.864931 161.859277 624.653383 C169.740259 632.355410 176.817712 640.497744 183.080743 649.391054 C192.582880 662.883608 200.833337 677.341005 211.142755 690.160219 C223.404932 705.407778 237.083978 719.543886 250.549707 733.782656 C256.701990 740.288271 263.777338 745.927553 270.502588 751.882387 C275.110559 755.962465 279.555994 760.306703 284.562433 763.841249 C299.214349 774.185854 314.417627 783.769838 328.822809 794.437807 C342.451929 804.530947 357.172845 812.623476 372.094598 820.432436 C386.868097 828.163515 401.485590 836.345522 416.796075 842.862490 C441.156915 853.231996 465.763116 863.174013 490.777216 871.815493 C513.295709 879.594789 536.462579 885.523378 559.423578 891.983583 C569.023737 894.684755 578.796258 896.810976 588.552667 898.908998 C600.367181 901.449648 612.202142 903.952333 624.113336 905.968447 C634.326471 907.696962 644.662042 908.698549 654.939020 910.054994 C667.416742 911.701723 679.869745 913.558535 692.371027 914.997499 C703.259943 916.251039 714.185052 917.311342 725.123163 917.986513 C740.053766 918.908144 755.006464 919.585634 769.959894 919.986269 C781.840753 920.304506 793.743463 920.297914 805.624933 919.990175 C822.186700 919.561220 838.749017 918.916445 855.289484 917.981020 C866.561334 917.343325 877.811945 916.199037 889.043634 915.013002 C903.368219 913.500307 917.694635 911.940493 931.964166 909.989199 C947.033380 907.928530 962.079279 905.625063 977.055719 902.977968 C990.333795 900.630922 1003.674493 898.308046 1016.678644 894.821962 C1035.499811 889.776430 1054.066583 883.770693 1072.694391 878.020815 C1084.057062 874.513369 1095.330377 870.716982 1107.143732 866.550234 M811.643732 36.050234 C816.661554 35.734743 821.675592 35.306337 826.698358 35.135866 C831.587945 34.969911 836.494684 35.211428 841.373956 34.928591 C842.343805 34.872377 843.982233 33.279909 844.017938 32.346315 C844.219293 27.088259 844.897638 21.751528 840.869073 17.199160 C832.811761 8.094179 811.474420 8.038942 805.242181 23.466188 C802.492303 30.273195 803.934808 33.531862 811.643732 36.050234 z"
  />
  <path
    class="selected"
    fill="#ffb6c1"
    opacity="1.000000"
    stroke="none"
    d="
M545.893732 862.800234 C530.855463 865.051699 516.836969 861.348329 502.869318 857.274721 C491.569452 853.979189 480.256586 850.727236 468.976190 847.366518 C454.673944 843.105532 441.963861 836.137880 429.578180 827.585390 C417.585748 819.304262 406.526788 810.222109 395.963129 800.356630 C389.841424 794.639711 383.215814 789.335634 377.835931 782.982851 C370.782159 774.653749 364.401422 765.694155 358.350641 756.593935 C352.850946 748.322573 348.301080 739.425844 343.092035 730.952578 C340.531427 726.787416 336.881769 723.236147 334.669763 718.922548 C327.914911 705.749697 321.401331 692.441713 315.223260 678.989077 C311.372644 670.604433 307.455926 662.089540 305.075098 653.228456 C301.595789 640.279116 297.531946 627.469179 297.831903 613.568300 C298.041498 603.854067 295.133020 594.099306 293.995447 584.318788 C293.328393 578.583681 293.468042 572.758364 293.114954 566.981508 C292.949640 564.276308 292.035577 561.559389 292.219629 558.900209 C293.045251 546.970278 294.427911 535.073671 295.028284 523.135683 C295.346551 516.807314 293.825403 510.371523 294.286401 504.068300 C295.114099 492.751650 296.475580 481.446108 298.226129 470.231386 C300.559167 455.285707 302.799585 440.267763 306.340387 425.584902 C309.667108 411.789858 314.390619 398.308168 318.957544 384.843996 C322.318628 374.934816 326.197382 365.183290 330.253351 355.532961 C333.952631 346.731203 337.793817 337.941652 342.303003 329.538820 C348.907953 317.230532 355.978143 305.158937 363.218500 293.209658 C367.131891 286.751039 371.521539 280.526796 376.216669 274.609560 C382.139520 267.144777 388.166070 259.666323 394.945734 253.005861 C400.973444 247.084108 408.073846 242.250368 414.730157 236.973390 C421.874139 231.309877 428.682611 225.115419 436.313654 220.202944 C444.876703 214.690676 454.303216 210.539980 463.161798 205.461489 C475.526727 198.372927 488.090509 191.676821 501.892145 187.945009 C510.064508 185.735231 518.581232 184.833010 526.864984 182.991396 C533.682367 181.475832 539.569635 182.570192 545.947626 185.764894 C551.368890 188.480471 558.066705 188.580934 564.126337 190.126100 C566.167474 190.646608 568.071039 191.912844 569.888238 193.072206 C583.200311 201.565126 589.142511 214.139284 586.753290 229.322267 C585.683771 236.118898 580.596002 242.370485 576.964532 248.657289 C570.504938 259.840090 563.586664 270.759218 557.189447 281.976381 C549.361688 295.702150 541.635431 309.497499 534.333185 323.506655 C530.428766 330.997316 527.331476 338.930056 524.187067 346.790163 C519.954034 357.371218 515.900934 368.028871 512.002252 378.737978 C507.729669 390.474184 503.527826 402.243715 499.657953 414.116762 C496.539667 423.683901 493.561761 433.332827 491.258844 443.119081 C489.058649 452.468691 488.021112 462.085512 486.095270 471.507753 C483.077081 486.273989 480.269769 501.041201 479.075616 516.107607 C478.073907 528.746889 476.333063 541.325991 475.199701 553.956972 C474.556634 561.123598 474.336969 568.337831 474.181695 575.536196 C474.014032 583.312685 474.384454 591.104677 474.093683 598.873964 C473.485284 615.131044 475.281366 631.241396 477.294122 647.280336 C478.878656 659.906435 482.426874 672.286806 483.994012 684.914003 C486.147028 702.261782 491.675470 718.711122 496.363214 735.357119 C498.590021 743.264467 503.125299 750.526552 506.661554 758.059145 C512.294794 770.058779 518.478632 781.831850 523.469720 794.091494 C527.897699 804.968569 536.789728 812.487368 542.590814 822.190737 C547.329706 830.117494 551.479974 838.487612 554.964960 847.038637 C557.081537 852.232119 552.144708 859.734072 545.893732 862.800234 z"
  />
  <path
    class="selected"
    fill="#ffb6c1"
    opacity="1.000000"
    stroke="none"
    d="
M725.893732 233.300234 C735.855341 235.050234 745.563470 236.572695 755.279596 238.042910 C762.641656 239.156923 767.944635 242.238039 770.299371 250.116823 C772.582086 257.754824 777.088129 264.789125 778.895135 272.492617 C780.967279 281.326540 781.467462 290.583559 782.075677 299.695070 C783.304010 318.098207 784.255304 336.522219 785.088861 354.948122 C785.422479 362.323183 785.254266 369.728029 785.119867 377.115786 C784.869806 390.869203 784.424860 404.619081 784.156244 418.372133 C783.773737 437.956118 783.758295 457.551943 783.053094 477.123476 C782.506891 492.282167 781.171075 507.413271 780.133356 522.553041 C779.523675 531.447084 778.794977 540.333071 778.147028 549.224550 C776.802850 567.670717 775.472589 586.117861 774.154474 604.565859 C774.071588 605.726625 774.190790 606.900576 774.136529 608.064638 C773.480951 622.121767 772.825494 636.178896 772.136529 650.234438 C771.846246 656.155336 771.472528 662.072328 771.144525 667.991396 C770.142267 686.076357 769.377557 704.178408 768.063837 722.240663 C767.144342 734.884584 765.502130 747.476869 764.137201 760.087221 C762.497980 775.232607 761.146478 790.419496 759.042841 805.500917 C757.192316 818.767763 755.106256 832.066103 751.967523 845.071352 C748.805231 858.174379 741.842157 869.209902 729.569391 876.043276 C723.750726 879.282900 718.065485 882.853456 711.977472 885.480654 C708.739191 886.878115 704.776788 886.912416 701.129633 886.986025 C691.633844 887.177309 682.118341 887.344423 672.638299 886.913759 C668.515802 886.726625 664.182245 885.650820 660.438226 883.914369 C654.266168 881.051821 647.194879 878.512270 642.817804 873.721498 C632.795526 862.751406 623.574029 850.963320 619.981195 835.784975 C618.654474 830.180117 615.014154 825.162172 613.232355 819.618349 C608.309564 804.300966 603.539728 788.922792 599.234186 773.422792 C596.104669 762.156435 593.529596 750.713686 591.253534 739.241396 C589.976678 732.805483 589.959528 726.129824 589.107782 719.596987 C587.917108 710.464418 586.365106 701.378847 585.190424 692.244448 C584.590997 687.583559 584.434625 682.862856 584.151483 678.164736 C583.132013 661.247499 581.917047 644.337953 581.210504 627.407167 C580.562982 611.892397 580.334466 596.355165 580.209283 580.825624 C580.153986 573.966982 580.596307 567.084291 581.188898 560.245058 C582.369623 546.618105 583.911615 533.022158 585.085016 519.394716 C585.460199 515.036562 584.778314 510.582338 585.215204 506.235903 C586.334466 495.100527 587.615350 483.973207 589.191339 472.893740 C591.333551 457.833803 593.427545 442.748720 596.260065 427.810610 C598.699091 414.947328 601.815301 402.186098 605.230524 389.541506 C609.103876 375.200807 613.288751 360.922060 617.976739 346.828859 C624.839105 326.198793 631.331293 305.363344 639.743402 285.356325 C646.967706 268.174257 656.238397 251.785768 665.585077 235.613283 C667.730890 231.900515 673.696771 230.033022 678.249078 228.148012 C688.122003 224.059938 698.095331 223.669619 708.270746 227.933901 C713.804559 230.252993 719.836481 231.383547 725.893732 233.300234 z"
  />
  <path
    class="selected"
    fill="#ffb6c1"
    opacity="1.000000"
    stroke="none"
    d="
M941.143732 857.050234 C926.595148 871.099306 910.409845 882.530703 891.271417 887.904238 C881.531915 890.638979 871.178278 894.118959 860.325983 891.134706 C843.743341 886.574526 835.705987 875.536684 834.110529 858.922304 C833.300348 850.485048 830.969293 842.020815 831.397943 833.675112 C832.194940 818.155092 832.286432 802.524599 835.971979 787.192324 C837.649896 780.211611 837.355341 772.772158 838.172235 765.565370 C839.395746 754.772036 840.913568 744.011660 842.099847 733.214662 C842.685907 727.880434 842.639337 722.478456 843.178278 717.137270 C844.401727 705.011904 845.878961 692.912172 847.111505 680.787661 C847.637689 675.612123 847.582025 670.373598 848.191949 665.211122 C849.406671 654.929262 850.927301 644.683779 852.264825 634.416078 C852.954095 629.125429 853.611566 623.827700 854.126398 618.517885 C855.510614 604.242006 856.870416 589.962953 858.114618 575.674257 C858.623773 569.827822 858.945123 563.957094 859.120233 558.090517 C859.843011 533.868593 860.485895 509.644228 861.132623 485.420107 C861.214166 482.365053 861.096246 479.305117 861.151544 476.248964 C861.468805 458.720278 862.425836 441.175356 861.951349 423.668886 C861.563531 409.362368 859.460321 395.103456 858.153802 380.820009 C857.755365 376.464052 857.697992 372.065920 857.088068 367.743105 C856.318903 362.291445 855.075494 356.908632 854.159662 351.475344 C852.765558 343.204653 851.755853 334.858766 850.066766 326.651003 C848.310663 318.117128 845.836969 309.733522 843.875177 301.238405 C842.463007 295.123720 841.402948 288.928408 840.136346 282.779299 C838.809137 276.336000 837.437372 269.901796 836.027887 263.476137 C835.937677 263.064821 835.418695 262.604189 834.991876 262.431642 C828.861383 259.952639 831.813959 255.718935 832.871942 251.809145 C834.419855 246.088503 838.908929 244.192812 843.996149 244.156618 C852.355279 244.097170 860.724054 245.055910 869.079401 244.936891 C875.144708 244.850588 881.194391 243.179445 887.252618 243.170046 C897.601739 243.153994 907.902521 242.392580 918.259820 245.377321 C929.765924 248.693117 938.065240 255.485414 944.453424 264.969728 C950.995782 274.682863 957.769708 284.366457 963.043634 294.771852 C968.311945 305.166078 972.018610 316.375002 976.084161 327.347536 C978.818903 334.728334 980.999078 342.315248 983.406793 349.816530 C988.129083 364.527773 992.940729 379.211489 997.523737 393.966127 C1002.710016 410.663271 1007.962091 427.349428 1012.620904 444.196596 C1014.550348 451.174013 1015.078302 458.547548 1016.127862 465.757753 C1017.525690 475.362612 1018.857843 484.977724 1020.119440 494.601381 C1020.601495 498.277040 1021.007989 501.983828 1021.099786 505.684999 C1021.258234 512.071596 1021.025079 518.467836 1021.186945 524.854189 C1021.289239 528.888613 1022.157526 532.919252 1022.078180 536.939638 C1021.846735 548.681337 1023.254205 560.496279 1020.253961 572.140688 C1019.515192 575.007387 1020.237360 578.229921 1020.125177 581.282900 C1019.848321 588.813539 1019.842706 596.379335 1019.051080 603.859438 C1018.066217 613.165468 1016.408136 622.400698 1015.025812 631.664247 C1014.417535 635.740175 1013.530206 639.790346 1013.186578 643.887148 C1011.865411 659.637392 1007.822931 674.800356 1003.756525 689.988832 C998.729547 708.764589 994.424737 727.743349 988.999689 746.399477 C985.173761 759.556093 980.303766 772.437929 975.356012 785.231996 C969.192560 801.169985 962.943292 817.110048 955.798029 832.619326 C951.911188 841.056093 946.091608 848.602358 941.143732 857.050234 z"
  />
  <path
    class="selected"
    fill="#ffb6c1"
    opacity="1.000000"
    stroke="none"
    d="
M1061.143732 322.050234 C1058.091974 312.140261 1051.199884 305.404116 1044.862360 298.305849 C1040.485895 293.403932 1035.928644 288.663210 1031.447565 283.854982 C1021.113214 272.766420 1008.174127 265.396791 995.218439 257.914797 C989.464410 254.591738 984.521661 249.846071 979.283502 245.655214 C976.610529 243.516664 978.404718 241.453554 980.247003 240.591066 C986.796320 237.525453 993.298273 233.765139 1000.248834 232.266786 C1017.604425 228.525331 1035.593195 228.733950 1052.933038 224.239260 C1058.818658 222.713564 1065.306695 223.678530 1071.461481 222.989321 C1084.621149 221.515566 1097.002985 225.463137 1109.550348 228.122438 C1117.137628 229.730348 1124.539728 232.193178 1132.087701 234.011782 C1140.359064 236.004640 1146.706964 241.107363 1152.956842 246.393007 C1160.260553 252.569948 1167.562555 258.755312 1174.686334 265.136843 C1190.026178 278.878237 1201.387750 295.801638 1212.047296 313.161135 C1217.786554 322.507875 1222.758600 332.351015 1227.670099 342.173464 C1232.215387 351.263796 1236.809991 360.406557 1240.326593 369.916872 C1246.051691 385.399477 1251.310236 401.083071 1256.019708 416.903871 C1259.821710 429.675844 1262.087823 442.832460 1264.527643 455.978578 C1268.606134 477.952333 1266.938531 499.886293 1266.850275 521.800844 C1266.799493 534.449404 1263.850885 547.091371 1262.130304 559.726015 C1260.865289 569.015566 1259.655939 578.318544 1258.096735 587.560732 C1256.291193 598.262514 1254.350763 608.951845 1252.055597 619.557314 C1250.049249 628.828920 1247.897272 638.110781 1245.053644 647.150453 C1239.357111 665.258974 1233.398004 683.295229 1227.047540 701.183901 C1223.292047 711.762880 1219.153253 722.287661 1214.156183 732.323793 C1207.670099 745.351381 1201.072320 758.498964 1192.838068 770.432558 C1184.176324 782.985536 1174.372613 795.044252 1163.415826 805.604799 C1157.255426 811.542299 1147.938165 814.445131 1139.710870 817.930483 C1131.350397 821.472353 1122.674127 824.357607 1113.969049 826.974794 C1102.243829 830.500063 1091.241632 837.351747 1078.644586 836.856874 C1067.446588 836.416933 1057.239557 832.510317 1050.915216 822.220156 C1049.897882 820.564760 1049.393854 818.429994 1049.194391 816.461855 C1047.620660 800.931459 1052.815607 786.967470 1058.593927 772.885683 C1066.018121 754.793520 1072.623102 736.347963 1079.061456 717.873476 C1084.905695 701.103578 1090.491388 684.216005 1095.370050 667.145571 C1099.268121 653.506533 1102.089288 639.549013 1105.092218 625.668642 C1107.352594 615.220888 1109.194635 604.681093 1111.111383 594.161928 C1111.656061 591.172060 1111.948419 588.118715 1112.116510 585.081240 C1112.532770 577.557802 1112.844049 570.028017 1113.135309 562.498354 C1113.503717 552.971865 1114.206354 543.436464 1114.047662 533.916811 C1113.828790 520.793886 1114.682428 507.670961 1112.347101 494.539125 C1110.640802 484.943666 1111.707330 474.846010 1109.907037 465.279116 C1107.854913 454.374330 1106.546197 443.354921 1103.725885 432.476503 C1100.802667 421.200624 1096.058527 410.315737 1094.943048 398.472353 C1094.494806 393.715029 1091.932672 389.119997 1090.117853 384.536074 C1086.547418 375.517458 1083.094781 366.436586 1079.090143 357.609865 C1075.329523 349.320681 1070.938776 341.316286 1066.786554 333.206362 C1064.955011 329.629091 1063.027643 326.100771 1061.143732 322.050234 z"
  />
  <path
    class="selected"
    fill="#ffb6c1"
    opacity="1.000000"
    stroke="none"
    d="
M52.893732 473.300234 C53.131784 465.562197 52.944101 457.950869 54.281915 450.617861 C55.891550 441.794741 58.123880 432.951601 61.308389 424.581972 C65.635782 413.208681 70.334222 401.873842 79.482965 393.109682 C84.799325 388.017031 89.457544 382.242311 94.699640 377.065920 C104.123651 367.759890 115.722497 361.992678 127.825220 356.963259 C134.129449 354.343508 140.376703 351.343019 147.261621 352.172487 C155.956842 353.219973 164.939874 352.346865 173.105035 357.307619 C182.537225 363.037966 190.421197 369.589601 192.623865 381.037233 C194.821435 392.458193 198.081506 403.822084 198.766077 415.336367 C199.247766 423.437929 196.178552 431.745668 194.734338 439.968447 C193.832849 445.101137 193.500330 450.391054 192.053491 455.360292 C187.138666 472.240175 182.865594 489.487978 173.965723 504.790224 C168.331934 514.476747 164.604669 525.482241 156.208154 533.420961 C148.719293 540.501528 140.212152 544.954286 129.504449 546.267153 C108.848199 548.799745 94.377740 537.733217 80.391000 525.557680 C74.443079 520.379824 69.141687 514.202333 64.588525 507.744448 C58.928186 499.716249 56.541803 490.090517 54.179559 480.625185 C53.605279 478.323915 53.477060 475.911562 52.893732 473.300234 M80.143747 411.550234 C75.902231 421.458437 71.115503 431.175844 67.562997 441.325136 C63.510736 452.902407 62.353601 464.895082 65.076273 477.182436 C69.307153 496.276308 78.462518 511.906679 94.747888 523.269716 C105.247522 530.595888 116.104272 536.009340 129.383295 535.106630 C138.116083 534.513002 145.702661 530.367983 150.740869 524.366518 C157.669244 516.113588 162.742944 506.190737 167.893457 496.597963 C171.295892 490.261049 174.050775 483.420473 176.008295 476.497988 C179.441003 464.358950 182.277429 452.034243 184.896204 439.688295 C186.442773 432.397280 188.209039 424.864809 187.874109 417.532289 C187.406244 407.289247 185.152460 397.117739 183.477380 386.946108 C183.002740 384.063967 182.739374 380.403444 180.902612 378.623476 C174.415277 372.336977 169.444421 363.830751 159.156305 362.520693 C151.975580 361.606325 145.096887 360.711733 137.953210 363.892519 C129.204004 367.788271 121.387079 373.047731 113.201654 377.833010 C99.222864 386.005129 89.165262 397.633852 80.143747 411.550234 z"
  />
</svg>
